<svg id="Layer_1" data-name="Layer 1" xmlns="http://www.w3.org/2000/svg" viewBox="0 0 111.96799 109.34302"><title>MKS Cracovia SSA logo</title><path d="M111.292,64.348a89.69842,89.69842,0,0,0-11.031-28.51c-1.63-2.906-3.782-13.02-5.175-20.824l-.119-.716-.598-.359c-6.172-3.584-15.288-5.098-23.77-4.061-.4.038-.758.079-1.077.119a41.485,41.485,0,0,1-17.32-2.668c-1.513-.478-2.708-.996-3.466-1.313l-.197-.08c-2.788-1.156-8.841-3.704-15.53-3.823a22.80028,22.80028,0,0,0-8.52,1.314A40.35371,40.35371,0,0,1,12.664,5.656l-4.746.196-.79-2.226a.03888.03888,0,0,0,.04-.039.96249.96249,0,0,0,.199-.201,1.4682,1.4682,0,0,0,.598-1.193A1.88024,1.88024,0,0,0,6.729.559,4.14351,4.14351,0,0,0,5.089,0H2.903A4.50152,4.50152,0,0,0,1.235.559,2.02092,2.02092,0,0,0,0,2.193a1.21418,1.21418,0,0,0,.12.516,1.10284,1.10284,0,0,0,.199.36A3.418,3.418,0,0,0,2.31,4.264l37.788,104.92.278.159,3.862-.756.041-.36-.24-.756L26.777,58.909c8.256-7.448,20.23-6.399,28.132-4.356a86.93866,86.93866,0,0,0,14.613,2.549,58.52332,58.52332,0,0,0,11.787-.16h.119a27.35255,27.35255,0,0,1,9.238.439,46.28855,46.28855,0,0,1,18.197,8.481l3.105,2.349ZM100.7,40.657l.638.238c1.313,2.589,2.47,5.098,3.425,7.407a62.24333,62.24333,0,0,0-25.804-5.017c-3.982.159-6.849.279-9.437.199-5.136-.119-8.998-.837-17.32-3.066a8.3586,8.3586,0,0,1-.956-.24,36.05768,36.05768,0,0,0-18.237.28c-.516.159-.994.279-1.433.437a54.18162,54.18162,0,0,0-1.035-7.445h.08a23.06,23.06,0,0,1,2.388-.638,33.063,33.063,0,0,1,16.046.199c1.155.319,2.151.598,3.147.797C60.126,35.879,63.59,36.436,69.522,36.397c1.992-.04,4.26-.16,7.089-.24005a59.63375,59.63375,0,0,1,24.089,4.5M95.563,26.601l.318.12c.478,2.189,1.037,4.419,1.634,6.29a61.94676,61.94676,0,0,0-21.143-3.185c-2.708.12-4.937.238-6.85.238a52.639,52.639,0,0,1-14.119-1.52c-.238-.593-.486-1.19-.7-1.806-.55-1.439-1.143-2.963-1.736-4.614l-.244-.533a53.40816,53.40816,0,0,0,16.799,1.864c1.514-.039,3.187-.118,5.098-.199a57.52884,57.52884,0,0,1,20.943,3.345M47.941,7.329l.2.12c.876.358,2.27.915,4.061,1.553a42.69818,42.69818,0,0,0,17.32,2.508,6.39146,6.39146,0,0,0,1.236-.12c8.162-.996,16.922.478,22.816,3.902.118.758.398,2.429.836,4.5a59.84487,59.84487,0,0,0-20.028-2.827c-1.833.04-3.427.159-4.86.199a54.74,54.74,0,0,1-17.32-1.792c-.658-.157-1.34-.334-2.067-.514a58.80729,58.80729,0,0,0-4.312-8.386c.834.33105,1.545.634,2.118.85706M25.046,4.861a24.25807,24.25807,0,0,1,10.133-.994,38.239,38.239,0,0,1,8.224,1.71,55.56207,55.56207,0,0,1,4.817,9.396,2.12452,2.12452,0,0,0,.159.28v.039l1.951,5.217.239.517c.557,1.553,1.114,2.986,1.633,4.341.319.917.715,1.793,1.036,2.667-.321-.079-.717-.199-1.036-.279-.2-.038-.439-.079-.677-.119a2.19759,2.19759,0,0,0-.598-.159v-.039c-.158-.04-.398-.081-.597-.12h-.039a2.85655,2.85655,0,0,0-.559-.158c-.039,0-.039-.041-.079-.041-.199-.04-.358-.081-.598-.12h-.038a3.78755,3.78755,0,0,0-.718-.199c-.199-.04-.439-.16-.677-.199a35.536,35.536,0,0,0-14.613-.159,32.00452,32.00452,0,0,0-4.14.915A43.02094,43.02094,0,0,0,24.33,18.4a6.59158,6.59158,0,0,1-.518-.718h-.041a8.37006,8.37006,0,0,0-.516-.717c0-.041-.041-.041-.041-.079a4.46158,4.46158,0,0,0-.518-.638v-.039a6.76639,6.76639,0,0,1-.477-.638c-.039-.08-.12-.118-.159-.159a3.3831,3.3831,0,0,1-.478-.597,40.4403,40.4403,0,0,0-8.839-7.606A46.02433,46.02433,0,0,0,25.046,4.861m1.627,53.755L7.942,5.92l3.925,2.563a36.99168,36.99168,0,0,1,8.52,7.327,38.77094,38.77094,0,0,1,8.242,16.167,40.25682,40.25682,0,0,1,1.496,11.198c0,4.191-2.531,12.76-3.452,15.441m64.312-2.709a29.26286,29.26286,0,0,0-9.835-.478,56.94194,56.94194,0,0,1-11.628.12A85.921,85.921,0,0,1,55.348,53.08c-1.075-.319-2.121-.549-3.146-.797a33.60486,33.60486,0,0,0-22.451,2.685,24.60062,24.60062,0,0,0,1.825-7.384l.159-.039c.439-.158.837-.28,1.274-.438a34.80335,34.80335,0,0,1,19.193-.517c8.479,2.316,12.304,3.145,17.32,3.344,2.628.04,5.616-.041,9.716-.238,8.841-.36,19.033,1.99005,28.072,6.49005l.398.199a70.54025,70.54025,0,0,1,2.071,8.243,47.33531,47.33531,0,0,0-18.794-8.721" fill="#df0005"/><path d="M21.5821,14.81427a3.43482,3.43482,0,0,0,.477.597c.04.041.119.08.16.16a6.26305,6.26305,0,0,0,.478.637v.04a4.45977,4.45977,0,0,1,.518.637c0,.04.039.04.039.079a8.19946,8.19946,0,0,1,.518.717h.04a6.221,6.221,0,0,0,.517.718,43.07446,43.07446,0,0,1,4.54,8.957,32.51007,32.51007,0,0,1,4.14-.915,35.54178,35.54178,0,0,1,14.614.159c.238.04.477.159.677.199a3.79355,3.79355,0,0,1,.717.201h.039c.239.039.398.078.597.118.039,0,.039.041.08.041a2.81926,2.81926,0,0,1,.557.158h.04c.199.039.437.08.598.12v.039a2.18977,2.18977,0,0,1,.597.159c.238.04.478.081.677.119.319.08105.716.2,1.035.27905-.319-.874-.716-1.75-1.035-2.66705-.518-1.35394-1.075-2.787-1.632-4.339l-.24-.519-1.951-5.215v-.041a2.26764,2.26764,0,0,1-.159-.278,55.5453,55.5453,0,0,0-4.819-9.398,38.31588,38.31588,0,0,0-8.222-1.71,24.293,24.293,0,0,0-10.133.994,46.06152,46.06152,0,0,1-12.304,2.35,40.43325,40.43325,0,0,1,8.84,7.60394m13.299-4.818a1.13948,1.13948,0,0,1,.917-.756,3.81182,3.81182,0,0,1,1.671-.119,6.33358,6.33358,0,0,1,2.03.597,5.38233,5.38233,0,0,1,1.632,1.19495,5.63391,5.63391,0,0,1,.917,1.553l-1.195-.081a4.503,4.503,0,0,0-1.114-1.433,3.75089,3.75089,0,0,0-1.832-.677,1.994,1.994,0,0,0-1.593.199.76362.76362,0,0,0-.238.915,1.89515,1.89515,0,0,0,.636.876,6.49485,6.49485,0,0,0,2.151.957,17.025,17.025,0,0,1,2.349.916,4.63815,4.63815,0,0,1,1.553,1.155,4.82081,4.82081,0,0,1,.836,1.35205,2.3711,2.3711,0,0,1-.039,1.394,1.58635,1.58635,0,0,1-.996.876,3.88848,3.88848,0,0,1-1.713.12,7.46007,7.46007,0,0,1-2.35-.677,5.34244,5.34244,0,0,1-1.75-1.354,3.80572,3.80572,0,0,1-1.036-1.752l1.154.041a4.68994,4.68994,0,0,0,.756,1.234,4.10282,4.10282,0,0,0,1.197.876,4.58831,4.58831,0,0,0,1.592.477,2.49031,2.49031,0,0,0,1.233-.04.88137.88137,0,0,0,.638-.437.93353.93353,0,0,0,.08-.797,2.28876,2.28876,0,0,0-.518-.837,5.65856,5.65856,0,0,0-1.076-.675c-.238-.12-.914-.358-1.87-.677a11.09129,11.09129,0,0,1-2.071-.876,5.48576,5.48576,0,0,1-1.274-.996,3.316,3.316,0,0,1-.677-1.274,1.43337,1.43337,0,0,1,0-1.275m-9.835.279,2.429,4.26,2.467-4.658,1.752-.199-2.109,3.902,7.207,4.738-1.673.16-6.012-4.061-.836,1.512,1.671,3.027-1.272.079-4.898-8.64Z" fill="#fff"/><polygon points="94.449 42.17 93.691 39.94 93.295 40.378 92.14 41.691 93.295 41.932 94.449 42.17" fill="#fff"/><path d="M49.81281,34.68329c-.12-.03894-.439-.079-.996-.159-.079-.079-.12-.079-.238-.079l-1.315-.199-.239,1.354,1.235.199a3.19154,3.19154,0,0,0,.557.079c.517.079.836.159.956.159.239-.08.437-.119.557-.159a.61664.61664,0,0,0,.239-.39795.546.546,0,0,0-.159-.478,1.06672,1.06672,0,0,0-.597-.319" fill="#fff"/><polygon points="57.099 37.432 55.983 38.625 57.099 38.904 58.255 39.184 57.536 36.954 57.099 37.432" fill="#fff"/><path d="M76.6107,36.1571c-2.829.079-5.097.199-7.089.24-5.933.038-9.396-.519-17.32-2.59-.996-.197-1.992-.477-3.147-.796a33.0749,33.0749,0,0,0-16.046-.199,23.32382,23.32382,0,0,0-2.388.638h-.08a54.18162,54.18162,0,0,1,1.035,7.445c.439-.159.916-.279,1.433-.438a36.03822,36.03822,0,0,1,18.237-.278,8.61,8.61,0,0,0,.956.238c8.322,2.231,12.184,2.947,17.32,3.067,2.589.079,5.457-.041,9.439-.199a62.27114,62.27114,0,0,1,25.802,5.01605c-.956-2.309-2.112-4.817-3.425-7.406l-.638-.238a59.616,59.616,0,0,0-24.089-4.5m-37.549.996a2.52088,2.52088,0,0,0,1.672.437,2.9458,2.9458,0,0,0,1.712-.596,1.97476,1.97476,0,0,0,.518-.837l1.713.159a2.33846,2.33846,0,0,1-.916,1.274,5.15542,5.15542,0,0,1-2.907.957,5.57373,5.57373,0,0,1-3.106-.598,2.51342,2.51342,0,0,1-.955-3.424,4.56345,4.56345,0,0,1,.756-.797,2.87508,2.87508,0,0,1,1.075-.597,10.82935,10.82935,0,0,1,1.832-.319,5.34793,5.34793,0,0,1,3.024.597,2.10394,2.10394,0,0,1,1.197,1.593l-1.831-.119a1.60068,1.60068,0,0,0-.599-.757,2.81,2.81,0,0,0-1.712-.357,2.87318,2.87318,0,0,0-1.673.557,1.684,1.684,0,0,0-.597,1.473,1.57578,1.57578,0,0,0,.797,1.354m13.259-1.394a1.099,1.099,0,0,1-.756.876,3.36236,3.36236,0,0,1-1.672.199,8.72126,8.72126,0,0,1,.796.597,12.68274,12.68274,0,0,1,.795,1.075l.837,1.234-1.991-.319-.996-1.433c-.238-.278-.437-.518-.517-.636a1.79732,1.79732,0,0,1-.278-.319.76624.76624,0,0,0-.439-.279c-.199-.079-.478-.119-.876-.238l-.317-.04-.439,2.27-1.671-.28.955-5.415,3.065.478.478.12a7.17691,7.17691,0,0,1,1.911.477,2.15381,2.15381,0,0,1,.876.638,1.151,1.151,0,0,1,.239.995m6.65,5.853-.398-1.354-1.473-.398-1.793-.439-1.035,1.03595-1.752-.438,4.461-4.539.119.041,1.633.398,2.07,6.171Zm4.539-.717a2.91441,2.91441,0,0,0,1.673.677,2.61614,2.61614,0,0,0,1.713-.279,1.503,1.503,0,0,0,.716-.83606l1.792.15906a2.29658,2.29658,0,0,1-1.274,1.513,5.39052,5.39052,0,0,1-3.106.39795,5.26468,5.26468,0,0,1-2.868-1.155,2.14663,2.14663,0,0,1-.876-2.15,3.209,3.209,0,0,1,.519-1.352,2.91091,2.91091,0,0,1,.876-.638,3.635,3.635,0,0,1,1.154-.398,7.303,7.303,0,0,1,1.87,0,5.26139,5.26139,0,0,1,2.908,1.115,2.44155,2.44155,0,0,1,.836,1.393l-1.752-.159a1.5898,1.5898,0,0,0-.397-.717,2.62889,2.62889,0,0,0-1.674-.637,3.24331,3.24331,0,0,0-1.791.2,1.69677,1.69677,0,0,0-.756,1.392,1.501,1.501,0,0,0,.437,1.474m29.786-2.348,1.552.278,2.309,6.092-1.831-.358-.518-1.394-1.512-.319-1.833-.358-.917,1.116-1.791-.36,4.301-4.738Zm-4.261-.837-.995,5.414-1.714-.317.996-5.416Zm-8.721-.557,2.07,4.18,2.15-4.022,1.833.041-3.107,5.415-1.911-.039-2.906-5.575Zm-3.026,4.778a4.92617,4.92617,0,0,1-2.987.83606h-.159a5.25726,5.25726,0,0,1-2.907-.638,2.40834,2.40834,0,0,1-1.193-2.031,2.33959,2.33959,0,0,1,.356-1.433,2.12176,2.12176,0,0,1,.797-.756,3.72318,3.72318,0,0,1,1.036-.557,11.49635,11.49635,0,0,1,1.872-.279h.039a5.80425,5.80425,0,0,1,2.986.677,2.52,2.52,0,0,1,.16,4.181" fill="#fff"/><path d="M75.8546,38.46625a3.01934,3.01934,0,0,0-1.713-.437,2.83808,2.83808,0,0,0-1.713.516,1.69986,1.69986,0,0,0-.596,1.474,1.39023,1.39023,0,0,0,.717,1.353,2.52584,2.52584,0,0,0,1.592.478h.12a2.57659,2.57659,0,0,0,1.632-.557,1.62082,1.62082,0,0,0,.636-1.473,1.44383,1.44383,0,0,0-.675-1.354" fill="#fff"/><path d="M107.30991,56.18567c-9.038-4.5-19.231-6.849-28.072-6.49-4.1.198-7.088.279-9.716.238-5.018-.199-8.841-1.028-17.32-3.345a34.83088,34.83088,0,0,0-19.193.518c-.437.159-.835.279-1.274.437l-.159.041a24.59493,24.59493,0,0,1-1.825,7.383,33.59764,33.59764,0,0,1,22.451-2.684c1.025.246,2.071.477,3.146.796a85.97818,85.97818,0,0,0,14.174,2.47,57.08171,57.08171,0,0,0,11.628-.12,29.248,29.248,0,0,1,9.835.477,47.35911,47.35911,0,0,1,18.794,8.72,70.63257,70.63257,0,0,0-2.071-8.242Z" fill="#fff"/><polygon points="29.943 18.956 28.27 15.93 29.107 14.416 35.12 18.477 36.792 18.318 29.585 13.58 31.695 9.678 29.943 9.877 27.475 14.536 25.047 10.275 23.772 10.394 28.669 19.035 29.943 18.956" fill="#df0005"/><path d="M35.5577,12.54486a5.48555,5.48555,0,0,0,1.274.996,11.08715,11.08715,0,0,0,2.071.876c.956.319,1.632.557,1.87.677a5.54209,5.54209,0,0,1,1.076.676,2.29325,2.29325,0,0,1,.518.836.93312.93312,0,0,1-.08.797.88159.88159,0,0,1-.638.437,2.4911,2.4911,0,0,1-1.233.04,4.5857,4.5857,0,0,1-1.592-.477,3.99506,3.99506,0,0,1-1.195-.876,4.70485,4.70485,0,0,1-.758-1.234l-1.154-.041a3.79614,3.79614,0,0,0,1.036,1.752,5.33008,5.33008,0,0,0,1.752,1.354,7.43287,7.43287,0,0,0,2.348.677,3.88808,3.88808,0,0,0,1.713-.12,1.58149,1.58149,0,0,0,.996-.876,2.36436,2.36436,0,0,0,.039-1.392,4.726,4.726,0,0,0-.836-1.354,4.65132,4.65132,0,0,0-1.553-1.155,16.9194,16.9194,0,0,0-2.349-.916,6.52055,6.52055,0,0,1-2.151-.956,1.929,1.929,0,0,1-.636-.875.7657.7657,0,0,1,.238-.917,2.00888,2.00888,0,0,1,1.593-.199,3.762,3.762,0,0,1,1.832.677,4.48965,4.48965,0,0,1,1.114,1.434l1.195.08a5.637,5.637,0,0,0-.917-1.553,5.385,5.385,0,0,0-1.63-1.195,6.37858,6.37858,0,0,0-2.032-.598,3.82591,3.82591,0,0,0-1.671.12,1.144,1.144,0,0,0-.917.756,1.43338,1.43338,0,0,0,0,1.275,3.343,3.343,0,0,0,.677,1.274" fill="#df0005"/><path d="M90.54671,43.60229l.915-1.114,1.833.358,1.512.319.518,1.393,1.832.359-2.309-6.093-1.553-.278-.24-.041-4.3,4.74Zm2.748-3.225.397-.437.757,2.229-1.154-.238-1.154-.241Z" fill="#df0005"/><path d="M40.5352,33.768a2.80256,2.80256,0,0,1,1.712.358,1.61121,1.61121,0,0,1,.597.758l1.831.118a2.09376,2.09376,0,0,0-1.195-1.592,5.32872,5.32872,0,0,0-3.024-.597,10.83442,10.83442,0,0,0-1.832.317,2.89258,2.89258,0,0,0-1.076.597,4.83918,4.83918,0,0,0-.757.797,2.51853,2.51853,0,0,0,.957,3.425,5.55471,5.55471,0,0,0,3.104.597,5.14425,5.14425,0,0,0,2.907-.955,2.32558,2.32558,0,0,0,.916-1.274l-1.711-.161a1.99445,1.99445,0,0,1-.518.837,2.96362,2.96362,0,0,1-1.712.598,2.51565,2.51565,0,0,1-1.672-.439,1.572,1.572,0,0,1-.797-1.354,1.67916,1.67916,0,0,1,.597-1.471,2.86381,2.86381,0,0,1,1.673-.559" fill="#df0005"/><path d="M51.20538,34.12653a7.1359,7.1359,0,0,0-1.91-.479l-.478-.118-3.067-.479-.955,5.416,1.673.278.437-2.268.319.039c.398.119.677.16.876.239a.74627.74627,0,0,1,.438.279,1.73011,1.73011,0,0,0,.279.319c.079.118.279.358.517.636l.995,1.433,1.992.319-.837-1.234a12.25378,12.25378,0,0,0-.795-1.075,8.61609,8.61609,0,0,0-.797-.597,3.36924,3.36924,0,0,0,1.673-.2,1.10009,1.10009,0,0,0,.756-.875,1.15435,1.15435,0,0,0-.24-.996,2.15679,2.15679,0,0,0-.876-.637m-.636,1.35394a.60925.60925,0,0,1-.24.398c-.119.039-.319.08-.557.159-.119,0-.438-.079-.955-.159a3.00342,3.00342,0,0,1-.557-.081l-1.235-.197.239-1.355,1.313.2c.12,0,.159,0,.24.078.557.081.876.12.996.16a1.07983,1.07983,0,0,1,.597.319.55071.55071,0,0,1,.159.478" fill="#df0005"/><path d="M57.09941,35.52008l-.118-.039-4.461,4.539,1.752.437,1.035-1.035,1.792.437,1.473.399.399,1.353,1.831.478-2.069-6.171Zm0,3.384-1.116-.279,1.116-1.193.437-.479.719,2.23Z" fill="#df0005"/><polygon points="83.26 42.767 86.367 37.352 84.534 37.312 82.384 41.334 80.313 37.152 78.443 37.152 81.349 42.727 83.26 42.767" fill="#df0005"/><polygon points="88.038 43.125 89.034 37.71 87.321 37.391 86.325 42.808 88.038 43.125" fill="#df0005"/><path d="M77.1279,37.75031a5.80425,5.80425,0,0,0-2.986-.677h-.04a11.52979,11.52979,0,0,0-1.872.279,3.67981,3.67981,0,0,0-1.035.557,2.10687,2.10687,0,0,0-.797.756,2.3379,2.3379,0,0,0-.357,1.433,2.40835,2.40835,0,0,0,1.193,2.031,5.25448,5.25448,0,0,0,2.908.638h.159a4.92409,4.92409,0,0,0,2.987-.83606,2.52,2.52,0,0,0-.16-4.181m-1.234,3.543a2.58447,2.58447,0,0,1-1.632.557h-.12a2.5272,2.5272,0,0,1-1.593-.478,1.39136,1.39136,0,0,1-.716-1.353,1.7,1.7,0,0,1,.596-1.474,2.83852,2.83852,0,0,1,1.713-.516,3.01933,3.01933,0,0,1,1.713.437,1.44788,1.44788,0,0,1,.675,1.353,1.6226,1.6226,0,0,1-.636,1.474" fill="#df0005"/><path d="M63.8287,38.02826a3.26464,3.26464,0,0,1,1.792-.199,2.6329,2.6329,0,0,1,1.673.636,1.60963,1.60963,0,0,1,.398.718l1.752.158a2.45251,2.45251,0,0,0-.837-1.392,5.24126,5.24126,0,0,0-2.906-1.114,7.22557,7.22557,0,0,0-1.872,0,3.60207,3.60207,0,0,0-1.154.396,2.9816,2.9816,0,0,0-.877.638,3.24422,3.24422,0,0,0-.518,1.354,2.15187,2.15187,0,0,0,.876,2.15,5.26422,5.26422,0,0,0,2.868,1.155,5.396,5.396,0,0,0,3.106-.39795,2.306,2.306,0,0,0,1.274-1.513l-1.793-.16a1.49548,1.49548,0,0,1-.715.835,2.60743,2.60743,0,0,1-1.713.279,2.907,2.907,0,0,1-1.671-.675,1.49888,1.49888,0,0,1-.439-1.474,1.70422,1.70422,0,0,1,.756-1.394" fill="#df0005"/><path d="M74.6199,23.25586c-1.912.079-3.583.15906-5.097.199a53.42034,53.42034,0,0,1-16.801-1.864l.246.533c.593,1.652,1.185,3.175,1.734,4.615.215.615.462,1.213.701,1.805a52.642,52.642,0,0,0,14.12,1.521c1.912,0,4.142-.118,6.849-.238a61.91222,61.91222,0,0,1,21.144,3.185c-.599-1.872-1.156-4.102-1.634-6.291l-.319-.121a57.54467,57.54467,0,0,0-20.943-3.34406" fill="#fff"/><path d="M52.20131,15.37207a54.72253,54.72253,0,0,0,17.321,1.79205c1.434-.04,3.026-.16,4.859-.199a59.79031,59.79031,0,0,1,20.028,2.827c-.437-2.071-.717-3.743-.835-4.499-5.894-3.425-14.654-4.898-22.817-3.903a6.44335,6.44335,0,0,1-1.235.12,42.7399,42.7399,0,0,1-17.321-2.508c-1.791-.638-3.185-1.19495-4.061-1.554l-.199-.119c-.573-.225-1.284-.526-2.118-.856a58.81247,58.81247,0,0,1,4.314,8.384c.727.181,1.407.358,2.064.515" fill="#fff"/></svg>