<?xml version="1.0" encoding="utf-8"?>
<!-- Generator: Adobe Illustrator 13.0.0, SVG Export Plug-In . SVG Version: 6.00 Build 14948)  -->
<!DOCTYPE svg PUBLIC "-//W3C//DTD SVG 1.0//EN" "http://www.w3.org/TR/2001/REC-SVG-20010904/DTD/svg10.dtd">
<svg version="1.0" id="Ebene_1" xmlns="http://www.w3.org/2000/svg" xmlns:xlink="http://www.w3.org/1999/xlink" x="0px" y="0px"
	 width="222.091px" height="340.158px" viewBox="0 0 222.091 340.158" enable-background="new 0 0 222.091 340.158"
	 xml:space="preserve">
<polygon fill-rule="evenodd" clip-rule="evenodd" fill="#EDEDEE" points="2.134,0 220.784,0 204.335,56.426 222.091,56.374 
	208.792,80.72 208.812,208.392 219.548,205.138 219.542,238.203 208.796,240.916 208.794,277.324 219.54,274.589 219.526,304.029 
	112.123,340.158 2.547,303.984 2.545,274.576 13.57,277.33 13.566,239.818 2.552,236.445 2.509,207.015 13.559,208.974 
	13.798,80.697 0,56.344 18.778,56.407 2.134,0 "/>
<path fill="#0E447B" d="M52.513,13.561l-4.832,16.005l5.291,19.451h-8.719L40.844,33.82v15.198h-8.446V13.561h8.446v13.777
	l3.744-13.777H52.513L52.513,13.561z M75.783,13.561l-4.832,16.005l5.291,19.451h-8.72L64.114,33.82v15.198h-8.446V13.561h8.446
	v13.777l3.744-13.777H75.783L75.783,13.561z M96.199,24.288h-7.837v-2.624c0-1.226-0.103-2.011-0.301-2.347
	c-0.198-0.336-0.534-0.501-1.006-0.501c-0.507,0-0.89,0.225-1.15,0.681c-0.26,0.449-0.39,1.136-0.39,2.056
	c0,1.181,0.144,2.078,0.438,2.676c0.28,0.598,1.081,1.316,2.389,2.168c3.758,2.437,6.119,4.433,7.098,5.996
	c0.979,1.563,1.465,4.082,1.465,7.558c0,2.527-0.274,4.388-0.814,5.584c-0.541,1.196-1.588,2.205-3.135,3.013
	c-1.554,0.807-3.354,1.218-5.414,1.218c-2.259,0-4.189-0.471-5.784-1.405c-1.601-0.935-2.648-2.123-3.141-3.566
	c-0.493-1.45-0.739-3.499-0.739-6.16v-2.318h7.836v4.313c0,1.331,0.11,2.183,0.329,2.564c0.226,0.374,0.615,0.568,1.177,0.568
	c0.561,0,0.979-0.239,1.252-0.725c0.274-0.479,0.411-1.196,0.411-2.146c0-2.085-0.26-3.454-0.78-4.097
	c-0.534-0.643-1.854-1.712-3.949-3.214c-2.101-1.525-3.49-2.624-4.175-3.312c-0.678-0.688-1.246-1.638-1.69-2.849
	c-0.452-1.211-0.671-2.758-0.671-4.642c0-2.714,0.315-4.702,0.952-5.958c0.629-1.256,1.656-2.235,3.073-2.946
	c1.417-0.703,3.128-1.061,5.133-1.061c2.197,0,4.065,0.389,5.605,1.158c1.547,0.778,2.566,1.75,3.073,2.931
	c0.5,1.174,0.746,3.17,0.746,5.988V24.288L96.199,24.288z M122.481,13.561v28.362h5.133v7.094h-13.58V13.561H122.481L122.481,13.561
	z M130.884,13.561h14.08v7.094h-5.633v6.721h5.27v6.75h-5.27v7.797h6.193v7.094h-14.641V13.561L130.884,13.561z M168.89,29.021
	h-8.439v-6.175c0-1.794-0.096-2.916-0.273-3.364c-0.178-0.441-0.574-0.666-1.191-0.666c-0.697,0-1.135,0.27-1.326,0.808
	c-0.186,0.546-0.281,1.712-0.281,3.506v16.469c0,1.727,0.096,2.848,0.281,3.372c0.191,0.53,0.607,0.792,1.266,0.792
	c0.629,0,1.041-0.262,1.232-0.792c0.191-0.523,0.293-1.757,0.293-3.701v-4.44h8.439v1.375c0,3.663-0.238,6.265-0.711,7.797
	c-0.473,1.533-1.527,2.878-3.148,4.029c-1.623,1.151-3.629,1.734-6.002,1.734c-2.479,0-4.518-0.494-6.119-1.473
	s-2.67-2.333-3.189-4.059c-0.521-1.734-0.781-4.336-0.781-7.813V26.067c0-2.557,0.082-4.47,0.24-5.749
	c0.164-1.278,0.637-2.512,1.438-3.692c0.793-1.181,1.895-2.116,3.305-2.796c1.41-0.673,3.033-1.017,4.859-1.017
	c2.492,0,4.545,0.531,6.16,1.577c1.615,1.054,2.676,2.362,3.189,3.932c0.508,1.57,0.76,4.014,0.76,7.326V29.021L168.89,29.021z
	 M192.556,13.561v35.457h-8.438V34.126h-2.525v14.892h-8.447V13.561h8.447v12.678h2.525V13.561H192.556L192.556,13.561z"/>
<path fill="#0E447B" d="M44.907,250.779l10.906,3.883c2.374,0.844,4.153,2.32,5.335,4.436c1.182,2.105,1.774,4.727,1.774,7.84
	c0,3.209-0.643,5.486-1.933,6.832c-1.291,1.344-3.258,1.545-5.903,0.604l-3.59-1.277v11.787l-6.59-2.348V250.779L44.907,250.779z
	 M51.498,266.664l1.607,0.572c1.266,0.449,2.15,0.439,2.665-0.035c0.51-0.477,0.767-1.229,0.767-2.248c0-1-0.223-1.928-0.667-2.773
	c-0.44-0.854-1.276-1.498-2.501-1.934l-1.869-0.666V266.664L51.498,266.664z"/>
<path fill="#0E447B" d="M65.529,274.017c0-5.184,0.969-8.877,2.897-11.072c1.933-2.203,4.623-2.688,8.068-1.461
	c3.535,1.258,6.259,3.646,8.172,7.168c1.908,3.51,2.868,7.83,2.868,12.939c0,3.711-0.42,6.607-1.256,8.684
	c-0.836,2.076-2.042,3.496-3.619,4.258c-1.582,0.76-3.545,0.719-5.903-0.121c-2.393-0.852-4.375-2.127-5.947-3.824
	c-1.567-1.703-2.838-3.961-3.816-6.779C66.018,280.994,65.529,277.728,65.529,274.017L65.529,274.017z M72.094,276.398
	c0,3.209,0.396,5.648,1.191,7.338c0.796,1.68,1.884,2.77,3.253,3.258c1.409,0.5,2.501,0.203,3.273-0.891
	c0.771-1.102,1.162-3.424,1.162-6.973c0-2.996-0.406-5.32-1.212-6.99c-0.805-1.662-1.898-2.738-3.282-3.23
	c-1.32-0.471-2.383-0.154-3.184,0.965C72.495,270.988,72.094,273.167,72.094,276.398L72.094,276.398z"/>
<polygon fill="#0E447B" points="90.53,267.019 109.099,273.628 109.099,279.974 97.194,294.324 109.534,298.716 109.534,305.541 
	89.388,298.369 89.388,291.781 101.159,277.583 90.53,273.8 90.53,267.019 "/>
<polygon fill="#0E447B" points="113.514,274.56 119.55,272.464 127.419,287.57 127.419,269.732 133.507,267.617 133.507,299.861 
	127.419,301.976 119.589,286.994 119.589,304.697 113.514,306.806 113.514,274.56 "/>
<path fill="#0E447B" d="M150.37,288.681l-7.359,2.557l-1.012,5.674l-6.6,2.293l7.855-34.975l7.041-2.445l7.861,29.516l-6.76,2.348
	L150.37,288.681L150.37,288.681z M149.017,282.177l-2.311-10.789l-2.299,12.389L149.017,282.177L149.017,282.177z"/>
<polygon fill="#0E447B" points="170.009,246.201 176.747,244.468 170.526,252.644 166.774,253.609 170.009,246.201 "/>
<polygon fill="#0E447B" points="160.263,258.322 166.298,256.226 174.167,271.332 174.167,253.492 180.257,251.378 180.257,283.623 
	174.167,285.738 166.337,270.755 166.337,288.458 160.263,290.568 160.263,258.322 "/>
<path fill="#0E447B" d="M88.265,87.604h-5.863V68.923h-2.249V65.21c0.858,0,1.576-0.352,2.166-1.05
	c0.591-0.698,0.883-1.383,0.883-2.044h5.063V87.604L88.265,87.604z M92.379,76.956h5.711v6.486c0,0.558,0.331,0.837,0.991,0.837
	c0.642,0,0.965-0.279,0.965-0.837V75.87c-0.419,0.431-1.207,0.643-2.363,0.643c-1.563,0-2.839-0.358-3.824-1.074
	c-0.985-0.722-1.48-1.717-1.48-2.997v-5.939c0-1.481,0.616-2.621,1.842-3.422c1.226-0.794,2.833-1.195,4.821-1.195
	c2.008,0,3.634,0.394,4.866,1.189s1.849,1.923,1.849,3.397v16.423c0,3.294-2.249,4.938-6.753,4.938
	c-4.415,0-6.625-1.632-6.625-4.908V76.956L92.379,76.956z M100.047,72.303v-6.116c0-0.558-0.324-0.837-0.965-0.837
	c-0.661,0-0.991,0.279-0.991,0.837v6.116c0,0.552,0.331,0.831,0.991,0.831C99.723,73.134,100.047,72.855,100.047,72.303
	L100.047,72.303z M123.065,87.604h-13.384v-3.379l6.587-11.552c0.724-1.256,1.08-2.973,1.08-5.157c0-1.134-0.393-1.705-1.188-1.705
	c-0.819,0-1.232,0.358-1.232,1.068v4.374h-5.247v-4.447c0-3.282,2.21-4.92,6.625-4.92c2.731,0,4.536,0.601,5.424,1.802
	c0.891,1.201,1.334,3.179,1.334,5.927c0,1.08-0.195,1.966-0.578,2.67L115.9,84.334h7.165V87.604L123.065,87.604z M140.317,87.604
	h-13.385v-3.379l6.588-11.552c0.725-1.256,1.08-2.973,1.08-5.157c0-1.134-0.395-1.705-1.188-1.705c-0.82,0-1.232,0.358-1.232,1.068
	v4.374h-5.248v-4.447c0-3.282,2.211-4.92,6.627-4.92c2.73,0,4.535,0.601,5.424,1.802s1.334,3.179,1.334,5.927
	c0,1.08-0.197,1.966-0.578,2.67l-6.588,12.049h7.166V87.604L140.317,87.604z"/>
<path fill-rule="evenodd" clip-rule="evenodd" fill="#0E447B" d="M7.044,3.767h208.855l-16.453,56.439l16.457-0.048L205.13,79.882
	l0.02,133.551l10.736-3.254l-0.006,25.266l-10.746,2.713l-0.002,43.984l10.742-2.734l-0.01,22.084l-103.748,34.9L6.219,301.431
	l-0.001-22.061l11.025,2.754l-0.004-44.92L6.22,233.83l-0.032-22.34l11.036,1.957l0.249-133.614L6.31,60.132l17.383,0.058
	L7.044,3.767L7.044,3.767z M57.333,54.13H165.63v6.089h27.713l14.75-50.598H14.877l14.93,50.598h27.527V54.13L57.333,54.13z
	 M165.63,66.043v11.702h27.289v144.932l-77.271,25.617V95.436h-9.204v152.65l-77.272-25.617V77.536h28.161V66.043H31.525
	l0.008,0.028l-15.157-0.05l6.955,12.273l-0.265,142.133l-11.012-1.951l0.016,11.021l11.024,3.375l0.005,56.75l-11.025-2.754l0,10.33
	l100.025,33.021l97.912-32.938l0.006-10.342l-10.742,2.732l0.004-56.078l10.746-2.711l0.004-12.811l-10.732,3.252l-0.021-142.938
	l6.744-12.346l-14.385,0.042l0.012-0.041H165.63L165.63,66.043z M160.622,60.18H62.573l0.084,29.896l43.787,0.229h9.204
	l44.849,0.173L160.622,60.18L160.622,60.18z M30.367,234.708l81.822,26.498l81.902-26.514v57.479l-81.974,28.346l-81.75-28.41
	V234.708L30.367,234.708z M36.223,242.759l75.965,24.604l76.047-24.619v45.258l-76.114,26.318l-75.898-26.377V242.759
	L36.223,242.759z M165.63,83.601v11.834h-44.127v144.75l65.561-21.734V83.601H165.63L165.63,83.601z"/>
<path fill-rule="evenodd" clip-rule="evenodd" fill="#0E447B" d="M182.272,86.769l-58.184,81.276l0.121,25.467
	c13.336,0.072,12.098,22.146,0.016,22.139l0.068,9.043c6.561,1.596,12.213,1.617,16.252-1.172c0.141-0.098,0.35-0.025,0.523-0.037
	c7.393-0.533,11.201-7.35,6.594-15.43c7.041-6.625,8.051-12.658,1.779-17.98l32.875-23.992v-18.531l-34.133,31.49l0.014-4.246
	l34.119-33.717v-21.442l-36.682,42.742l0.041-5.572l36.641-45.262L182.272,86.769L182.272,86.769z"/>
<path fill-rule="evenodd" clip-rule="evenodd" fill="#EDEDEE" d="M38.38,86.668l58.183,81.276l-0.12,25.467
	c-13.337,0.072-12.098,22.146-0.017,22.137l-0.067,9.043c-6.56,1.598-12.213,1.617-16.252-1.172
	c-0.139-0.096-0.35-0.025-0.524-0.037c-7.392-0.533-11.201-7.348-6.592-15.43c-7.042-6.623-8.051-12.658-1.78-17.979l-32.875-23.992
	V147.45l34.133,31.489l-0.012-4.244l-34.121-33.718v-21.442l36.682,42.743l-0.041-5.573l-36.642-45.262L38.38,86.668L38.38,86.668z"
	/>
</svg>
