<?xml version="1.0" encoding="UTF-8" standalone="no"?>
<!-- Created with Inkscape (http://www.inkscape.org/) -->

<svg
   xmlns:dc="http://purl.org/dc/elements/1.1/"
   xmlns:cc="http://creativecommons.org/ns#"
   xmlns:rdf="http://www.w3.org/1999/02/22-rdf-syntax-ns#"
   xmlns:svg="http://www.w3.org/2000/svg"
   xmlns="http://www.w3.org/2000/svg"
   xmlns:sodipodi="http://sodipodi.sourceforge.net/DTD/sodipodi-0.dtd"
   xmlns:inkscape="http://www.inkscape.org/namespaces/inkscape"
   id="svg2"
   version="1.1"
   inkscape:version="0.91 r13725"
   width="1350"
   height="1714.4366"
   viewBox="0 0 1350 1714.4366"
   sodipodi:docname="Legia Warszawa.svg">
  <metadata
     id="metadata8">
    <rdf:RDF>
      <cc:Work
         rdf:about="">
        <dc:format>image/svg+xml</dc:format>
        <dc:type
           rdf:resource="http://purl.org/dc/dcmitype/StillImage" />
        <dc:title></dc:title>
      </cc:Work>
    </rdf:RDF>
  </metadata>
  <defs
     id="defs6" />
  <sodipodi:namedview
     pagecolor="#ffffff"
     bordercolor="#666666"
     borderopacity="1"
     objecttolerance="10"
     gridtolerance="10"
     guidetolerance="10"
     inkscape:pageopacity="0"
     inkscape:pageshadow="2"
     inkscape:window-width="1280"
     inkscape:window-height="962"
     id="namedview4"
     showgrid="false"
     fit-margin-top="0"
     fit-margin-left="0"
     fit-margin-right="0"
     fit-margin-bottom="0"
     inkscape:zoom="3.1147668"
     inkscape:cx="1075.766"
     inkscape:cy="1646.2042"
     inkscape:window-x="-8"
     inkscape:window-y="-8"
     inkscape:window-maximized="1"
     inkscape:current-layer="svg2" />
  <path
     inkscape:connector-curvature="0"
     id="path3354"
     d="M 0,857.2183 0,0 l 675,0 675,0 0,857.2183 0,857.2183 -675,0 -675,0 0,-857.2183 z"
     style="fill:#fdfcfc" />
  <path
     inkscape:connector-curvature="0"
     id="path3344"
     d="M 653.3525,1679.7679 C 591.09218,1599.4466 519.70326,1545.3841 354.92958,1453.7737 257.24979,1399.466 228.6136,1382.1056 191.72535,1354.833 120.85808,1302.4387 67.507308,1240.9595 37.688086,1177.327 25.311719,1150.9165 9.529667,1098.4371 9.515035,1083.6444 9.510635,1079.1998 8.015646,1074.072 6.192828,1072.2491 4.042674,1070.099 3.310931,1049.563 4.10947,1013.7808 6.190692,920.52214 17.308583,875.78251 85.529036,686.13952 134.263,550.66617 144.7871,477.45779 128.14207,389.71232 118.91901,341.0923 93.373856,278.34512 59.482176,221.06134 52.528845,209.30881 47.528236,197.90036 48.369708,195.70923 c 0.841471,-2.19113 34.648448,-44.51342 75.126612,-94.04952 40.47817,-49.5361 74.32409,-91.961276 75.21317,-94.278167 1.33465,-3.478062 84.30349,-4.212529 475.86726,-4.212529 465.84535,0 474.31875,0.108906 478.08825,6.144713 2.1105,3.379593 36.6789,46.350534 76.8186,95.490983 40.1397,49.14044 72.9812,91.08042 72.9812,93.19995 0,2.11952 -8.5714,18.68643 -19.0477,36.81535 -62.0341,107.34921 -80.4967,203.09897 -60.0082,311.21049 8.9007,46.96599 17.3182,73.49197 69.4577,218.88073 31.4047,87.57082 46.9097,149.84946 54.145,217.48312 2.9823,27.87805 0.8363,87.91745 -3.3415,93.48595 -1.3077,1.7429 -3.409,10.2993 -4.6696,19.0141 -6.1944,42.8249 -34.6593,107.3398 -65.716,148.9436 -24.1204,32.3119 -72.2385,79.3853 -109.2759,106.9034 -42.3545,31.4686 -73.8707,50.7637 -171.7475,105.148 -97.06083,53.931 -130.12207,74.1817 -170.88241,104.6686 -52.27897,39.1024 -97.33889,82.9235 -131.34527,127.7342 -6.94423,9.1506 -13.64992,16.6374 -14.90149,16.6374 -1.25157,0 -11.05232,-11.3228 -21.77943,-25.1617 z m 365.3633,-278.317 c 12.1178,-6.8754 24.6511,-12.0479 26.2822,-14.6336 2.2232,-3.5246 -100.35737,-173.5056 -405.98158,-671.41206 C 414.80182,350.127 228.21021,44.754487 227.11516,41.900831 c -1.09505,-2.853653 -4.3014,-0.890904 -7.12523,-0.347085 -7.78029,1.498348 -93.08468,106.958584 -91.43753,113.042534 1.1292,4.17083 763.11312,1244.66942 789.31025,1285.10552 l 7.81387,12.061 35.50339,-18.9056 c 19.52679,-10.3981 45.41799,-24.5309 57.53589,-31.4063 z m 152.7426,-101.7294 c 58.057,-46.3713 107.2585,-117.4049 125.9161,-181.7887 26.8817,-92.763 16.5173,-191.20601 -35.1228,-333.60182 -60.4767,-166.76243 -73.9146,-213.7063 -80.1737,-280.07835 -8.4882,-90.00967 13.656,-182.11915 67.834,-282.15805 7.7133,-14.24259 10.1758,-21.83813 8.2193,-25.35211 -6.3755,-11.45039 -124.761,-154.135178 -129.5284,-156.114807 -6.8142,-2.829514 -741.91771,-2.807987 -749.05778,0.02187 -4.82752,1.913359 -4.98014,3.158896 -1.2646,10.320598 C 389.85329,73.27672 1151.4862,1311.9718 1153.629,1311.9718 c 1.3706,0 9.3938,-5.5126 17.8294,-12.2503 z M 896.83099,492.46599 C 821.84146,472.45068 762.65604,411.46288 746.12833,337.174 739.11163,305.6352 741.15532,254.34119 750.59769,225 770.2091,164.05949 822.79179,111.42923 884.15493,91.321957 c 28.35149,-9.290117 86.0805,-11.549865 114.34987,-4.47611 122.4294,30.635153 190.8378,160.026823 146.6768,277.433493 -23.0537,61.29085 -81.918,113.7258 -144.1345,128.39178 -25.7214,6.06315 -81.14002,5.95407 -104.21611,-0.20504 z m 94.74371,-25.15507 c 47.9655,-11.30647 95.3497,-48.18989 118.3331,-92.10951 37.6546,-71.95519 24.8366,-156.42451 -32.4106,-213.58169 -55.6644,-55.57691 -136.18749,-68.795993 -208.90783,-34.29537 -29.07466,13.79386 -68.43385,53.28453 -82.36125,82.63639 -30.91136,65.14531 -23.65229,133.90394 20.26334,191.93654 24.23605,32.02691 67.55042,58.97437 107.7691,67.04705 20.87329,4.18969 55.73532,3.45315 77.31414,-1.63341 z m -116.92681,-178.93064 0,-123.59155 22.13921,0 22.13917,0 0.83618,102.2007 0.83614,102.20071 57.04231,1.5845 57.0422,1.58451 0.9435,19.80634 0.9434,19.80634 -80.96103,0 -80.96108,0 z"
     style="fill:#eb1b23"
     sodipodi:nodetypes="ssssscsssssssscsssssscssssssssscssssscssssssscssssscssssssccssssssssccccccccccccc" />
  <path
     inkscape:connector-curvature="0"
     id="path3342"
     d="M 653.3525,1679.7679 C 591.09218,1599.4466 519.70326,1545.3841 354.92958,1453.7737 257.24979,1399.466 228.6136,1382.1056 191.72535,1354.833 120.85808,1302.4387 67.507308,1240.9595 37.688086,1177.327 25.311719,1150.9165 9.529667,1098.4371 9.515035,1083.6444 9.510635,1079.1998 8.015646,1074.072 6.192828,1072.2491 4.042674,1070.099 3.310931,1049.563 4.10947,1013.7808 6.190692,920.52214 17.308583,875.78251 85.529036,686.13952 134.263,550.66617 144.7871,477.45779 128.14207,389.71232 118.91901,341.0923 93.373856,278.34512 59.482176,221.06134 52.528845,209.30881 47.528236,197.90036 48.369708,195.70923 c 0.841471,-2.19113 34.648448,-44.51342 75.126612,-94.04952 40.47817,-49.5361 74.32409,-91.961276 75.21317,-94.278167 1.33465,-3.478062 84.30349,-4.212529 475.86726,-4.212529 465.84535,0 474.31875,0.108906 478.08825,6.144713 2.1105,3.379593 36.6789,46.350534 76.8186,95.490983 40.1397,49.14044 72.9812,91.08042 72.9812,93.19995 0,2.11952 -8.5714,18.68643 -19.0477,36.81535 -62.0341,107.34921 -80.4967,203.09897 -60.0082,311.21049 8.9007,46.96599 17.3182,73.49197 69.4577,218.88073 31.4047,87.57082 46.9097,149.84946 54.145,217.48312 2.9823,27.87805 0.8363,87.91745 -3.3415,93.48595 -1.3077,1.7429 -3.409,10.2993 -4.6696,19.0141 -6.1944,42.8249 -34.6593,107.3398 -65.716,148.9436 -24.1204,32.3119 -72.2385,79.3853 -109.2759,106.9034 -42.3545,31.4686 -73.8707,50.7637 -171.7475,105.148 -97.06083,53.931 -130.12207,74.1817 -170.88241,104.6686 -52.27897,39.1024 -97.33889,82.9235 -131.34527,127.7342 -6.94423,9.1506 -13.64992,16.6374 -14.90149,16.6374 -1.25157,0 -11.05232,-11.3228 -21.77943,-25.1617 z m 336.9644,-262.5097 c 20.9155,-11.3636 43.7324,-24.737 50.7042,-29.7186 6.9719,-4.9816 39.7712,-26.9547 72.8874,-48.8291 85.0655,-56.1888 129.1924,-101.6088 161.8075,-166.5492 51.9542,-103.4472 47.9617,-218.45013 -13.4643,-387.83032 -60.4767,-166.76243 -73.9146,-213.7063 -80.1737,-280.07835 -8.4882,-90.00967 13.656,-182.11915 67.834,-282.15805 7.7133,-14.24259 10.1758,-21.83813 8.2193,-25.35211 -7.5141,-13.49531 -125.1881,-154.27662 -130.7091,-156.376057 -5.8079,-2.20853 -644.89468,-0.669644 -831.11938,2.001289 l -79.22536,1.136295 -43.83165,53.14772 c -27.14304,32.912083 -44.5883,52.527923 -43.73026,55.697203 1.12558,4.15747 762.02179,1246.71138 788.25035,1287.20668 l 7.71716,11.9149 13.40283,-6.7756 c 7.37157,-3.7266 30.51552,-16.0731 51.43101,-27.4367 z M 896.83099,492.46599 C 821.84146,472.45068 762.65604,411.46288 746.12833,337.174 739.11163,305.6352 741.15532,254.34119 750.59769,225 770.2091,164.05949 822.79179,111.42923 884.15493,91.321957 c 28.35149,-9.290117 86.0805,-11.549865 114.34987,-4.47611 122.4294,30.635153 190.8378,160.026823 146.6768,277.433493 -23.0537,61.29085 -81.918,113.7258 -144.1345,128.39178 -25.7214,6.06315 -81.14002,5.95407 -104.21611,-0.20504 z m 94.74371,-25.15507 c 47.9655,-11.30647 95.3497,-48.18989 118.3331,-92.10951 37.6546,-71.95519 24.8366,-156.42451 -32.4106,-213.58169 -55.6644,-55.57691 -136.18749,-68.795993 -208.90783,-34.29537 -29.07466,13.79386 -68.43385,53.28453 -82.36125,82.63639 -30.91136,65.14531 -23.65229,133.90394 20.26334,191.93654 24.23605,32.02691 67.55042,58.97437 107.7691,67.04705 20.87329,4.18969 55.73532,3.45315 77.31414,-1.63341 z m -116.92681,-178.93064 0,-123.59155 22.13921,0 22.13917,0 0.83618,102.2007 0.83614,102.20071 57.04231,1.5845 57.0422,1.58451 0.9435,19.80634 0.9434,19.80634 -80.96103,0 -80.96108,0 z"
     style="fill:#00a352"
     sodipodi:nodetypes="ssssscsssssssscsssssscssssssssssssssscsscssscsscssssssccssssssssccccccccccccc" />
  <path
     inkscape:connector-curvature="0"
     id="path3340"
     d="M 653.3525,1679.7679 C 591.09218,1599.4466 519.70326,1545.3841 354.92958,1453.7737 257.24979,1399.466 228.6136,1382.1056 191.72535,1354.833 120.85808,1302.4387 67.507308,1240.9595 37.688086,1177.327 25.311719,1150.9165 9.529667,1098.4371 9.515035,1083.6444 9.510635,1079.1998 8.015646,1074.072 6.192828,1072.2491 4.042674,1070.099 3.310931,1049.563 4.10947,1013.7808 6.190692,920.52214 17.308583,875.78251 85.529036,686.13952 134.263,550.66617 144.7871,477.45779 128.14207,389.71232 118.91901,341.0923 93.373856,278.34512 59.482176,221.06134 52.528845,209.30881 47.528236,197.90036 48.369708,195.70923 c 0.841471,-2.19113 34.648448,-44.51342 75.126612,-94.04952 40.47817,-49.5361 74.32409,-91.961276 75.21317,-94.278167 1.33465,-3.478062 84.30349,-4.212529 475.86726,-4.212529 465.84535,0 473.67665,-3.10160719 477.44615,2.9341998 2.1105,3.379593 37.321,49.5610472 77.4607,98.7014962 40.1397,49.14044 72.9812,91.08042 72.9812,93.19995 0,2.11952 -8.5714,18.68643 -19.0477,36.81535 -62.0341,107.34921 -80.4967,203.09897 -60.0082,311.21049 8.9007,46.96599 17.3182,73.49197 69.4577,218.88073 31.4047,87.57082 46.9097,149.84946 54.145,217.48312 2.9823,27.87805 0.8363,87.91745 -3.3415,93.48595 -1.3077,1.7429 -3.409,10.2993 -4.6696,19.0141 -6.1944,42.8249 -34.6593,107.3398 -65.716,148.9436 -24.1204,32.3119 -72.2385,79.3853 -109.2759,106.9034 -42.3545,31.4686 -73.8707,50.7637 -171.7475,105.148 -97.06083,53.931 -130.12207,74.1817 -170.88241,104.6686 -52.27897,39.1024 -97.33889,82.9235 -131.34527,127.7342 -6.94423,9.1506 -13.64992,16.6374 -14.90149,16.6374 -1.25157,0 -11.05232,-11.3228 -21.77943,-25.1617 z m 65.78546,-80.3867 c 61.6488,-60.4421 138.64659,-116.1782 203.04514,-146.9776 39.69928,-18.9866 102.9418,-53.5056 118.838,-64.864 6.9719,-4.9816 39.7712,-26.9547 72.8874,-48.8291 85.0655,-56.1888 129.1924,-101.6088 161.8075,-166.5492 51.9542,-103.4472 47.9617,-218.45013 -13.4643,-387.83032 -60.4767,-166.76243 -73.9146,-213.7063 -80.1737,-280.07835 -8.4882,-90.00967 13.656,-182.11915 67.834,-282.15805 7.7133,-14.24259 10.1758,-21.83813 8.2193,-25.35211 C 1250.6172,183.24716 1131.659,42.786901 1126.138,40.687464 1120.311,38.47167 480.71288,39.704472 296.30282,42.381503 l -79.22536,1.150096 -40.5499,48.744768 c -22.30244,26.809613 -42.82485,53.022923 -45.60535,58.251803 -2.7805,5.22887 -11.98463,17.83157 -20.45362,28.00599 -8.46899,10.17442 -15.398164,19.97902 -15.398164,21.78801 0,1.80899 9.922044,23.43165 22.048994,48.05035 42.34942,85.97279 55.15551,136.82098 55.1694,219.05705 0.0139,83.23907 -9.88561,122.47625 -78.755964,312.14789 C 56.716688,880.97063 43.648777,941.74037 43.44525,1012.5 c -0.304447,105.8432 31.805156,181.9409 109.06515,258.4775 48.51926,48.0649 97.50562,81.1904 221.1869,149.5707 89.2859,49.3639 139.5553,80.2116 178.75965,109.6954 35.82827,26.9448 78.56626,65.2326 102.13438,91.4993 9.77428,10.8935 18.61862,19.8064 19.65406,19.8064 1.03545,0 21.23712,-18.9757 44.89257,-42.1681 z M 896.83099,492.46599 C 821.84146,472.45068 762.65604,411.46288 746.12833,337.174 739.11163,305.6352 741.15532,254.34119 750.59769,225 770.2091,164.05949 822.79179,111.42923 884.15493,91.321957 c 28.35149,-9.290117 86.0805,-11.549865 114.34987,-4.47611 122.4294,30.635153 190.8378,160.026823 146.6768,277.433493 -23.0537,61.29085 -81.918,113.7258 -144.1345,128.39178 -25.7214,6.06315 -81.14002,5.95407 -104.21611,-0.20504 z m 94.74371,-25.15507 c 47.9655,-11.30647 95.3497,-48.18989 118.3331,-92.10951 37.6546,-71.95519 24.8366,-156.42451 -32.4106,-213.58169 -55.6644,-55.57691 -136.18749,-68.795993 -208.90783,-34.29537 -29.07466,13.79386 -68.43385,53.28453 -82.36125,82.63639 -30.91136,65.14531 -23.65229,133.90394 20.26334,191.93654 24.23605,32.02691 67.55042,58.97437 107.7691,67.04705 20.87329,4.18969 55.73532,3.45315 77.31414,-1.63341 z m -116.92681,-178.93064 0,-123.59155 22.13921,0 22.13917,0 0.83618,102.2007 0.83614,102.20071 57.04231,1.5845 57.0422,1.58451 0.9435,19.80634 0.9434,19.80634 -80.96103,0 -80.96108,0 z"
     style="fill:#000000"
     sodipodi:nodetypes="ssssscsssssssscsssssscsssssssssssssssscsscsssssssssssssscssssssccssssssssccccccccccccc" />
</svg>
