<svg id="Layer_1" xmlns:rdf="http://www.w3.org/1999/02/22-rdf-syntax-ns#" xmlns="http://www.w3.org/2000/svg" xml:space="preserve" overflow="visible" height="233.98" viewBox="0 0 144.47899 233.97699" width="144.48" version="1.1" enable-background="new 0 0 233.749 138.819" xmlns:cc="http://creativecommons.org/ns#" xmlns:dc="http://purl.org/dc/elements/1.1/"><metadata id="metadata19"><rdf:RDF><cc:Work rdf:about=""><dc:format>image/svg+xml</dc:format><dc:type rdf:resource="http://purl.org/dc/dcmitype/StillImage"/><dc:title/></cc:Work></rdf:RDF></metadata>
<g id="g2997" fill-rule="evenodd" clip-rule="evenodd" transform="translate(0,-2.224431e-6)">
<polygon id="polygon2999" points="0,0,144.48,0,72.239,233.98,72.239,233.98"/>
<polygon id="polygon3001" points="140.45,9.904,72.239,9.904,72.239,230.82,72.239,230.82" fill="#9b0f08"/>
<polygon id="polygon3003" points="140.45,9.904,143.22,0.927,72.239,0.927,72.239,9.904,140.45,9.904" fill="#191584"/>
<polygon id="polygon3005" points="72.239,230.82,72.239,9.904,4.021,9.904,4.021,9.904" fill="#191584"/>
<path id="path3007" d="m67.549,140.14,1.849-1.854c-4.8-3.08-7.938-7.325-8.035-13.692,5.178,1.483,8.417,7.785,9.21,12.518l1.667-1.672,1.667,1.672c0.79-4.732,4.032-11.034,9.21-12.518-0.097,6.367-3.238,10.612-8.035,13.692l1.849,1.854-4.69,4.681-4.692-4.681zm8.715-5.43c2.309-1.662,3.433-3.404,3.579-5.198-1.955,0.719-3.148,2.451-3.579,5.198zm-8.052,0c-2.308-1.662-3.432-3.404-3.579-5.198,1.955,0.719,3.15,2.451,3.579,5.198z" fill="#ffc919"/>
<path id="path3009" d="m84.945,61.465c1.56,0.898,2.097,2.646,1.21,5.579-0.318,1.173-0.385,2.347,0.096,3.521,0.624,1.527,1.09,2.916,1.369,4.557-1.12-0.557-2.139-1.165-3.061-1.815-0.953-0.671-1.038-0.688-1.677,0.275-0.847,1.304-1.57,2.562-2.508,3.739-1.165-0.6-1.788-2.127-2.786-3.5-0.755-1.039-0.729-0.791-1.154,0.083-0.775,1.586-1.604,3.235-2.924,3.843-1.856-2.188-2.918-5.243-3.427-8.901-0.04-0.301-0.375-0.767-0.694-0.777-1.021-0.03-3.33,0.513-4.711,0.132,0.364-0.601,0.792-1.173,1.307-1.696,1.305-1.338,2.125-3.027,2.65-4.815,0.436-1.47,1.104-1.923,1.963-0.61,0.964,1.484,1.813,3.144,2.578,4.934,1.418-0.995,2.723-2.801,3.637-5.436,0.618,1.371,1.605,2.616,2.979,3.73,0.182-0.493,0.668-0.962,0.901-1.378,0.989-1.806,2.377-2.539,4.252-1.465z" fill="#ffc919"/>
<path id="path3011" d="m86.683,76.852c-1.262-1.575-2.22-2.464-2.614-2.028-0.887,0.973-2.017,3.949-3.713,4.312-0.71,0.148-1.632-1.146-3.096-3.316-0.654,1.667-2.83,4.18-4.758,2.63-2-1.609-3.216-7.295-3.498-8.731-0.911,0.083-1.479,2.629-1.884,6.014-0.828,2.771-3.126,2.381-5.519,2.692,0.321,1.337,1.699,2.495,2.821,3.211,0.469,0.296,1.104,0.613,1.069,1.242-0.27,4.971,0.116,11.863,5.638,5.865,1.12,1.379,1.035,2.843,1.035,4.501,0.004,2.176,0.786,3.61,2.617,4.044,1.591-1.544,2.391-3.264,3.358-5.041,0.548-1.009,0.999-1.639,1.429-1.636,0.192,0.002,0.659,0.317,1.029,0.86,0.759,1.103,1.372,1.718,2.365,2.579,0.841,0.727,1.718,1.456,2.639,1.928,0.578-0.931,0.284-1.619,0.168-2.62-0.345-2.958-0.011-6.014,0.313-8.958,0.286-2.52,0.539-5.032,0.601-7.548z" fill="#ffc919"/>
<path id="path3013" d="m82.938,95.999c-1.535-0.911-2.578-1.873-3.354-2.78-1.004,1.054-1.484,2.276-2.386,3.943-0.193,0.368-0.491,0.697-0.833,1.043-1.505,1.536-2.922,0.994-4.203-0.675-1.459-1.895-1.499-4.234-2.229-5.591-2.606,2.093-4.442,1.589-5.725-3.176-0.381-1.417-0.372-1.015-1.31-0.095-2.554,2.511-7.277,4.949-7.906-0.55-0.805,0.828-1.31,1.891-1.507,3.179-1.82,3.008,1.369,4.854,2.354,6.363,1.819,2.781-0.066,7.716-0.656,10.621,2.43-0.092,4.715-0.613,6.682-2.077,0.524,2.112,1.032,4.191,1.63,6.211,0.693,2.342,1.453,4.603,1.747,7.057,1.546,0.232,3.437-0.986,5.677-3.658,0.696-0.831,0.754-1.567,1.238,0.159,1.396,5.023,4.478,7.304,10.025,4.701-5.278-2.717-3.055-8.333-1.828-14.07,0.766-3.571,1.601-7.028,2.584-10.605z" fill="#ffc919"/>
<path id="path3015" d="m49.06,47.186c0.853,1.287,2.014,2.376,3.81,3.078,4.23-0.146,8.271-0.114,11.404,0.767,1.015,0.287,0.504,0.791-0.226,0.729-3.609-0.309-7.222-0.265-10.834-0.015,0.117,1.487,0.145,3.404,0.127,4.839-0.01,0.828,0.61,1.129,1.572,1.005,0.53-0.065,0.766-0.269,0.454,0.461-0.218,0.506-0.739,0.825-1.564,0.96h-2.399c-1.206-0.015-1.809-0.524-1.978-1.388-0.13-0.688,0.427-0.396,0.813-0.256,0.742,0.271,1.297,0.173,1.51-0.611,0.321-1.177-0.068-3.812-0.116-5.129-1.551-0.466-2.567-1.836-3.229-3.822-0.185-0.549,0.148-1.386,0.656-0.618z" fill="#ffc919"/>
<path id="path3017" d="m85.513,39.768c-0.791,1.689-3.03,2.312-5.893,1.948l-0.066-0.041c-0.126-3.34,0.74-6.454,2.393-9.384-1.606,0.187-2.468,0.626-3.385,1.912-0.537,0.75-1.596,0.778-2.234,0.732-1.038-0.079-0.992,0.347-0.395,1.026,0.511,0.585,0.232,1.284-0.195,1.657-0.561,0.413-1.122,0.413-1.682,0-0.432-0.373-0.707-1.072-0.19-1.657,0.593-0.679,0.639-1.104-0.399-1.026-0.634,0.045-1.639-0.03-2.232-0.732-0.86-1.021-0.111-2.381-1.815-3.049-1.568,0.876-0.608,1.928-1.67,2.852-0.545,0.469-1.338,0.613-1.851,0.643-1.041,0.069-0.798,0.413-0.114,1.006,0.587,0.509,0.342,1.2-0.035,1.634-0.502,0.479-1.058,0.555-1.67,0.226-0.479-0.312-0.806-1.069-0.378-1.72,0.497-0.757,0.611-1.099-0.428-1.14-1.198-0.048-1.882-0.77-2.635-1.383-1.023-0.838-2.084-1.699-3.394-1.674,1.758,2.313,3.196,5.312,3.805,8.295h16.003c0.629,0,0.629,0.95,0,0.95h-16.427c-1.505,0.043-5.143,0.028-6.023,0.928-1.538,1.562-1.023,5.797,0.691,6.866,0.509-1.256,2.796-1.487,4.382-1.117,0.985,0.226,1.443,0.874,2.331,1.229,0.927,0.373,1.715,0.515,2.474,0.831,1.27,0.532,3.349,2.318,2.69,3.813-0.847,1.915-8.179,0.412-9.758,0.051,0.034,0.576,0.302,1.13,1.133,1.558,2.959,1.524,9.891,1.868,10.552-0.222,1.247-3.933-5.435-9.632-7.823-11.446-0.39-0.296-1.3-0.427-1.333-0.736,1.171-0.104,1.735,0.676,2.721,1.063,2.179,0.854,3.274-0.38,4.727-0.397,0.651-0.008,1.279,0.276,1.915,0.626,1.115,0.613,2.484,0.544,4.471-0.644,0.318,1.474-1.988,2.133-3.151,2.054-0.299-0.022-0.588-0.088-0.982-0.162-0.297-0.053-0.777,0.117-0.663,0.518,0.146,0.521,0.384,0.474,0.802,0.542,0.489,0.078,0.837,0.329,0.753,1.099-1.014,0.517-3.042-0.448-2.862-1.545,0.041-0.248-0.04-0.428-0.461-0.507-0.864-0.169-1.51,0.033-2.085,0.054,1.993,1.969,7.862,7.297,6.117,10.839-0.616,1.251-1.922,1.682-3.911,1.283-0.403,1.394-0.127,2.721,0.648,3.146,2.29-3.363,4.221,0.737,5.188,3.415,1.31-2.128,2.43-4.382,3.354-6.766,0.969,1.617,2.007,3.313,3.101,5.059,0.801-2.015,2.569-3.641,4.797-2.418,0.816,0.451,1.586,0.604,2.331,0.561-0.238-0.723-0.629-1.358-1.094-1.945-3.08-3.857-3.43-6.559-3.811-11.378,1.268-0.046,2.285-0.385,3.086-0.988,1.364-1.03,0.994-5.002,0.58-6.339z" fill="#ffc919"/>
<path id="path3019" d="m54.898,127.57c2.339,0.101,4.539,1.013,6.664,2.421,0.438,1.257,1.026,2.412,1.743,3.485-0.899-0.496-1.781-0.922-2.642-1.246,0.898,1.611,2.502,2.725,4.517,3.557,0.638,0.648,1.334,1.267,2.079,1.844-2.193,0.061-5.233-1.591-8.077-4.083-1.837-1.601-3.789-3.486-4.284-5.978z" fill="#ffc919"/>
<path id="path3021" d="m57.518,127.29c-2.473-4.275-4.177-8.81-3.017-13.853,3.837,4.077,5.223,9.536,6.114,15.16-0.365-0.203-0.729-0.396-1.1-0.558-0.79-3.476-1.879-7.445-3.251-8.519-0.188,2.169,0.87,5.438,2.314,8.123-0.008-0.01-0.016-0.01-0.021-0.01-0.342-0.132-0.69-0.242-1.039-0.343z" fill="#ffc919"/>
<path id="path3023" d="m47.114,113.44c0.414,4.065,3.863,8.13,8.706,12.201-0.388-0.77-0.739-1.561-1.054-2.355-1.838-1.829-3.663-3.462-3.816-4.889,0.975,0.516,2.028,1.481,2.983,2.297-0.138-0.544-0.245-1.094-0.33-1.648-0.191-1.282-1.385-2.392-2.274-3.305-1.504-1.556-2.92-2.395-4.215-2.301z" fill="#ffc919"/>
<path id="path3025" d="m50.388,101.26c-0.96,2.171-1.031,7.071-0.173,12.559,0.363,0.257,0.729,0.562,1.097,0.911-0.539-2.432-0.703-4.874-0.223-6.88,0.801,1.678,0.915,4.691,0.942,7.597,0.015,0.016,0.03,0.028,0.045,0.043,0.315,0.321,0.651,0.664,0.964,1.03,0.134-6.625-0.33-12.623-2.652-15.26z" fill="#ffc919"/>
<path id="path3027" d="m43.581,98.75c1.95,1.715,3.79,3.859,5.345,7.059-0.005,0.159-0.008,0.324-0.011,0.488-0.002,0.291-0.002,0.591,0,0.897-1.124-1.303-2.173-2.457-2.804-2.74,0.601,3.021,1.713,5.08,3.032,6.574,0.054,0.493,0.111,0.997,0.177,1.501-4.245-2.482-5.437-7.728-5.739-13.779z" fill="#ffc919"/>
<path id="path3029" d="m45.058,99.163c0.226-4.609,1.126-9.111,3.519-12.535,2.234,5.047,1.327,10.648-0.493,16.248-0.127-0.192-0.248-0.379-0.378-0.563,0.1-3.086,0.216-6.331-0.137-8.563-1.008,1.528-1.563,3.643-1.88,6.059-0.21-0.224-0.421-0.438-0.631-0.646z" fill="#ffc919"/>
<path id="path3031" d="m41.918,83.021c0.072,2.563-0.247,5.76,0.095,8.234,0.319,2.31,1.098,4.465,2.447,6.281,0.061-0.719,0.142-1.431,0.243-2.136-1.309-1.884-1.35-4.84-1.702-7.527,1.368,0.215,1.112,2.074,1.48,3.061,0.144,0.387,0.401,0.878,0.846,1.341,0.118-0.463,0.25-0.921,0.396-1.367-1.009-4.298-2.276-6.925-3.805-7.887z" fill="#ffc919"/>
<path id="path3033" d="m43.599,83.666c1.165-5.04,2.733-8.463,4.785-9.941,0.514,5.623-0.198,10.768-2.579,14.752-0.162-0.537-0.331-1.038-0.504-1.51,1.32-3.516,1.584-5.829,1.115-7.31-0.976,0.677-1.551,3.764-1.996,5.304-0.261-0.492-0.534-0.923-0.821-1.295z" fill="#ffc919"/>
<path id="path3035" d="m45.417,68.274c-1.501,1.297-2.127,3.432-2.428,6.467-0.203,2.02-0.138,4.328,0.539,6.396,0.22-0.765,0.453-1.483,0.699-2.151-0.281-2.807-0.018-5.33,0.946-6.686,0.335,0.804,0.462,2.062,0.467,3.588,0.353-0.606,0.727-1.141,1.119-1.602-0.065-2.766-0.533-4.731-1.342-6.012z" fill="#ffc919"/>
<path id="path3037" d="m46.313,68.433c1.468-2.552,2.918-4.223,4.392-5.308,0.785,4.303-0.505,7.35-3.274,10.287-0.028-0.504-0.074-0.98-0.133-1.428,1.462-1.647,2.087-3.269,1.988-4.92-0.977,0.448-1.801,1.371-2.548,2.392-0.128-0.37-0.269-0.711-0.425-1.023z" fill="#ffc919"/>
<path id="path3039" d="m89.574,127.57c-2.335,0.101-4.539,1.013-6.661,2.421-0.436,1.257-1.023,2.412-1.742,3.485,0.896-0.496,1.778-0.922,2.644-1.246-0.901,1.611-2.502,2.725-4.519,3.557-0.638,0.648-1.332,1.267-2.077,1.844,2.193,0.061,5.229-1.591,8.075-4.083,1.84-1.601,3.789-3.486,4.28-5.978z" fill="#ffc919"/>
<path id="path3041" d="m86.961,127.29c2.473-4.275,4.175-8.81,3.014-13.853-3.834,4.077-5.223,9.536-6.114,15.16,0.364-0.203,0.729-0.396,1.1-0.558,0.79-3.476,1.88-7.445,3.252-8.519,0.188,2.169-0.877,5.438-2.315,8.123,0.006-0.01,0.016-0.01,0.021-0.01,0.343-0.132,0.692-0.242,1.042-0.343z" fill="#ffc919"/>
<path id="path3043" d="m97.361,113.44c-0.411,4.065-3.86,8.13-8.709,12.201,0.391-0.77,0.745-1.561,1.055-2.355,1.839-1.829,3.668-3.462,3.819-4.889-0.973,0.516-2.026,1.481-2.984,2.297,0.138-0.544,0.248-1.094,0.329-1.648,0.192-1.282,1.389-2.392,2.275-3.305,1.504-1.556,2.918-2.395,4.215-2.301z" fill="#ffc919"/>
<path id="path3045" d="m94.089,101.26c0.962,2.171,1.033,7.071,0.172,12.559-0.36,0.257-0.729,0.562-1.094,0.911,0.536-2.432,0.703-4.874,0.223-6.88-0.806,1.678-0.917,4.691-0.948,7.597-0.009,0.016-0.024,0.028-0.039,0.043-0.315,0.321-0.654,0.664-0.964,1.03-0.136-6.625,0.33-12.623,2.65-15.26z" fill="#ffc919"/>
<path id="path3047" d="m100.9,98.75c-1.956,1.715-3.79,3.859-5.345,7.059,0.005,0.159,0.005,0.324,0.005,0.488,0.006,0.291,0.006,0.591,0,0.897,1.13-1.303,2.179-2.457,2.807-2.74-0.604,3.021-1.712,5.08-3.035,6.574-0.051,0.493-0.105,0.997-0.177,1.501,4.245-2.482,5.441-7.728,5.745-13.779z" fill="#ffc919"/>
<path id="path3049" d="m99.418,99.163c-0.223-4.609-1.125-9.111-3.521-12.535-2.229,5.047-1.321,10.648,0.497,16.248,0.127-0.192,0.248-0.379,0.375-0.563-0.097-3.086-0.213-6.331,0.137-8.563,1.013,1.528,1.565,3.643,1.885,6.059,0.207-0.224,0.414-0.438,0.627-0.646z" fill="#ffc919"/>
<path id="path3051" d="m102.56,83.021c-0.075,2.563,0.249,5.76-0.097,8.234-0.318,2.31-1.099,4.465-2.446,6.281-0.061-0.719-0.142-1.431-0.243-2.136,1.312-1.884,1.348-4.84,1.702-7.527-1.368,0.215-1.114,2.074-1.479,3.061-0.142,0.387-0.399,0.878-0.846,1.341-0.116-0.463-0.254-0.921-0.4-1.367,1.013-4.298,2.279-6.925,3.809-7.887z" fill="#ffc919"/>
<path id="path3053" d="m100.88,83.666c-1.165-5.04-2.73-8.463-4.788-9.941-0.511,5.623,0.204,10.768,2.585,14.752,0.162-0.537,0.329-1.038,0.501-1.51-1.317-3.516-1.581-5.829-1.114-7.31,0.978,0.677,1.55,3.764,1.996,5.304,0.262-0.492,0.536-0.923,0.82-1.295z" fill="#ffc919"/>
<path id="path3055" d="m99.058,68.274c1.505,1.297,2.129,3.432,2.432,6.467,0.198,2.02,0.138,4.328-0.541,6.396-0.218-0.765-0.456-1.483-0.699-2.151,0.278-2.807,0.02-5.33-0.948-6.686-0.333,0.804-0.46,2.062-0.465,3.588-0.354-0.606-0.729-1.141-1.126-1.602,0.071-2.766,0.542-4.731,1.347-6.012z" fill="#ffc919"/>
<path id="path3057" d="m98.166,68.433c-1.468-2.552-2.923-4.223-4.396-5.308-0.78,4.303,0.506,7.35,3.277,10.287,0.03-0.504,0.076-0.98,0.132-1.428-1.459-1.647-2.087-3.269-1.99-4.92,0.981,0.448,1.803,1.371,2.548,2.392,0.126-0.37,0.267-0.711,0.429-1.023z" fill="#ffc919"/>
<polygon id="polygon3059" points="128.54,15.905,131.18,15.905,131.18,28.412,128.72,28.412,121.36,19.435,121.5,28.412,121.5,28.412,118.83,28.412,118.83,15.905,121.44,15.905,128.64,24.618" fill="#FFF"/>
<path id="path3061" d="m68.425,21.87h10.304c-0.061,1.028-0.237,1.971-0.724,2.893-0.421,0.79-1.019,1.484-1.792,2.092v-0.005c-1.676,1.307-3.741,1.804-5.833,1.804-1.689,0-3.368-0.36-4.843-1.201-0.466-0.265-0.904-0.569-1.315-0.927l0.004,0.002c-0.666-0.557-1.222-1.23-1.599-2.016h0.002c-0.366-0.758-0.55-1.586-0.55-2.429,0-1.366,0.561-2.625,1.47-3.632,0.319-0.35,0.691-0.679,1.111-0.996l-0.003,0.002c0.394-0.299,0.813-0.562,1.26-0.788,1.437-0.729,3.043-1.006,4.636-1.006,1.644,0,3.082,0.292,4.324,0.879,0.627,0.296,1.174,0.653,1.651,1.074h-0.004c0.598,0.529,0.999,1.127,1.404,1.801h-3.344c-1.495-1.59-4.266-1.869-6.271-1.233-1.697,0.537-3.369,2.006-3.369,3.916,0,1.216,0.574,2.313,1.515,3.052v0.005c0.264,0.203,0.542,0.385,0.841,0.545,0.939,0.499,2.02,0.757,3.08,0.757,2.032,0,3.855-0.772,5.04-2.43h-6.995v-2.159z" fill="#FFF"/>
<path id="path3063" d="m34.45,20.793c0.109-0.418,0.273-0.823,0.493-1.221,0.221-0.395,0.492-0.77,0.811-1.122,0.319-0.35,0.688-0.681,1.108-0.996,1.663-1.236,3.689-1.791,5.741-1.791,1.573,0,3.142,0.301,4.553,1.019,1.269,0.641,2.474,1.621,3.161,2.885,0.212,0.39,0.368,0.792,0.478,1.213v-0.002c0.312,1.236,0.171,2.621-0.39,3.769v-0.002c-0.178,0.375-0.405,0.729-0.677,1.069-0.615,0.76-1.434,1.386-2.287,1.857-1.486,0.823-3.173,1.183-4.861,1.183-1.684,0-3.367-0.36-4.845-1.201-0.464-0.265-0.901-0.575-1.312-0.927l0.002,0.002c-0.35-0.292-0.661-0.61-0.924-0.942h-0.006c-0.264-0.337-0.486-0.694-0.669-1.074h0.002c-0.551-1.14-0.702-2.493-0.378-3.719zm6.023,5.325c0.679,0.228,1.391,0.342,2.107,0.342,1.969,0,4.219-0.818,5.155-2.688,0.499-0.993,0.537-2.201,0.019-3.188-0.127-0.236-0.28-0.466-0.464-0.687-1.161-1.396-2.94-2.023-4.71-2.023-2.197,0-4.724,1.135-5.328,3.417-0.608,2.291,1.177,4.142,3.221,4.827z" fill="#FFF"/>
<path id="path3065" d="M16.038,28.412h-2.741v-12.507h3.917c1.279,0,2.701-0.005,3.885,0.526h0.002-0.002,0.002c0.67,0.292,1.246,0.737,1.676,1.33,0.21,0.288,0.366,0.593,0.473,0.907,0.507,1.522-0.154,3.004-1.437,3.86v0.002c-0.521,0.345-1.131,0.606-1.834,0.778-1.291,0.316-2.624,0.256-3.94,0.256v4.848h-0.001zm0-6.914c1.188,0,2.867,0.164,3.901-0.438,0.696-0.411,0.878-1.389,0.508-2.084-0.116-0.215-0.288-0.398-0.525-0.538-1.034-0.633-2.69-0.463-3.884-0.463v3.523z" fill="#FFF"/>
<path id="path3067" d="m90.046,20.793c0.111-0.418,0.279-0.823,0.496-1.221,0.218-0.395,0.491-0.77,0.807-1.122h0.004c0.314-0.35,0.684-0.681,1.104-0.996,1.667-1.236,3.688-1.791,5.745-1.791,1.57,0,3.141,0.301,4.554,1.019,1.262,0.641,2.473,1.621,3.156,2.885,0.213,0.39,0.37,0.792,0.481,1.213v-0.002c0.31,1.236,0.167,2.621-0.39,3.769v-0.002c-0.178,0.375-0.405,0.729-0.679,1.069-0.613,0.76-1.435,1.386-2.285,1.857-1.489,0.823-3.177,1.183-4.863,1.183s-3.369-0.36-4.844-1.201c-0.466-0.265-0.9-0.575-1.312-0.927v0.002c-0.349-0.292-0.658-0.61-0.922-0.942h-0.005c-0.264-0.337-0.486-0.694-0.669-1.074-0.55-1.14-0.702-2.493-0.378-3.719zm6.023,5.325c0.679,0.228,1.394,0.342,2.107,0.342,1.971,0,4.22-0.818,5.157-2.688,0.497-0.993,0.536-2.201,0.015-3.188-0.121-0.236-0.278-0.466-0.46-0.687-1.161-1.396-2.944-2.023-4.712-2.023-2.199,0-4.721,1.135-5.33,3.417-0.606,2.291,1.181,4.142,3.223,4.827z" fill="#FFF"/>
<polygon id="polygon3069" points="123.23,14.2,124.3,15.816,128.85,13.66,127.62,11.758,123.23,14.2" fill="#FFF"/>
<polygon id="polygon3071" points="72.239,0.927,1.253,0.927,4.021,9.904,72.239,9.904,72.239,0.927" fill="#9b0f08"/>
<path id="path3073" d="m54.663,163.54v-0.75c0-0.112,0.043-0.223,0.127-0.334,0.091-0.103,0.195-0.173,0.324-0.213l0.357-0.102c0.182-0.051,0.303-0.121,0.372-0.213,0.063-0.081,0.097-0.232,0.097-0.436v-8.48h-1.903v-0.638c0-0.173,0.035-0.324,0.116-0.436,0.081-0.102,0.214-0.203,0.403-0.274l2.125-0.881h1.579v10.709c0,0.203,0.032,0.345,0.096,0.436,0.068,0.092,0.197,0.162,0.391,0.213l0.321,0.092c0.141,0.05,0.253,0.131,0.334,0.232s0.124,0.212,0.124,0.324v0.75h-4.863v0.001z" fill="#ffc919"/>
<path id="path3075" d="m64.805,152.79c-0.299,0.486-0.447,1.156-0.447,2.018,0,0.77,0.138,1.357,0.425,1.763,0.281,0.415,0.688,0.618,1.214,0.618,1.205,0,1.76-0.852,1.866-1.854,0.101-1.003-0.25-2.168-0.851-2.807-0.685-0.711-1.682-0.588-2.207,0.262zm3.169,4.894c-0.392,0.385-0.818,0.669-1.266,0.852-0.454,0.192-0.938,0.283-1.462,0.283-0.987,0-1.796-0.355-2.427-1.063-0.631-0.709-0.95-1.611-0.95-2.705,0-1.236,0.378-2.261,1.135-3.05,0.755-0.801,1.726-1.195,2.911-1.195,1.373,0,2.464,0.557,3.281,1.682,0.817,1.124,1.227,2.614,1.227,4.498,0,1.986-0.519,3.607-1.56,4.883-1.041,1.277-2.356,1.906-3.949,1.906-0.791,0-1.431-0.203-1.931-0.618-0.496-0.426-0.744-0.953-0.744-1.591,0-0.416,0.127-0.76,0.388-1.023,0.261-0.253,0.59-0.385,0.995-0.385,0.402,0,0.727,0.132,0.973,0.385,0.249,0.264,0.369,0.607,0.369,1.044,0,0.142-0.015,0.273-0.057,0.405-0.039,0.121-0.095,0.253-0.171,0.385,0.068,0.021,0.14,0.04,0.213,0.051,0.071,0.01,0.146,0.01,0.223,0.01,0.793,0,1.455-0.436,1.979-1.297,0.524-0.873,0.799-2.018,0.823-3.457z" fill="#ffc919"/>
<path id="path3077" d="m84.96,157.87c-0.492,0.364-0.856,0.75-1.1,1.155-0.238,0.395-0.359,0.841-0.359,1.297,0,0.618,0.213,1.124,0.643,1.51,0.421,0.385,0.994,0.577,1.708,0.577,0.715,0,1.297-0.162,1.737-0.486s0.664-0.739,0.664-1.226c0-0.68-0.633-1.368-1.899-2.037-0.594-0.314-1.054-0.577-1.394-0.79zm1.438-1.955c0.496-0.294,0.871-0.599,1.099-0.923,0.234-0.334,0.351-0.709,0.351-1.124,0-0.517-0.162-0.942-0.497-1.267-0.329-0.314-0.765-0.477-1.307-0.477-0.531,0-0.968,0.143-1.307,0.436-0.34,0.284-0.513,0.659-0.513,1.115,0,0.466,0.168,0.871,0.502,1.216,0.336,0.344,0.892,0.689,1.672,1.024zm-2.461,1.327c-0.552-0.416-0.963-0.852-1.216-1.327-0.253-0.477-0.38-1.015-0.38-1.632,0-0.982,0.38-1.814,1.13-2.492,0.754-0.679,1.682-1.023,2.78-1.023,0.979,0,1.789,0.273,2.442,0.831,0.653,0.557,0.978,1.236,0.978,2.066,0,0.608-0.172,1.146-0.511,1.591-0.34,0.455-0.861,0.841-1.571,1.165,1.008,0.486,1.737,1.014,2.184,1.581,0.445,0.577,0.669,1.256,0.669,2.066,0,1.146-0.421,2.047-1.257,2.705-0.835,0.659-1.985,0.993-3.45,0.993-1.297,0-2.329-0.304-3.095-0.901-0.771-0.598-1.149-1.408-1.149-2.422,0-0.638,0.197-1.226,0.603-1.742,0.393-0.528,1.011-1.014,1.843-1.459z" fill="#ffc919"/>
<path id="path3079" d="m76.996,158.93v-4.104c0-0.254,0.006-0.466,0.015-0.638,0.011-0.183,0.021-0.354,0.03-0.527-0.309,0.477-0.705,1.014-1.177,1.611l-0.065,0.091-1.845,2.341c-0.131,0.162-0.304,0.354-0.51,0.577-0.21,0.224-0.445,0.456-0.708,0.71,0.243-0.021,0.495-0.031,0.749-0.051,0.253-0.011,0.577-0.011,0.968-0.011h2.543v0.001zm-1.122,4.611v-0.75c0-0.121,0.038-0.232,0.109-0.345,0.078-0.101,0.172-0.172,0.278-0.202l0.261-0.102c0.164-0.061,0.275-0.132,0.326-0.213,0.057-0.081,0.081-0.232,0.081-0.436v-1.124h-5.45v-1.814l6.165-7.771h1.666v8.146h1.398v1.439h-1.398v1.124c0,0.203,0.026,0.354,0.092,0.436,0.056,0.092,0.167,0.162,0.334,0.213l0.295,0.102c0.111,0.03,0.207,0.102,0.283,0.202,0.081,0.112,0.122,0.224,0.122,0.345v0.75h-4.562z" fill="#ffc919"/>
</g></svg>
