<?xml version="1.0" encoding="UTF-8" standalone="no"?>
<!-- Created with Inkscape (http://www.inkscape.org/) -->

<svg
   xmlns:dc="http://purl.org/dc/elements/1.1/"
   xmlns:cc="http://creativecommons.org/ns#"
   xmlns:rdf="http://www.w3.org/1999/02/22-rdf-syntax-ns#"
   xmlns:svg="http://www.w3.org/2000/svg"
   xmlns="http://www.w3.org/2000/svg"
   xmlns:sodipodi="http://sodipodi.sourceforge.net/DTD/sodipodi-0.dtd"
   xmlns:inkscape="http://www.inkscape.org/namespaces/inkscape"
   id="svg2"
   version="1.1"
   inkscape:version="0.48.5 r10040"
   width="319.46875"
   height="409.15625"
   xml:space="preserve"
   sodipodi:docname="VCL_Media_Guide_Qualification_13-14_HR.pdf"><metadata
     id="metadata8"><rdf:RDF><cc:Work
         rdf:about=""><dc:format>image/svg+xml</dc:format><dc:type
           rdf:resource="http://purl.org/dc/dcmitype/StillImage" /><dc:title></dc:title></cc:Work></rdf:RDF></metadata><defs
     id="defs6"><clipPath
       clipPathUnits="userSpaceOnUse"
       id="clipPath16"><path
         d="m 0,0 595.275,0 0,73.701 L 0,73.701 0,0 z"
         id="path18"
         inkscape:connector-curvature="0" /></clipPath><clipPath
       clipPathUnits="userSpaceOnUse"
       id="clipPath64"><path
         d="m 0,768.189 595.2,0 0,73.701 -595.2,0 0,-73.701 z"
         id="path66"
         inkscape:connector-curvature="0" /></clipPath><clipPath
       clipPathUnits="userSpaceOnUse"
       id="clipPath186"><path
         d="m 47.48,604.488 81.496,0 0,81.497 -81.496,0 0,-81.497 z"
         id="path188"
         inkscape:connector-curvature="0" /></clipPath><clipPath
       clipPathUnits="userSpaceOnUse"
       id="clipPath310"><path
         d="m 74.115,419.424 c -5.306,-0.678 -10.754,-1.989 -16.35,-3.915 l 0,0 C 52.584,399.61 52.559,384.738 57.522,372.326 l 0,0 c 4.63,-11.588 14.158,-19.579 27.457,-25.444 l 0,0 0.139,2.556 c -11.034,4.999 -20.739,12.173 -25.375,23.775 l 0,0 c -5.176,12.945 -4.135,27.324 -0.067,40.417 l 0,0 c 4.796,1.585 9.728,2.78 14.74,3.421 l 0,0 c 3.172,0.405 6.36,0.601 9.55,0.601 l 0,0 c 1.583,0 3.167,-0.048 4.751,-0.143 l 0,0 0.002,0.044 c 0.033,-0.002 0.065,-0.003 0.097,-0.005 l 0,0 0.127,2.342 c 0.104,-0.007 0.208,-0.013 0.312,-0.019 l 0,0 c -1.755,0.113 -3.525,0.173 -5.311,0.173 l 0,0 c -3.226,0 -6.503,-0.195 -9.829,-0.62 m 42.864,-49.152 c 5.803,11.583 7.191,25.952 3.869,41.812 l 0,0 c 3.32,-15.86 1.934,-30.229 -3.869,-41.812 m -0.208,-0.411 c 0.07,0.137 0.139,0.274 0.208,0.411 l 0,0 c -0.069,-0.137 -0.138,-0.274 -0.208,-0.411 m -0.363,-0.693 c 0.122,0.23 0.244,0.461 0.363,0.693 l 0,0 c -0.119,-0.232 -0.241,-0.463 -0.363,-0.693 m -11.873,-13.449 c 4.98,3.621 8.977,8.024 11.873,13.449 l 0,0 c -2.897,-5.425 -6.892,-9.827 -11.873,-13.449"
         id="path312"
         inkscape:connector-curvature="0" /></clipPath><clipPath
       clipPathUnits="userSpaceOnUse"
       id="clipPath320"><path
         d="m -0.0383897,-0.55745 1.0997797,0 0,1.119663 -1.0997797,0 0,-1.119663 z"
         id="path322"
         inkscape:connector-curvature="0" /></clipPath><linearGradient
       x1="0"
       y1="0"
       x2="1"
       y2="0"
       gradientUnits="userSpaceOnUse"
       gradientTransform="matrix(68.61821,-3.7246967,3.7246967,68.61821,53.310003,385.20447)"
       spreadMethod="pad"
       id="linearGradient324"><stop
         style="stop-opacity:1;stop-color:#6d6b6b"
         offset="0"
         id="stop326" /><stop
         style="stop-opacity:1;stop-color:#e3e2e2"
         offset="0.45"
         id="stop328" /><stop
         style="stop-opacity:1;stop-color:#a2a1a1"
         offset="1"
         id="stop330" /></linearGradient><clipPath
       clipPathUnits="userSpaceOnUse"
       id="clipPath338"><path
         d="m 88.816,417.548 c 0.186,-0.012 0.371,-0.024 0.556,-0.035 l 0,0 0.034,-0.004 0.037,-0.003 c 5.03,-0.199 10.018,-0.855 14.918,-2.026 l 0,0 c 4.917,-1.178 9.691,-2.908 14.29,-5.006 l 0,0 c 0.001,-0.003 0.001,-0.006 0.001,-0.009 l 0,0 c 0.031,-0.014 0.062,-0.027 0.092,-0.042 l 0,0 c 2.622,-13.434 2.111,-27.846 -4.447,-40.129 l 0,0 c -5.991,-11.222 -16.84,-17.247 -28.522,-21.151 l 0,0 c -0.22,0.097 -0.439,0.196 -0.657,0.295 l 0,0 -0.139,-2.556 0,-0.003 0.674,-0.294 c 7.296,2.367 13.635,5.318 18.882,9.134 l 0,0 c 4.981,3.622 8.976,8.024 11.873,13.449 l 0,0 c 6.28,11.769 7.866,26.548 4.44,42.916 l 0,0 c -5.363,2.529 -10.633,4.425 -15.837,5.67 l 0,0 c -5.197,1.242 -10.324,1.893 -15.379,2.091 l 0,0 c -0.126,0.009 -0.251,0.018 -0.377,0.026 l 0,0 c -0.104,0.006 -0.208,0.012 -0.312,0.019 l 0,0 -0.127,-2.342 z"
         id="path340"
         inkscape:connector-curvature="0" /></clipPath><clipPath
       clipPathUnits="userSpaceOnUse"
       id="clipPath348"><path
         d="m -0.111225,-1.04748 1.233335,0 0,2.15 -1.233335,0 0,-2.15 z"
         id="path350"
         inkscape:connector-curvature="0" /></clipPath><linearGradient
       x1="0"
       y1="0"
       x2="1"
       y2="0"
       gradientUnits="userSpaceOnUse"
       gradientTransform="matrix(34.983671,-1.8989593,1.8989593,34.983671,86.891802,383.23469)"
       spreadMethod="pad"
       id="linearGradient352"><stop
         style="stop-opacity:1;stop-color:#8c8b8b"
         offset="0"
         id="stop354" /><stop
         style="stop-opacity:1;stop-color:#e9e8e8"
         offset="0.45"
         id="stop356" /><stop
         style="stop-opacity:1;stop-color:#817f7f"
         offset="1"
         id="stop358" /></linearGradient><clipPath
       clipPathUnits="userSpaceOnUse"
       id="clipPath366"><path
         d="m 74.416,417.051 c -5.012,-0.641 -9.944,-1.836 -14.74,-3.421 l 0,0 c -4.068,-13.093 -5.109,-27.472 0.067,-40.417 l 0,0 c 4.636,-11.602 14.341,-18.776 25.375,-23.775 l 0,0 c 0.218,-0.099 0.437,-0.198 0.657,-0.295 l 0,0 c 11.682,3.904 22.531,9.929 28.522,21.151 l 0,0 c 6.558,12.283 7.069,26.695 4.447,40.129 l 0,0 c -0.03,0.015 -0.061,0.028 -0.092,0.042 l 0,0 c 2.619,-13.432 2.106,-27.838 -4.449,-40.119 l 0,0 c -5.99,-11.224 -16.838,-17.248 -28.525,-21.152 l 0,0 c -0.218,0.099 -0.436,0.195 -0.653,0.296 l 0,0 0.132,2.445 c -10.119,4.712 -19.062,11.403 -23.345,22.118 l 0,0 c -4.805,12.031 -3.963,25.4 -0.359,37.638 l 0,0 c 4.279,1.349 8.666,2.372 13.117,2.941 l 0,0 c 3.075,0.392 6.164,0.582 9.255,0.582 l 0,0 c 1.586,0 3.174,-0.05 4.759,-0.148 l 0,0 0.133,2.443 c -1.584,0.095 -3.168,0.143 -4.751,0.143 l 0,0 c -3.19,0 -6.378,-0.196 -9.55,-0.601"
         id="path368"
         inkscape:connector-curvature="0" /></clipPath><clipPath
       clipPathUnits="userSpaceOnUse"
       id="clipPath376"><path
         d="m -0.17689,-0.685369 1.36095,0 0,1.334433 -1.36095,0 0,-1.334433 z"
         id="path378"
         inkscape:connector-curvature="0" /></clipPath><linearGradient
       x1="0"
       y1="0"
       x2="1"
       y2="0"
       gradientUnits="userSpaceOnUse"
       gradientTransform="matrix(6.9316272,55.594713,-55.594713,6.9316272,83.466912,355.52727)"
       spreadMethod="pad"
       id="linearGradient380"><stop
         style="stop-opacity:1;stop-color:#b2b2b1"
         offset="0"
         id="stop382" /><stop
         style="stop-opacity:1;stop-color:#f2f2f2"
         offset="0.45"
         id="stop384" /><stop
         style="stop-opacity:1;stop-color:#afaeae"
         offset="1"
         id="stop386" /></linearGradient><clipPath
       clipPathUnits="userSpaceOnUse"
       id="clipPath394"><path
         d="m 88.717,417.509 -0.133,-2.443 c 0.189,-0.012 0.377,-0.024 0.566,-0.037 l 0,0 0.071,-0.007 0.071,-0.002 c 4.876,-0.193 9.711,-0.831 14.458,-1.965 l 0,0 c 4.366,-1.044 8.617,-2.54 12.724,-4.35 l 0,0 c 2.254,-12.535 1.657,-25.92 -4.435,-37.332 l 0,0 c -5.531,-10.362 -15.553,-16.007 -26.293,-19.71 l 0,0 c -0.197,0.09 -0.393,0.18 -0.589,0.272 l 0,0 -0.132,-2.445 c 0.217,-0.101 0.435,-0.197 0.653,-0.296 l 0,0 c 11.687,3.904 22.535,9.928 28.525,21.152 l 0,0 c 6.555,12.281 7.068,26.687 4.449,40.119 l 0,0 c 0,0.003 0,0.006 -0.001,0.009 l 0,0 c -4.599,2.098 -9.373,3.828 -14.29,5.006 l 0,0 c -4.9,1.171 -9.888,1.827 -14.918,2.026 l 0,0 -0.037,0.003 -0.034,0.004 c -0.185,0.011 -0.37,0.023 -0.556,0.035 l 0,0 c -0.032,0.002 -0.064,0.003 -0.097,0.005 l 0,0 -0.002,-0.044 z"
         id="path396"
         inkscape:connector-curvature="0" /></clipPath><clipPath
       clipPathUnits="userSpaceOnUse"
       id="clipPath404"><path
         d="m -0.146937,-0.430348 1.322387,0 0,0.812348 -1.322387,0 0,-0.812348 z"
         id="path406"
         inkscape:connector-curvature="0" /></clipPath><linearGradient
       x1="0"
       y1="0"
       x2="1"
       y2="0"
       gradientUnits="userSpaceOnUse"
       gradientTransform="matrix(6.7662349,54.268146,-54.268146,6.7662349,98.356523,355.62964)"
       spreadMethod="pad"
       id="linearGradient408"><stop
         style="stop-opacity:1;stop-color:#959494"
         offset="0"
         id="stop410" /><stop
         style="stop-opacity:1;stop-color:#ffffff"
         offset="0.45"
         id="stop412" /><stop
         style="stop-opacity:1;stop-color:#d3d4d3"
         offset="1"
         id="stop414" /></linearGradient><clipPath
       clipPathUnits="userSpaceOnUse"
       id="clipPath422"><path
         d="m 74.57,414.632 c -4.451,-0.569 -8.838,-1.592 -13.117,-2.941 l 0,0 c -3.604,-12.238 -4.446,-25.607 0.359,-37.638 l 0,0 c 4.283,-10.715 13.226,-17.406 23.345,-22.118 l 0,0 c 0.196,-0.092 0.392,-0.182 0.589,-0.272 l 0,0 c 10.74,3.703 20.762,9.348 26.293,19.71 l 0,0 c 6.092,11.412 6.689,24.797 4.435,37.332 l 0,0 c -4.107,1.81 -8.358,3.306 -12.724,4.35 l 0,0 c -4.747,1.134 -9.582,1.772 -14.458,1.965 l 0,0 -0.071,0.002 -0.071,0.007 c -0.189,0.013 -0.377,0.025 -0.566,0.037 l 0,0 c -1.585,0.098 -3.173,0.148 -4.759,0.148 l 0,0 c -3.091,0 -6.18,-0.19 -9.255,-0.582 M 61.6,411.427 c 4.279,1.346 8.667,2.371 13.118,2.94 l 0,0 c 3.072,0.393 6.157,0.582 9.246,0.582 l 0,0 c 1.777,0 3.557,-0.063 5.335,-0.187 l 0,0 0.069,-0.004 0.071,-0.003 c 3.93,-0.157 7.831,-0.6 11.682,-1.361 l 0,0 c -3.679,-1.348 -7.564,-2.898 -11.655,-4.682 l 0,0 c -15.181,-6.628 -24.669,-14.9 -30.574,-22.175 l 0,0 c -0.835,8.316 0.341,16.849 2.708,24.89"
         id="path424"
         inkscape:connector-curvature="0" /></clipPath><clipPath
       clipPathUnits="userSpaceOnUse"
       id="clipPath432"><path
         d="m -1.04985,-1.08463 2.12195,0 0,2.17827 -2.12195,0 0,-2.17827 z"
         id="path434"
         inkscape:connector-curvature="0" /></clipPath><radialGradient
       fx="0"
       fy="0"
       cx="0"
       cy="0"
       r="1"
       gradientUnits="userSpaceOnUse"
       gradientTransform="matrix(30.622364,-1.6622249,1.6622249,30.622364,87.51917,383.31912)"
       spreadMethod="pad"
       id="radialGradient436"><stop
         style="stop-opacity:1;stop-color:#117ecc"
         offset="0"
         id="stop438" /><stop
         style="stop-opacity:1;stop-color:#0c1529"
         offset="1"
         id="stop440" /></radialGradient><clipPath
       clipPathUnits="userSpaceOnUse"
       id="clipPath448"><path
         d="m 74.718,414.367 c -4.451,-0.569 -8.839,-1.594 -13.118,-2.94 l 0,0 c -2.367,-8.041 -3.543,-16.574 -2.708,-24.89 l 0,0 c 5.905,7.275 15.393,15.547 30.574,22.175 l 0,0 c 4.091,1.784 7.976,3.334 11.655,4.682 l 0,0 c -3.851,0.761 -7.752,1.204 -11.682,1.361 l 0,0 -0.071,0.003 -0.069,0.004 c -1.778,0.124 -3.558,0.187 -5.335,0.187 l 0,0 c -3.089,0 -6.174,-0.189 -9.246,-0.582"
         id="path450"
         inkscape:connector-curvature="0" /></clipPath><clipPath
       clipPathUnits="userSpaceOnUse"
       id="clipPath458"><path
         d="m -1.01483,0.0507643 1.452574,0 0,1.0013357 -1.452574,0 0,-1.0013357 z"
         id="path460"
         inkscape:connector-curvature="0" /></clipPath><radialGradient
       fx="0"
       fy="0"
       cx="0"
       cy="0"
       r="1"
       gradientUnits="userSpaceOnUse"
       gradientTransform="matrix(30.617859,-1.6619793,1.6619793,30.617859,87.507463,383.3797)"
       spreadMethod="pad"
       id="radialGradient462"><stop
         style="stop-opacity:1;stop-color:#2786d0"
         offset="0"
         id="stop464" /><stop
         style="stop-opacity:1;stop-color:#16213b"
         offset="1"
         id="stop466" /></radialGradient><clipPath
       clipPathUnits="userSpaceOnUse"
       id="clipPath478"><path
         d="m 47.48,342.567 81.496,0 0,81.496 -81.496,0 0,-81.496 z"
         id="path480"
         inkscape:connector-curvature="0" /></clipPath><clipPath
       clipPathUnits="userSpaceOnUse"
       id="clipPath518"><path
         d="m 85.946,357.214 -1.467,0.063 1.151,-0.914 -0.514,-1.376 1.226,0.813 1.149,-0.916 -0.393,1.416 1.226,0.813 -1.469,0.063 -0.396,1.415 -0.513,-1.377 z"
         id="path520"
         inkscape:connector-curvature="0" /></clipPath><clipPath
       clipPathUnits="userSpaceOnUse"
       id="clipPath530"><path
         d="m 47.48,342.567 81.496,0 0,81.496 -81.496,0 0,-81.496 z"
         id="path532"
         inkscape:connector-curvature="0" /></clipPath></defs><sodipodi:namedview
     pagecolor="#ffffff"
     bordercolor="#666666"
     borderopacity="1"
     objecttolerance="10"
     gridtolerance="10"
     guidetolerance="10"
     inkscape:pageopacity="0"
     inkscape:pageshadow="2"
     inkscape:window-width="1366"
     inkscape:window-height="705"
     id="namedview4"
     showgrid="false"
     fit-margin-top="2"
     fit-margin-left="2"
     fit-margin-right="2"
     fit-margin-bottom="2"
     inkscape:zoom="1.2792177"
     inkscape:cx="159.7375"
     inkscape:cy="204.59002"
     inkscape:window-x="-8"
     inkscape:window-y="-8"
     inkscape:window-maximized="1"
     inkscape:current-layer="g10" /><g
     id="g10"
     inkscape:groupmode="layer"
     inkscape:label="VCL_Media_Guide_Qualification_13-14_HR"
     transform="matrix(1.25,0,0,-1.25,49.41,1011.0716)"><g
       id="g178"
       transform="matrix(4,0,0,4,81.0336,803.5047)"><path
         d="m 0,0 -1.12,-0.498 -1.65,-0.685 -1.18,-0.313 -1.356,-0.376 -1.122,-0.313 -1.298,-0.375 -1.356,-0.315 -1.298,-0.313 -1.18,-0.375 -1.593,-0.377 -1.769,-0.501 -1.297,-0.437 -1.356,-0.56 -2.357,-1.057 -1.356,-0.745 -8.327,0.022 -0.027,-19.516 1.299,0.068 0.827,-0.181 0.947,-0.364 0.829,-0.366 1.006,-0.489 1.361,-0.547 1.301,-0.425 0.241,-26.163 0.254,-3.569 0.243,-1.599 0.482,-1.969 0.716,-1.719 1.012,-1.535 2.018,-2.084 2.134,-1.652 7.403,-4.521 9.892,-6.11 6.242,3.907 4.594,2.915 6.712,4.403 1.941,1.609 1.353,1.238 0.763,0.989 0.586,0.987 0.585,1.357 0.408,1.233 0.346,1.603 0.23,1.54 0.112,1.355 0.052,1.478 -0.007,1.539 -0.117,24.809 0.826,0.25 0.589,0.187 0.884,0.559 0.884,0.497 0.765,0.434 0.884,0.435 0.707,0.311 0.708,0.127 0.887,0.003 -0.208,19.084 -7.914,-0.037 -0.769,0.366 -1.125,0.611 -1.006,0.425 -1.007,0.366 -1.183,0.425 -1.242,0.425 -1.419,0.424 -1.36,0.364 -1.42,0.3 -1.832,0.422 -1.419,0.363 -2.07,0.483 L 7.331,-1.566 5.734,-1.02 4.372,-0.41 2.656,0.444 1.827,0.809 0,0 z"
         style="fill:#ffffff;fill-opacity:1;fill-rule:nonzero;stroke:none"
         id="path180"
         inkscape:connector-curvature="0" /></g><g
       id="g182"
       transform="matrix(4,0,0,4,-264.786,-1935.6129)"><g
         id="g184"
         clip-path="url(#clipPath186)"><g
           id="g190"
           transform="translate(56.8395,677.5613)"><path
             d="m 0,0 8.328,-0.023 1.355,0.745 2.357,1.058 1.356,0.56 1.297,0.437 1.77,0.501 1.593,0.377 1.179,0.375 1.298,0.314 1.357,0.314 1.298,0.375 1.121,0.314 1.356,0.375 1.18,0.314 1.65,0.685 1.12,0.497 1.827,0.809 0.829,-0.365 1.717,-0.854 1.361,-0.61 1.597,-0.546 1.952,-0.607 2.07,-0.482 1.419,-0.363 1.833,-0.422 1.419,-0.302 1.36,-0.363 1.419,-0.424 1.243,-0.425 1.183,-0.425 1.006,-0.365 1.006,-0.426 1.125,-0.611 0.769,-0.366 7.914,0.037 0.208,-19.083 -0.886,-0.004 -0.708,-0.127 -0.708,-0.311 -0.883,-0.435 -0.766,-0.434 -0.884,-0.497 -0.883,-0.558 -0.59,-0.188 -0.826,-0.25 0.116,-24.809 0.008,-1.539 -0.052,-1.478 -0.112,-1.355 -0.229,-1.54 -0.347,-1.602 -0.408,-1.233 -0.584,-1.357 -0.586,-0.988 -0.763,-0.989 -1.353,-1.237 -1.941,-1.61 -6.713,-4.402 -4.593,-2.915 -6.242,-3.908 -9.892,6.11 -7.404,4.521 -2.134,1.652 -2.018,2.084 -1.011,1.534 -0.717,1.721 -0.482,1.967 -0.244,1.6 -0.253,3.569 -0.24,26.163 -1.301,0.425 -1.361,0.548 -1.007,0.488 -0.828,0.365 -0.947,0.365 -0.828,0.181 -1.299,-0.068 L 0,0 z"
             style="fill:none;stroke:#ffffff;stroke-width:0.219;stroke-linecap:butt;stroke-linejoin:miter;stroke-miterlimit:22.9260006;stroke-opacity:1;stroke-dasharray:none"
             id="path192"
             inkscape:connector-curvature="0" /></g><g
           id="g194"
           transform="translate(112.5798,631.0752)"><path
             d="m 0,0 c -0.233,-11.457 -2.058,-12.59 -14.479,-20.3 -2.4,-1.489 -5.222,-3.241 -8.785,-5.551 l -0.531,-0.344 -0.536,0.348 c -4.172,2.71 -7.608,4.777 -10.419,6.468 -10.633,6.395 -12.685,7.629 -13.06,18.102 l -0.033,-0.001 -0.005,1.054 -0.002,0.573 c -0.034,4.661 -0.064,8.674 -0.095,12.689 -0.028,3.712 -0.056,7.426 -0.087,11.655 -1.124,0.212 -2.195,0.746 -3.266,1.279 -1.174,0.585 -2.347,1.17 -3.398,1.165 l -1.02,-0.005 0.004,1.062 0.059,17.221 0.004,1.046 1.002,0.004 7.283,0.034 c 3.932,2.106 7.785,3.056 11.659,4.011 3.653,0.9 7.325,1.805 11.029,3.713 l 0.457,0.236 0.451,-0.244 c 3.748,-2.025 7.534,-2.927 11.321,-3.829 3.842,-0.915 7.684,-1.83 11.573,-3.889 L 5.927,46.529 6.938,46.533 6.943,45.48 7.022,28.64 7.027,27.609 6.036,27.582 C 5.119,27.557 4.062,26.91 3.005,26.263 2.022,25.662 1.039,25.061 -0.009,24.794 L 0.017,0.573 0.02,0.008 0.02,0 0,0 z m -15.507,-18.493 c 11.767,7.303 13.328,8.272 13.495,19.108 l 0.007,0 -0.027,25.086 -0.002,1.031 0.988,0.028 c 0.917,0.025 1.974,0.672 3.031,1.318 0.982,0.601 1.964,1.201 3.011,1.469 l -0.07,14.869 -6.035,-0.028 -0.247,-10e-4 -0.22,0.118 c -3.747,2.025 -7.533,2.927 -11.32,3.829 -3.766,0.897 -7.533,1.794 -11.344,3.769 -3.735,-1.849 -7.379,-2.748 -11.005,-3.641 -3.821,-0.942 -7.622,-1.879 -11.409,-3.948 l -0.22,-0.12 -0.241,-10e-4 -6.519,-0.031 -0.053,-15.215 c 1.121,-0.213 2.189,-0.745 3.257,-1.277 1.173,-0.585 2.347,-1.17 3.398,-1.165 l 1.008,0.005 0.008,-1.054 c 0.033,-4.63 0.063,-8.62 0.093,-12.608 0.031,-4.015 0.061,-8.028 0.095,-12.689 l 0.001,-0.216 0.008,-0.337 c 0.255,-10.254 1.947,-11.272 12.071,-17.361 2.695,-1.621 5.963,-3.586 9.948,-6.162 3.072,1.983 5.883,3.728 8.293,5.224"
             style="fill:#316dbe;fill-opacity:1;fill-rule:nonzero;stroke:none"
             id="path196"
             inkscape:connector-curvature="0" /></g><g
           id="g198"
           transform="translate(83.6567,631.3619)"><path
             d="M 0,0 -0.018,3.869 -1.156,3.864 -1.138,-0.005 0,0 z M 4.495,2.351 C 4.49,3.294 3.874,3.951 2.934,3.947 1.925,3.942 1.32,3.351 1.324,2.486 1.327,1.759 1.819,1.272 2.606,1.275 L 2.685,1.276 C 2.459,0.914 2.079,0.695 1.535,0.626 L 2.379,-0.057 C 3.718,0.28 4.5,1.238 4.495,2.351 M 3.485,2.496 C 3.487,2.182 3.246,1.923 2.929,1.921 2.612,1.92 2.364,2.176 2.363,2.491 2.361,2.81 2.607,3.058 2.924,3.06 3.24,3.061 3.484,2.81 3.485,2.496 M 8.068,0.816 8.065,1.533 7.491,1.53 7.48,3.904 6.417,3.899 4.805,1.739 4.809,0.801 6.377,0.808 6.38,0.03 7.498,0.035 7.495,0.814 8.068,0.816 z M 6.373,1.525 5.33,1.52 6.367,2.91 6.373,1.525 z M 11.685,3.79 11.684,3.924 8.395,3.908 8.4,2.965 10.042,2.973 8.596,0.04 9.853,0.046 11.685,3.79 z"
             style="fill:#316dbe;fill-opacity:1;fill-rule:evenodd;stroke:none"
             id="path200"
             inkscape:connector-curvature="0" /></g><g
           id="g202"
           transform="translate(88.2192,652.1127)"><path
             d="M 0,0 C 0.171,0.195 0.273,0.475 0.272,0.805 0.27,1.133 0.166,1.409 -0.006,1.6 -0.177,1.79 -0.419,1.901 -0.697,1.899 -0.975,1.898 -1.216,1.785 -1.385,1.594 -1.556,1.401 -1.657,1.124 -1.655,0.796 c 0.001,-0.33 0.106,-0.609 0.279,-0.802 0.171,-0.192 0.413,-0.303 0.689,-0.302 C -0.41,-0.307 -0.169,-0.193 0,0 M 1.741,-1.579 C 1.741,-1.58 1.74,-1.58 1.74,-1.58 l 0.001,0.001 z M 1.74,-1.58 l 0,0 z M 2.462,2.115 C 2.628,1.717 2.71,1.282 2.712,0.808 2.715,0.334 2.636,-0.102 2.474,-0.501 2.312,-0.902 2.068,-1.261 1.741,-1.579 1.741,-1.58 1.74,-1.58 1.74,-1.58 l 0,0 C 1.422,-1.893 1.055,-2.133 0.646,-2.295 l 0,0 c -0.406,-0.161 -0.849,-0.244 -1.322,-0.246 -0.47,-0.003 -0.91,0.077 -1.314,0.233 -0.407,0.159 -0.775,0.395 -1.097,0.706 l 0,0 c -0.334,0.317 -0.584,0.673 -0.75,1.07 -0.166,0.398 -0.249,0.833 -0.251,1.308 -0.003,0.475 0.076,0.911 0.239,1.31 0.163,0.401 0.409,0.762 0.741,1.085 l 10e-4,0 c 0.319,0.31 0.685,0.548 1.091,0.709 0.402,0.158 0.84,0.241 1.309,0.243 0.472,0.002 0.915,-0.076 1.322,-0.232 0.41,-0.156 0.78,-0.39 1.102,-0.697 L 1.719,3.192 C 2.049,2.872 2.296,2.514 2.462,2.115"
             style="fill:#ffffff;fill-opacity:1;fill-rule:nonzero;stroke:none"
             id="path204"
             inkscape:connector-curvature="0" /></g><g
           id="g206"
           transform="translate(88.2192,652.1127)"><path
             d="M 0,0 C 0.171,0.195 0.273,0.475 0.272,0.805 0.27,1.133 0.166,1.409 -0.006,1.6 -0.177,1.79 -0.419,1.901 -0.697,1.899 -0.975,1.898 -1.216,1.785 -1.385,1.594 -1.556,1.401 -1.657,1.124 -1.655,0.796 c 0.001,-0.33 0.106,-0.609 0.279,-0.802 0.171,-0.192 0.413,-0.303 0.689,-0.302 C -0.41,-0.307 -0.169,-0.193 0,0 M 0.709,0.807 C 0.711,0.358 0.566,-0.029 0.323,-0.306 0.071,-0.593 -0.282,-0.762 -0.684,-0.764 -1.087,-0.766 -1.442,-0.6 -1.696,-0.316 -1.942,-0.04 -2.09,0.345 -2.093,0.794 -2.095,1.242 -1.95,1.626 -1.706,1.902 -1.455,2.186 -1.102,2.353 -0.699,2.355 -0.296,2.357 0.058,2.193 0.312,1.911 0.558,1.638 0.707,1.255 0.709,0.807"
             style="fill:#316dbe;fill-opacity:1;fill-rule:nonzero;stroke:none"
             id="path208"
             inkscape:connector-curvature="0" /></g><g
           id="g210"
           transform="translate(90.4947,652.9189)"><path
             d="m 0,0 c -0.002,0.413 -0.073,0.789 -0.214,1.129 -0.141,0.339 -0.353,0.646 -0.638,0.923 l 0,0 C -1.133,2.32 -1.455,2.523 -1.81,2.659 -2.165,2.795 -2.558,2.863 -2.981,2.861 -3.4,2.859 -3.787,2.787 -4.138,2.649 -4.489,2.51 -4.807,2.303 -5.086,2.032 l 0.001,0 c -0.287,-0.28 -0.499,-0.589 -0.637,-0.93 -0.139,-0.341 -0.207,-0.717 -0.205,-1.13 0.002,-0.413 0.073,-0.789 0.215,-1.128 0.142,-0.339 0.356,-0.644 0.644,-0.916 l 0.003,-0.002 c 0.281,-0.271 0.6,-0.477 0.952,-0.614 0.352,-0.137 0.741,-0.206 1.159,-0.204 0.423,0.002 0.815,0.075 1.169,0.215 l 0,0 c 0.353,0.141 0.672,0.349 0.95,0.623 l 0.001,10e-4 c 0.284,0.276 0.493,0.583 0.631,0.922 C -0.065,-0.791 0.002,-0.414 0,0 M 0.187,1.309 C 0.352,0.911 0.435,0.475 0.437,0.002 0.439,-0.472 0.361,-0.908 0.199,-1.307 0.036,-1.708 -0.207,-2.067 -0.534,-2.385 -0.535,-2.386 -0.535,-2.386 -0.535,-2.386 l 0,0 C -0.854,-2.7 -1.221,-2.939 -1.629,-3.101 l -10e-4,0 c -0.405,-0.161 -0.848,-0.244 -1.322,-0.247 -0.47,-0.002 -0.91,0.077 -1.313,0.234 -0.408,0.159 -0.776,0.395 -1.097,0.706 l 0,0 c -0.335,0.317 -0.584,0.673 -0.75,1.07 -0.167,0.398 -0.25,0.833 -0.252,1.308 -0.002,0.474 0.077,0.91 0.239,1.31 0.164,0.401 0.41,0.762 0.741,1.085 l 0.001,0 c 0.319,0.31 0.685,0.548 1.091,0.708 0.402,0.159 0.841,0.242 1.309,0.244 0.473,0.002 0.916,-0.076 1.323,-0.232 0.41,-0.156 0.779,-0.39 1.102,-0.697 L -0.557,2.386 C -0.226,2.066 0.021,1.707 0.187,1.309"
             style="fill:#316dbe;fill-opacity:1;fill-rule:nonzero;stroke:none"
             id="path212"
             inkscape:connector-curvature="0" /></g><g
           id="g214"
           transform="translate(81.7513,612.6257)"><path
             d="m 0,0 -7.682,4.935 c -4.706,3.024 -5.89,5.529 -6.469,11.817 -0.022,4.536 -0.348,30.51 -0.342,29.047 -4.276,-0.297 -4.975,1.904 -7.577,2.321 l 0.082,14.008 6.152,0.029 c 5.032,2.957 10.549,3.554 15.521,5.181 l 0.037,-7.825 0.481,0.002 0.155,10e-4 0.447,0.002 0.003,-0.466 0,-0.162 0.045,-9.461 0,-0.162 0.003,-0.466 -0.447,-0.002 -0.156,-10e-4 -0.481,-0.002 0.045,-9.773 0.93,0.004 0.219,10e-4 L 0.967,38.8 0.974,37.256 0.975,37.028 0.757,37.027 -0.173,37.023 0,0 z"
             style="fill:#316dbe;fill-opacity:1;fill-rule:evenodd;stroke:none"
             id="path216"
             inkscape:connector-curvature="0" /></g><g
           id="g218"
           transform="translate(96.0817,612.8679)"><path
             d="m 0,0 7.636,5.007 c 4.63,3.037 5.516,5.541 5.911,11.834 0.287,4.777 0.078,29.082 0.067,28.867 3.47,-0.269 3.667,1.457 7.087,2.602 l -0.039,13.553 -5.698,-0.026 c -4.988,3.1 -10.29,3.418 -15.277,4.998 l 0.035,-7.497 -2.523,-0.012 -0.155,-10e-4 -0.448,-0.002 0.003,-0.466 0,-0.162 0.019,-3.943 -0.261,-0.181 -0.069,-0.048 -0.201,-0.139 10e-4,-0.252 10e-4,-0.087 0.01,-2.255 0.002,-0.3 0.004,-0.866 0.53,0.368 0.009,-1.758 0,-0.162 0.003,-0.466 0.447,0.002 0.155,0.001 2.523,0.012 0.025,-5.217 c -0.448,-0.017 -0.853,-0.091 -1.223,-0.228 -0.422,-0.157 -0.794,-0.395 -1.126,-0.722 -0.327,-0.323 -0.573,-0.684 -0.737,-1.083 -0.163,-0.4 -0.244,-0.836 -0.242,-1.31 0.002,-0.475 0.085,-0.911 0.252,-1.308 0.166,-0.398 0.415,-0.754 0.75,-1.07 l 0,-10e-4 c 0.321,-0.31 0.689,-0.547 1.097,-0.705 0.388,-0.151 0.81,-0.23 1.26,-0.234 L 0,0 z m -0.193,41.32 0.011,-2.482 c -0.223,0.058 -0.413,0.162 -0.56,0.302 -0.235,0.224 -0.369,0.548 -0.371,0.94 -0.002,0.384 0.13,0.708 0.364,0.934 0.147,0.141 0.334,0.246 0.556,0.306"
             style="fill:#316dbe;fill-opacity:1;fill-rule:evenodd;stroke:none"
             id="path220"
             inkscape:connector-curvature="0" /></g><g
           id="g222"
           transform="translate(97.931,650.5229)"><path
             d="M 0,0 -0.041,1.098 C -0.237,0.989 -0.433,0.901 -0.632,0.834 -0.943,0.73 -1.258,0.677 -1.584,0.675 -2.119,0.673 -2.567,0.846 -2.886,1.149 -3.211,1.459 -3.397,1.9 -3.4,2.423 c -0.002,0.516 0.181,0.957 0.505,1.27 0.316,0.304 0.761,0.483 1.295,0.485 0.324,0.002 0.64,-0.047 0.952,-0.146 0.196,-0.063 0.389,-0.145 0.581,-0.248 L -0.072,4.885 C -0.347,5.015 -0.622,5.114 -0.9,5.182 -1.219,5.26 -1.542,5.299 -1.874,5.297 -2.346,5.295 -2.762,5.229 -3.129,5.093 -3.493,4.958 -3.813,4.753 -4.101,4.469 -4.384,4.189 -4.596,3.88 -4.736,3.538 -4.876,3.196 -4.945,2.82 -4.943,2.408 -4.941,1.994 -4.87,1.618 -4.728,1.279 -4.586,0.941 -4.372,0.635 -4.084,0.363 l 0.003,-0.001 c 0.281,-0.272 0.6,-0.478 0.951,-0.614 0.353,-0.137 0.741,-0.206 1.16,-0.205 0.391,0.002 0.755,0.044 1.099,0.13 C -0.57,-0.252 -0.282,-0.144 0,0"
             style="fill:#ffffff;fill-opacity:1;fill-rule:nonzero;stroke:none"
             id="path224"
             inkscape:connector-curvature="0" /></g><g
           id="g226"
           transform="translate(82.2871,650.1078)"><path
             d="M 0,0 -0.005,1.089 -2.089,1.079 -2.308,1.078 -2.309,1.306 -2.315,2.616 -2.316,2.739 -2.217,2.807 -1.336,3.416 -1.34,4.31 -1.983,3.867 -2.32,3.634 -2.322,4.055 -2.329,5.539 -3.88,5.531 l 0.012,-2.49 0,-0.123 L -3.966,2.85 -4.204,2.685 -4.2,1.8 -3.864,2.034 -3.862,1.61 -3.854,-0.018 0,0 z"
             style="fill:#ffffff;fill-opacity:1;fill-rule:nonzero;stroke:none"
             id="path228"
             inkscape:connector-curvature="0" /></g><g
           id="g230"
           transform="translate(106.6083,650.2215)"><path
             d="m 0,0 -2.511,2.841 -0.115,0.15 0.122,0.144 2.393,2.414 -1.561,-0.007 -2.554,-2.616 -0.045,-0.053 -0.001,0.205 -10e-4,0.133 -0.011,2.318 -1.574,-0.007 0.026,-5.549 1.574,0.007 -0.012,2.501 0,0.062 -0.001,0.213 0.055,-0.073 2.348,-2.692 L 0,0 z"
             style="fill:#ffffff;fill-opacity:1;fill-rule:nonzero;stroke:none"
             id="path232"
             inkscape:connector-curvature="0" /></g><g
           id="g234"
           transform="translate(86.5396,665.2073)"><path
             d="m 0,0 0.011,-0.006 -10e-4,0 C 0.008,-0.005 0.007,-0.004 0.005,-0.003 L 0,0 C 0.002,-0.001 0.003,-0.002 0.005,-0.003 L 0.01,-0.006 c 0,0 10e-4,0 10e-4,0 l 0.069,-0.041 0,0.001 c 0.187,-0.107 0.344,-0.198 0.454,-0.278 -0.001,0 -0.001,0 -0.002,0 -0.073,-0.016 -0.168,-0.025 -0.285,-0.025 -0.121,-0.001 -0.248,0.014 -0.381,0.044 -0.144,0.033 -0.303,0.084 -0.476,0.154 -0.184,0.075 -0.374,0.166 -0.57,0.275 -0.196,0.108 -0.41,0.241 -0.642,0.397 l -0.241,0.163 -0.694,0.468 0.004,-0.861 0.001,-0.299 0.012,-2.597 0.001,-0.1 10e-4,-0.289 0.251,-0.127 0.087,-0.044 c 0.255,-0.13 0.508,-0.242 0.758,-0.336 0.249,-0.094 0.503,-0.174 0.763,-0.238 0.263,-0.064 0.521,-0.112 0.774,-0.142 0.261,-0.031 0.521,-0.046 0.78,-0.044 0.64,0.003 1.214,0.077 1.718,0.218 0.53,0.147 0.981,0.368 1.35,0.656 0.393,0.308 0.691,0.687 0.89,1.132 0.197,0.439 0.296,0.934 0.293,1.48 C 4.924,0.037 4.85,0.441 4.713,0.797 4.573,1.159 4.369,1.466 4.107,1.742 3.867,1.995 3.584,2.215 3.26,2.425 2.94,2.633 2.601,2.823 2.231,3.026 2.034,3.134 1.862,3.228 1.742,3.3 1.616,3.376 1.515,3.443 1.443,3.503 1.428,3.516 1.414,3.528 1.403,3.539 1.451,3.549 1.511,3.554 1.584,3.555 1.734,3.555 1.878,3.536 2.018,3.498 2.165,3.459 2.315,3.398 2.471,3.315 2.642,3.226 2.814,3.115 2.992,2.985 3.177,2.848 3.373,2.687 3.583,2.503 L 3.839,2.278 4.578,1.631 4.573,2.637 4.571,2.986 4.56,5.47 4.559,5.549 4.558,5.778 4.381,5.918 4.32,5.967 C 4.072,6.163 3.819,6.333 3.559,6.477 3.295,6.624 3.025,6.744 2.748,6.839 2.472,6.934 2.187,7.004 1.891,7.049 1.598,7.095 1.297,7.116 0.986,7.115 0.464,7.113 -0.023,7.024 -0.462,6.864 -0.922,6.696 -1.329,6.447 -1.67,6.133 -2.018,5.811 -2.293,5.422 -2.48,4.984 -2.662,4.556 -2.759,4.083 -2.756,3.582 -2.755,3.216 -2.7,2.874 -2.591,2.552 c 0.108,-0.32 0.27,-0.62 0.486,-0.906 0.204,-0.27 0.452,-0.521 0.746,-0.759 0.286,-0.232 0.617,-0.455 0.995,-0.675 L -0.262,0.153 C -0.26,0.152 -0.258,0.151 -0.256,0.149 l 0,0 C -0.215,0.125 -0.18,0.104 -0.149,0.086 L -0.147,0.084 C -0.13,0.074 -0.088,0.05 0,0"
             style="fill:#316dbe;fill-opacity:1;fill-rule:nonzero;stroke:none"
             id="path236"
             inkscape:connector-curvature="0" /></g><g
           id="g238"
           transform="translate(76.8892,671.0837)"><path
             d="m 0,0 -2.038,-0.01 -1.45,-4.591 -0.166,-0.525 -0.249,-0.788 -0.198,0.804 -0.131,0.535 -1.121,4.55 -1.554,-0.007 -1.181,-4.569 -0.138,-0.531 -0.206,-0.799 -0.242,0.788 -0.16,0.525 -1.399,4.57 -2.323,-0.011 2.994,-8.636 1.783,0.008 1.227,4.44 0.157,0.565 0.235,0.85 0.215,-0.856 0.142,-0.57 1.107,-4.415 1.795,0.009 L 0,0 z M -2.319,0.556 0.547,0.57 0.766,0.571 0.694,0.355 -2.479,-9.121 -2.515,-9.23 l -0.109,0 -2.371,-0.011 -0.12,-0.001 -0.031,0.122 -1.04,4.15 -1.152,-4.166 -0.032,-0.117 -0.116,0 -2.346,-0.011 -0.11,0 -0.037,0.108 -3.276,9.445 -0.074,0.216 0.22,0.001 3.158,0.015 0.114,0 0.035,-0.113 1.325,-4.331 1.122,4.336 0.031,0.12 0.118,0.001 2.153,0.01 0.121,0 0.03,-0.122 1.064,-4.321 1.372,4.344 0.035,0.111 0.112,0 z"
             style="fill:#ffffff;fill-opacity:1;fill-rule:nonzero;stroke:none"
             id="path240"
             inkscape:connector-curvature="0" /></g><g
           id="g242"
           transform="translate(81.6107,662.4551)"><path
             d="M 0,0 -0.041,8.65 -2.432,8.639 -2.391,-0.011 0,0 z m 0.502,9.058 0.044,-9.461 0.001,-0.162 -0.155,0 -3.169,-0.015 -0.156,-0.001 0,0.162 -0.045,9.461 0,0.162 0.155,10e-4 3.169,0.015 0.155,0 0.001,-0.162 z"
             style="fill:#ffffff;fill-opacity:1;fill-rule:nonzero;stroke:none"
             id="path244"
             inkscape:connector-curvature="0" /></g><g
           id="g246"
           transform="translate(90.4742,664.7639)"><path
             d="m 0,0 c -0.002,0.336 -0.05,0.614 -0.14,0.851 -0.089,0.233 -0.221,0.431 -0.389,0.609 -0.183,0.193 -0.413,0.368 -0.683,0.543 -0.271,0.175 -0.594,0.355 -0.952,0.552 -0.19,0.104 -0.361,0.198 -0.531,0.301 -0.162,0.098 -0.3,0.191 -0.417,0.288 -0.142,0.119 -0.251,0.243 -0.327,0.382 -0.081,0.148 -0.123,0.308 -0.123,0.489 -0.001,0.162 0.03,0.31 0.093,0.442 0.063,0.133 0.157,0.247 0.282,0.34 0.105,0.078 0.231,0.138 0.377,0.178 0.134,0.036 0.286,0.056 0.454,0.056 0.231,0.001 0.456,-0.029 0.681,-0.089 0.222,-0.059 0.439,-0.147 0.656,-0.261 0.17,-0.089 0.34,-0.194 0.514,-0.316 0.048,-0.033 0.097,-0.069 0.146,-0.105 L -0.365,5.705 C -0.53,5.826 -0.697,5.932 -0.868,6.025 -1.07,6.135 -1.277,6.227 -1.492,6.3 -1.717,6.377 -1.949,6.434 -2.189,6.471 -2.431,6.508 -2.682,6.526 -2.943,6.525 -3.352,6.523 -3.729,6.456 -4.064,6.335 -4.406,6.211 -4.705,6.03 -4.95,5.804 -5.191,5.581 -5.381,5.313 -5.51,5.01 -5.635,4.715 -5.701,4.385 -5.7,4.03 -5.698,3.78 -5.662,3.549 -5.59,3.335 -5.517,3.119 -5.409,2.918 -5.264,2.727 -5.111,2.524 -4.915,2.329 -4.678,2.137 -4.437,1.943 -4.15,1.751 -3.819,1.558 l 0.01,-0.006 0.007,-0.005 c 0.05,-0.03 0.12,-0.071 0.198,-0.117 0.147,-0.085 0.17,-0.099 0.199,-0.115 0.303,-0.174 0.552,-0.317 0.733,-0.48 0.217,-0.195 0.34,-0.411 0.341,-0.707 10e-4,-0.176 -0.034,-0.335 -0.104,-0.475 -0.071,-0.142 -0.176,-0.261 -0.315,-0.356 -0.117,-0.08 -0.257,-0.14 -0.418,-0.179 -0.152,-0.037 -0.324,-0.056 -0.515,-0.058 -0.184,0 -0.379,0.023 -0.583,0.068 -0.202,0.045 -0.413,0.113 -0.634,0.202 -0.181,0.074 -0.367,0.161 -0.557,0.261 -0.076,0.04 -0.154,0.084 -0.234,0.13 l 0.007,-1.622 c 0.162,-0.075 0.323,-0.143 0.484,-0.202 0.208,-0.077 0.413,-0.14 0.614,-0.19 0.215,-0.053 0.433,-0.093 0.655,-0.119 0.218,-0.025 0.44,-0.038 0.667,-0.037 0.552,0.003 1.036,0.063 1.452,0.177 0.413,0.113 0.756,0.277 1.027,0.489 0.261,0.204 0.458,0.456 0.589,0.749 C -0.064,-0.736 0.002,-0.39 0,0 M -0.144,1.858 C 0.295,1.395 0.54,0.832 0.544,0.003 0.549,-0.954 0.208,-1.714 -0.459,-2.235 -1.101,-2.737 -2.041,-3.01 -3.262,-3.016 c -0.488,-0.002 -0.969,0.055 -1.449,0.173 -0.478,0.118 -0.952,0.296 -1.429,0.539 l -0.086,0.044 -0.001,0.1 -0.012,2.597 -0.001,0.299 0.241,-0.162 c 0.468,-0.316 0.901,-0.556 1.294,-0.715 0.38,-0.154 0.721,-0.233 1.02,-0.231 0.289,0.001 0.502,0.05 0.637,0.142 0.116,0.079 0.173,0.198 0.173,0.355 -0.002,0.241 -0.309,0.417 -0.791,0.695 -0.127,0.072 -0.265,0.152 -0.416,0.243 l 0,0 c -0.715,0.416 -1.249,0.839 -1.608,1.314 -0.368,0.486 -0.551,1.021 -0.554,1.651 -0.004,0.884 0.342,1.652 0.935,2.2 0.583,0.538 1.403,0.86 2.363,0.864 0.579,0.003 1.115,-0.079 1.622,-0.253 0.507,-0.173 0.983,-0.438 1.44,-0.8 l 0.062,-0.048 0,-0.08 L 0.19,3.428 0.191,3.078 -0.065,3.303 C -0.5,3.684 -0.888,3.978 -1.263,4.175 -1.627,4.366 -1.98,4.466 -2.353,4.464 -2.588,4.463 -2.762,4.417 -2.873,4.335 -2.97,4.263 -3.019,4.155 -3.018,4.018 c 10e-4,-0.165 0.084,-0.297 0.247,-0.433 0.187,-0.157 0.479,-0.319 0.86,-0.528 0.739,-0.406 1.34,-0.749 1.767,-1.199"
             style="fill:#ffffff;fill-opacity:1;fill-rule:nonzero;stroke:none"
             id="path248"
             inkscape:connector-curvature="0" /></g><g
           id="g250"
           transform="translate(100.2325,664.57)"><path
             d="m 0,0 0.011,-2.433 0.001,-0.162 -0.155,-10e-4 -6.761,-0.031 -0.155,-0.001 -10e-4,0.162 -0.012,2.624 -0.291,-0.202 -0.24,-0.167 -0.001,0.301 -0.011,2.255 0,0.087 0.069,0.049 0.461,0.319 -0.019,4.195 -0.001,0.162 0.155,0.001 3.133,0.014 0.155,0.001 10e-4,-0.162 0.011,-2.396 1.303,0.901 0.24,0.165 0.001,-0.299 0.011,-2.267 0,-0.088 -0.07,-0.048 -1.473,-1.018 0.009,-1.816 3.473,0.016 0.155,0.001 L 0,0 z m -0.535,-2.03 -0.007,1.622 -3.24,-0.015 -0.155,-0.001 -0.234,-0.001 -10e-4,0.244 -0.001,0.162 -0.009,2.065 -10e-4,0.087 0,0.131 0.105,0.073 0.07,0.049 1.368,0.944 -0.006,1.299 -0.943,-0.652 0,0 -0.239,-0.166 -0.361,-0.249 -0.002,0.451 -0.002,0.3 -0.011,2.29 -2.354,-0.011 0.018,-3.877 0,-0.087 0.001,-0.131 -0.105,-0.073 -0.069,-0.048 -0.356,-0.247 0.006,-1.283 0.169,0.118 0.361,0.25 0.002,-0.452 0.002,-0.301 0.011,-2.519 5.983,0.028 z"
             style="fill:#ffffff;fill-opacity:1;fill-rule:evenodd;stroke:none"
             id="path252"
             inkscape:connector-curvature="0" /></g><g
           id="g254"
           transform="translate(108.4905,671.704)"><path
             d="M 0,0 4.181,-9.442 4.282,-9.67 4.041,-9.672 0.884,-9.686 0.778,-9.687 0.739,-9.583 0.166,-8.063 -3.737,-8.082 -4.331,-9.61 -4.37,-9.711 l -0.104,0 -3.17,-0.015 -0.244,-10e-4 0.102,0.23 4.191,9.481 0.042,0.094 0.098,0.001 3.314,0.015 0.099,0.001 L 0,0 z m 3.435,-9.107 -3.822,8.633 -2.82,-0.013 -3.831,-8.669 2.303,0.011 0.535,1.377 0.039,0.101 0.059,0.151 0.156,0.001 0.103,0 4.112,0.02 0.106,0 0.159,0.001 0.059,-0.156 0.039,-0.103 0.514,-1.365 2.289,0.011 z"
             style="fill:#ffffff;fill-opacity:1;fill-rule:evenodd;stroke:none"
             id="path256"
             inkscape:connector-curvature="0" /></g><g
           id="g258"
           transform="translate(106.6787,668.6793)"><path
             d="M 0,0 -1.016,-2.673 1.021,-2.664 0,0 z m 1.566,-3.25 -3.127,-0.015 -0.267,-10e-4 -0.042,0 0.016,0.04 0.1,0.258 1.573,4.048 0.167,0.429 0.026,0.066 0.025,-0.066 0.166,-0.43 1.554,-4.033 0.099,-0.255 0.015,-0.04 -0.041,0 -0.264,-10e-4 z"
             style="fill:#ffffff;fill-opacity:1;fill-rule:nonzero;stroke:none"
             id="path260"
             inkscape:connector-curvature="0" /></g><g
           id="g262"
           transform="translate(75.5913,653.968)"><path
             d="m 0,0 c -0.003,0.551 -0.188,0.96 -0.558,1.227 -0.395,0.284 -1.001,0.424 -1.818,0.42 l -2.422,-0.012 0.026,-5.549 1.551,0.007 -0.009,1.917 -10e-4,0.228 0.218,0.001 0.676,0.003 c 0.8,0.004 1.395,0.161 1.783,0.463 C -0.183,-1.006 0.003,-0.571 0,0 m -3.213,-0.767 -0.007,1.47 c 0.761,-0.006 1.048,-0.157 1.065,-0.672 0.018,-0.515 -0.231,-0.779 -1.058,-0.798"
             style="fill:#ffffff;fill-opacity:1;fill-rule:nonzero;stroke:none"
             id="path264"
             inkscape:connector-curvature="0" /></g><g
           id="g266"
           transform="translate(83.8147,643.809)"><path
             d="m 0,0 0,-0.029 c 0,-0.196 0.058,-0.349 0.172,-0.462 0.114,-0.112 0.269,-0.168 0.464,-0.168 0.233,0 0.409,0.04 0.528,0.119 0.118,0.079 0.177,0.195 0.177,0.35 0,0.22 -0.252,0.393 -0.757,0.518 -0.118,0.029 -0.208,0.052 -0.27,0.067 -0.57,0.153 -0.955,0.325 -1.154,0.516 -0.199,0.193 -0.299,0.461 -0.299,0.807 0,0.379 0.165,0.687 0.495,0.926 0.33,0.238 0.768,0.357 1.313,0.357 0.579,0 1.016,-0.106 1.311,-0.319 C 2.275,2.469 2.422,2.153 2.422,1.735 l 0,-0.073 -1.201,0 0,0.021 C 1.221,1.86 1.174,1.996 1.082,2.089 0.989,2.182 0.852,2.228 0.675,2.228 0.501,2.228 0.361,2.187 0.255,2.105 0.15,2.023 0.097,1.915 0.097,1.782 0.097,1.566 0.413,1.382 1.045,1.231 1.213,1.192 1.344,1.16 1.438,1.135 1.834,1.031 2.125,0.88 2.311,0.681 2.496,0.483 2.589,0.224 2.589,-0.097 c 0,-0.441 -0.17,-0.78 -0.51,-1.015 -0.34,-0.236 -0.832,-0.354 -1.478,-0.354 -0.586,0 -1.032,0.125 -1.339,0.375 -0.307,0.251 -0.46,0.614 -0.46,1.091 L 0,0 z m 4.455,0.991 0.533,0 c 0.256,0 0.446,0.047 0.568,0.141 0.122,0.093 0.183,0.239 0.183,0.436 0,0.193 -0.06,0.334 -0.18,0.423 C 5.439,2.08 5.248,2.124 4.988,2.124 l -0.533,0 0,-1.133 z m -1.201,-2.384 0,4.323 1.98,0 C 5.8,2.93 6.227,2.813 6.517,2.58 6.807,2.347 6.952,2.003 6.952,1.55 6.952,1.107 6.808,0.761 6.521,0.514 6.234,0.267 5.834,0.143 5.32,0.143 l -0.865,0 0,-1.536 -1.201,0 z m 5.492,2.463 0.471,0 c 0.271,0 0.462,0.04 0.571,0.12 C 9.896,1.27 9.95,1.41 9.95,1.609 9.95,1.79 9.896,1.92 9.788,1.999 9.679,2.078 9.497,2.118 9.244,2.118 l -0.498,0 0,-1.048 z m -1.184,-2.463 0,4.323 1.951,0 c 0.536,0 0.939,-0.093 1.209,-0.28 0.271,-0.186 0.406,-0.463 0.406,-0.83 0,-0.301 -0.088,-0.543 -0.265,-0.725 C 10.686,0.911 10.434,0.798 10.108,0.756 l 0,-0.024 c 0.241,0 0.429,-0.049 0.564,-0.148 0.136,-0.099 0.235,-0.261 0.298,-0.488 0.019,-0.066 0.053,-0.267 0.101,-0.602 0.048,-0.335 0.109,-0.63 0.183,-0.887 l -1.292,0 c -0.037,0.209 -0.072,0.45 -0.103,0.72 -0.031,0.271 -0.052,0.437 -0.064,0.5 C 9.764,-0.011 9.703,0.104 9.615,0.172 9.526,0.241 9.389,0.275 9.206,0.275 l -0.46,0 0,-1.668 -1.184,0 z"
             style="fill:#2553ac;fill-opacity:1;fill-rule:nonzero;stroke:none"
             id="path268"
             inkscape:connector-curvature="0" /></g><g
           id="g270"
           transform="translate(67.2586,658.4246)"><path
             d="m 0,0 c -0.006,1.463 0.32,-24.511 0.341,-29.047 0.58,-6.288 1.764,-8.793 6.469,-11.816 l 7.683,-4.936 -0.174,37.023 0.93,0.005 0.219,0.001 -10e-4,0.227 -0.007,1.545 -0.002,0.227 -0.218,-0.001 -0.93,-0.004 -0.046,9.773 0.482,0.002 0.155,10e-4 0.447,0.002 -0.002,0.466 -10e-4,0.162 -0.044,9.461 -10e-4,0.162 -0.002,0.466 -0.447,-0.002 -0.155,-0.001 -0.482,-0.002 -0.036,7.825 C 9.206,19.912 3.689,19.315 -1.343,16.358 L -7.495,16.329 -7.578,2.321 C -4.976,1.905 -4.276,-0.297 0,0 M 8.333,-4.457 C 8.335,-5.028 8.15,-5.463 7.778,-5.752 7.391,-6.053 6.796,-6.211 5.996,-6.215 L 5.32,-6.218 5.102,-6.219 5.103,-6.447 5.112,-8.363 3.56,-8.37 3.534,-2.821 5.957,-2.81 C 6.774,-2.806 7.38,-2.946 7.774,-3.23 8.144,-3.497 8.33,-3.905 8.333,-4.457 M 10.325,13.014 7.152,3.538 7.116,3.429 7.006,3.429 4.636,3.418 4.515,3.417 4.485,3.539 3.444,7.689 2.292,3.523 2.26,3.407 2.144,3.406 -0.202,3.395 l -0.109,0 -0.038,0.108 -3.275,9.446 -0.075,0.215 0.22,10e-4 3.159,0.015 0.114,0 0.034,-0.113 1.326,-4.331 1.122,4.336 0.031,0.12 0.118,10e-4 2.153,0.01 0.121,0 0.03,-0.122 1.064,-4.321 1.372,4.344 0.035,0.111 0.111,10e-4 2.866,0.013 0.22,0.001 -0.072,-0.216 z m 4.703,-21.331 -3.853,-0.018 -0.008,1.629 -0.002,0.423 -0.337,-0.234 -0.004,0.885 0.239,0.166 0.098,0.068 -10e-4,0.123 -0.011,2.489 1.551,0.008 0.007,-1.483 0.002,-0.422 0.336,0.233 0.643,0.444 0.004,-0.895 -0.881,-0.608 -0.098,-0.069 0,-0.122 0.006,-1.311 0.001,-0.228 0.219,10e-4 2.084,0.01 0.005,-1.089 z M 14.744,3.465 11.575,3.45 l -0.156,0 0,0.162 -0.045,9.461 0,0.162 0.155,0 3.169,0.015 0.155,10e-4 10e-4,-0.162 0.044,-9.461 10e-4,-0.162 -0.155,-0.001 z"
             style="fill:#1862a6;fill-opacity:1;fill-rule:evenodd;stroke:none"
             id="path272"
             inkscape:connector-curvature="0" /></g><g
           id="g274"
           transform="translate(67.2586,658.4246)"><path
             d="m 0,0 c -0.006,1.463 0.32,-24.511 0.341,-29.047 0.58,-6.288 1.764,-8.793 6.469,-11.816 l 7.683,-4.936 -0.174,37.023 0.93,0.005 0.219,0.001 -10e-4,0.227 -0.007,1.545 -0.002,0.227 -0.218,-0.001 -0.93,-0.004 -0.046,9.773 0.482,0.002 0.155,10e-4 0.447,0.002 -0.002,0.466 -10e-4,0.162 -0.044,9.461 -10e-4,0.162 -0.002,0.466 -0.447,-0.002 -0.155,-0.001 -0.482,-0.002 -0.036,7.825 C 9.206,19.912 3.689,19.315 -1.343,16.358 L -7.495,16.329 -7.578,2.321 C -4.976,1.905 -4.276,-0.297 0,0 z M 8.333,-4.457 C 8.335,-5.028 8.15,-5.463 7.778,-5.752 7.391,-6.053 6.796,-6.211 5.996,-6.215 L 5.32,-6.218 5.102,-6.219 5.103,-6.447 5.112,-8.363 3.56,-8.37 3.534,-2.821 5.957,-2.81 C 6.774,-2.806 7.38,-2.946 7.774,-3.23 8.144,-3.497 8.33,-3.905 8.333,-4.457 z M 10.325,13.014 7.152,3.538 7.116,3.429 7.006,3.429 4.636,3.418 4.515,3.417 4.485,3.539 3.444,7.689 2.292,3.523 2.26,3.407 2.144,3.406 -0.202,3.395 l -0.109,0 -0.038,0.108 -3.275,9.446 -0.075,0.215 0.22,10e-4 3.159,0.015 0.114,0 0.034,-0.113 1.326,-4.331 1.122,4.336 0.031,0.12 0.118,10e-4 2.153,0.01 0.121,0 0.03,-0.122 1.064,-4.321 1.372,4.344 0.035,0.111 0.111,10e-4 2.866,0.013 0.22,0.001 -0.072,-0.216 z m 4.703,-21.331 -3.853,-0.018 -0.008,1.629 -0.002,0.423 -0.337,-0.234 -0.004,0.885 0.239,0.166 0.098,0.068 -10e-4,0.123 -0.011,2.489 1.551,0.008 0.007,-1.483 0.002,-0.422 0.336,0.233 0.643,0.444 0.004,-0.895 -0.881,-0.608 -0.098,-0.069 0,-0.122 0.006,-1.311 0.001,-0.228 0.219,10e-4 2.084,0.01 0.005,-1.089 z M 14.744,3.465 11.575,3.45 l -0.156,0 0,0.162 -0.045,9.461 0,0.162 0.155,0 3.169,0.015 0.155,10e-4 10e-4,-0.162 0.044,-9.461 10e-4,-0.162 -0.155,-0.001 z"
             style="fill:none;stroke:#1862a6;stroke-width:0.248;stroke-linecap:butt;stroke-linejoin:miter;stroke-miterlimit:22.9260006;stroke-opacity:1;stroke-dasharray:none"
             id="path276"
             inkscape:connector-curvature="0" /></g><g
           id="g278"
           transform="translate(85.8938,642.6966)"><path
             d="m 0,0 c 0.34,0.235 0.51,0.574 0.51,1.015 0,0.322 -0.093,0.581 -0.278,0.779 -0.186,0.198 -0.477,0.349 -0.873,0.453 -0.094,0.025 -0.226,0.057 -0.394,0.096 -0.631,0.151 -0.947,0.335 -0.947,0.551 0,0.133 0.053,0.241 0.158,0.323 0.106,0.082 0.246,0.123 0.42,0.123 0.177,0 0.313,-0.046 0.407,-0.139 0.091,-0.093 0.138,-0.229 0.138,-0.406 l 0,-0.021 1.202,0 0,0.073 c 0,0.418 -0.147,0.735 -0.442,0.948 -0.295,0.213 -0.733,0.319 -1.311,0.319 -0.545,0 -0.983,-0.119 -1.313,-0.357 -0.331,-0.239 -0.496,-0.548 -0.496,-0.927 0,-0.346 0.101,-0.614 0.3,-0.806 0.199,-0.191 0.584,-0.363 1.154,-0.516 l 0.27,-0.067 c 0.504,-0.125 0.757,-0.299 0.757,-0.519 0,-0.155 -0.059,-0.271 -0.177,-0.35 -0.12,-0.079 -0.295,-0.119 -0.528,-0.119 -0.195,0 -0.35,0.056 -0.464,0.168 -0.114,0.113 -0.172,0.266 -0.172,0.462 l 0,0.03 -1.199,0 c 0,-0.478 0.153,-0.841 0.461,-1.091 0.307,-0.25 0.753,-0.375 1.339,-0.375 0.646,0 1.138,0.118 1.478,0.353"
             style="fill:#1862a6;fill-opacity:1;fill-rule:evenodd;stroke:none"
             id="path280"
             inkscape:connector-curvature="0" /></g><g
           id="g282"
           transform="translate(85.8938,642.6966)"><path
             d="m 0,0 c 0.34,0.235 0.51,0.574 0.51,1.015 0,0.322 -0.093,0.581 -0.278,0.779 -0.186,0.198 -0.477,0.349 -0.873,0.453 -0.094,0.025 -0.226,0.057 -0.394,0.096 -0.631,0.151 -0.947,0.335 -0.947,0.551 0,0.133 0.053,0.241 0.158,0.323 0.106,0.082 0.246,0.123 0.42,0.123 0.177,0 0.313,-0.046 0.407,-0.139 0.091,-0.093 0.138,-0.229 0.138,-0.406 l 0,-0.021 1.202,0 0,0.073 c 0,0.418 -0.147,0.735 -0.442,0.948 -0.295,0.213 -0.733,0.319 -1.311,0.319 -0.545,0 -0.983,-0.119 -1.313,-0.357 -0.331,-0.239 -0.496,-0.548 -0.496,-0.927 0,-0.346 0.101,-0.614 0.3,-0.806 0.199,-0.191 0.584,-0.363 1.154,-0.516 l 0.27,-0.067 c 0.504,-0.125 0.757,-0.299 0.757,-0.519 0,-0.155 -0.059,-0.271 -0.177,-0.35 -0.12,-0.079 -0.295,-0.119 -0.528,-0.119 -0.195,0 -0.35,0.056 -0.464,0.168 -0.114,0.113 -0.172,0.266 -0.172,0.462 l 0,0.03 -1.199,0 c 0,-0.478 0.153,-0.841 0.461,-1.091 0.307,-0.25 0.753,-0.375 1.339,-0.375 0.646,0 1.138,0.118 1.478,0.353 z"
             style="fill:none;stroke:#1862a6;stroke-width:0.248;stroke-linecap:butt;stroke-linejoin:miter;stroke-miterlimit:22.9260006;stroke-opacity:1;stroke-dasharray:none"
             id="path284"
             inkscape:connector-curvature="0" /></g><g
           id="g286"
           transform="translate(87.0682,646.7394)"><path
             d="m 0,0 0,-4.323 1.202,0 0,1.536 0.864,0 c 0.514,0 0.914,0.124 1.202,0.371 0.287,0.247 0.431,0.592 0.431,1.035 0,0.454 -0.145,0.798 -0.435,1.031 C 2.973,-0.117 2.546,0 1.981,0 L 0,0 z m 1.735,-1.94 -0.533,0 0,1.134 0.533,0 c 0.26,0 0.45,-0.044 0.57,-0.133 0.12,-0.089 0.18,-0.23 0.18,-0.424 0,-0.197 -0.061,-0.343 -0.183,-0.436 C 2.18,-1.893 1.991,-1.94 1.735,-1.94"
             style="fill:#1862a6;fill-opacity:1;fill-rule:evenodd;stroke:none"
             id="path288"
             inkscape:connector-curvature="0" /></g><g
           id="g290"
           transform="translate(87.0682,646.7394)"><path
             d="m 0,0 0,-4.323 1.202,0 0,1.536 0.864,0 c 0.514,0 0.914,0.124 1.202,0.371 0.287,0.247 0.431,0.592 0.431,1.035 0,0.454 -0.145,0.798 -0.435,1.031 C 2.973,-0.117 2.546,0 1.981,0 L 0,0 z m 1.735,-1.94 -0.533,0 0,1.134 0.533,0 c 0.26,0 0.45,-0.044 0.57,-0.133 0.12,-0.089 0.18,-0.23 0.18,-0.424 0,-0.197 -0.061,-0.343 -0.183,-0.436 C 2.18,-1.893 1.991,-1.94 1.735,-1.94 z"
             style="fill:none;stroke:#1862a6;stroke-width:0.248;stroke-linecap:butt;stroke-linejoin:miter;stroke-miterlimit:22.9260006;stroke-opacity:1;stroke-dasharray:none"
             id="path292"
             inkscape:connector-curvature="0" /></g><g
           id="g294"
           transform="translate(91.3762,646.7394)"><path
             d="m 0,0 0,-4.323 1.185,0 0,1.668 0.46,0 c 0.183,0 0.319,-0.034 0.408,-0.103 0.089,-0.068 0.149,-0.183 0.18,-0.345 0.012,-0.063 0.033,-0.23 0.064,-0.501 0.031,-0.27 0.066,-0.51 0.103,-0.719 l 1.293,0 C 3.619,-4.067 3.558,-3.772 3.51,-3.436 3.462,-3.101 3.428,-2.9 3.409,-2.834 3.346,-2.607 3.247,-2.445 3.111,-2.346 2.975,-2.247 2.787,-2.198 2.546,-2.198 l 0,0.024 c 0.326,0.042 0.579,0.155 0.756,0.338 0.177,0.182 0.265,0.424 0.265,0.726 0,0.367 -0.135,0.644 -0.406,0.83 C 2.89,-0.093 2.487,0 1.952,0 L 0,0 z m 1.656,-1.861 -0.471,0 0,1.049 0.498,0 c 0.253,0 0.434,-0.04 0.543,-0.119 0.108,-0.079 0.162,-0.209 0.162,-0.391 0,-0.199 -0.054,-0.339 -0.162,-0.419 -0.109,-0.08 -0.299,-0.12 -0.57,-0.12"
             style="fill:#1862a6;fill-opacity:1;fill-rule:evenodd;stroke:none"
             id="path296"
             inkscape:connector-curvature="0" /></g><g
           id="g298"
           transform="translate(91.3762,646.7394)"><path
             d="m 0,0 0,-4.323 1.185,0 0,1.668 0.46,0 c 0.183,0 0.319,-0.034 0.408,-0.103 0.089,-0.068 0.149,-0.183 0.18,-0.345 0.012,-0.063 0.033,-0.23 0.064,-0.501 0.031,-0.27 0.066,-0.51 0.103,-0.719 l 1.293,0 C 3.619,-4.067 3.558,-3.772 3.51,-3.436 3.462,-3.101 3.428,-2.9 3.409,-2.834 3.346,-2.607 3.247,-2.445 3.111,-2.346 2.975,-2.247 2.787,-2.198 2.546,-2.198 l 0,0.024 c 0.326,0.042 0.579,0.155 0.756,0.338 0.177,0.182 0.265,0.424 0.265,0.726 0,0.367 -0.135,0.644 -0.406,0.83 C 2.89,-0.093 2.487,0 1.952,0 L 0,0 z m 1.656,-1.861 -0.471,0 0,1.049 0.498,0 c 0.253,0 0.434,-0.04 0.543,-0.119 0.108,-0.079 0.162,-0.209 0.162,-0.391 0,-0.199 -0.054,-0.339 -0.162,-0.419 -0.109,-0.08 -0.299,-0.12 -0.57,-0.12 z"
             style="fill:none;stroke:#1862a6;stroke-width:0.248;stroke-linecap:butt;stroke-linejoin:miter;stroke-miterlimit:22.9260006;stroke-opacity:1;stroke-dasharray:none"
             id="path300"
             inkscape:connector-curvature="0" /></g></g></g><g
       id="g306"><g
         id="g308"
         clip-path="url(#clipPath310)"><g
           id="g314"><g
             id="g316"><g
               id="g318"
               clip-path="url(#clipPath320)"><path
                 d="m 74.115,419.424 c -5.306,-0.678 -10.754,-1.989 -16.35,-3.915 l 0,0 C 52.584,399.61 52.559,384.738 57.522,372.326 l 0,0 c 4.63,-11.588 14.158,-19.579 27.457,-25.444 l 0,0 0.139,2.556 c -11.034,4.999 -20.739,12.173 -25.375,23.775 l 0,0 c -5.176,12.945 -4.135,27.324 -0.067,40.417 l 0,0 c 4.796,1.585 9.728,2.78 14.74,3.421 l 0,0 c 3.172,0.405 6.36,0.601 9.55,0.601 l 0,0 c 1.583,0 3.167,-0.048 4.751,-0.143 l 0,0 0.002,0.044 c 0.033,-0.002 0.065,-0.003 0.097,-0.005 l 0,0 0.127,2.342 c 0.104,-0.007 0.208,-0.013 0.312,-0.019 l 0,0 c -1.755,0.113 -3.525,0.173 -5.311,0.173 l 0,0 c -3.226,0 -6.503,-0.195 -9.829,-0.62 m 42.864,-49.152 c 5.803,11.583 7.191,25.952 3.869,41.812 l 0,0 c 3.32,-15.86 1.934,-30.229 -3.869,-41.812 m -0.208,-0.411 c 0.07,0.137 0.139,0.274 0.208,0.411 l 0,0 c -0.069,-0.137 -0.138,-0.274 -0.208,-0.411 m -0.363,-0.693 c 0.122,0.23 0.244,0.461 0.363,0.693 l 0,0 c -0.119,-0.232 -0.241,-0.463 -0.363,-0.693 m -11.873,-13.449 c 4.98,3.621 8.977,8.024 11.873,13.449 l 0,0 c -2.897,-5.425 -6.892,-9.827 -11.873,-13.449"
                 style="fill:url(#linearGradient324);stroke:none"
                 id="path332"
                 inkscape:connector-curvature="0" /></g></g></g></g></g><g
       id="g334"><g
         id="g336"
         clip-path="url(#clipPath338)"><g
           id="g342"><g
             id="g344"><g
               id="g346"
               clip-path="url(#clipPath348)"><path
                 d="m 88.816,417.548 c 0.186,-0.012 0.371,-0.024 0.556,-0.035 l 0,0 0.034,-0.004 0.037,-0.003 c 5.03,-0.199 10.018,-0.855 14.918,-2.026 l 0,0 c 4.917,-1.178 9.691,-2.908 14.29,-5.006 l 0,0 c 0.001,-0.003 0.001,-0.006 0.001,-0.009 l 0,0 c 0.031,-0.014 0.062,-0.027 0.092,-0.042 l 0,0 c 2.622,-13.434 2.111,-27.846 -4.447,-40.129 l 0,0 c -5.991,-11.222 -16.84,-17.247 -28.522,-21.151 l 0,0 c -0.22,0.097 -0.439,0.196 -0.657,0.295 l 0,0 -0.139,-2.556 0,-0.003 0.674,-0.294 c 7.296,2.367 13.635,5.318 18.882,9.134 l 0,0 c 4.981,3.622 8.976,8.024 11.873,13.449 l 0,0 c 6.28,11.769 7.866,26.548 4.44,42.916 l 0,0 c -5.363,2.529 -10.633,4.425 -15.837,5.67 l 0,0 c -5.197,1.242 -10.324,1.893 -15.379,2.091 l 0,0 c -0.126,0.009 -0.251,0.018 -0.377,0.026 l 0,0 c -0.104,0.006 -0.208,0.012 -0.312,0.019 l 0,0 -0.127,-2.342 z"
                 style="fill:url(#linearGradient352);stroke:none"
                 id="path360"
                 inkscape:connector-curvature="0" /></g></g></g></g></g><g
       id="g362"><g
         id="g364"
         clip-path="url(#clipPath366)"><g
           id="g370"><g
             id="g372"><g
               id="g374"
               clip-path="url(#clipPath376)"><path
                 d="m 74.416,417.051 c -5.012,-0.641 -9.944,-1.836 -14.74,-3.421 l 0,0 c -4.068,-13.093 -5.109,-27.472 0.067,-40.417 l 0,0 c 4.636,-11.602 14.341,-18.776 25.375,-23.775 l 0,0 c 0.218,-0.099 0.437,-0.198 0.657,-0.295 l 0,0 c 11.682,3.904 22.531,9.929 28.522,21.151 l 0,0 c 6.558,12.283 7.069,26.695 4.447,40.129 l 0,0 c -0.03,0.015 -0.061,0.028 -0.092,0.042 l 0,0 c 2.619,-13.432 2.106,-27.838 -4.449,-40.119 l 0,0 c -5.99,-11.224 -16.838,-17.248 -28.525,-21.152 l 0,0 c -0.218,0.099 -0.436,0.195 -0.653,0.296 l 0,0 0.132,2.445 c -10.119,4.712 -19.062,11.403 -23.345,22.118 l 0,0 c -4.805,12.031 -3.963,25.4 -0.359,37.638 l 0,0 c 4.279,1.349 8.666,2.372 13.117,2.941 l 0,0 c 3.075,0.392 6.164,0.582 9.255,0.582 l 0,0 c 1.586,0 3.174,-0.05 4.759,-0.148 l 0,0 0.133,2.443 c -1.584,0.095 -3.168,0.143 -4.751,0.143 l 0,0 c -3.19,0 -6.378,-0.196 -9.55,-0.601"
                 style="fill:url(#linearGradient380);stroke:none"
                 id="path388"
                 inkscape:connector-curvature="0" /></g></g></g></g></g><g
       id="g390"><g
         id="g392"
         clip-path="url(#clipPath394)"><g
           id="g398"><g
             id="g400"><g
               id="g402"
               clip-path="url(#clipPath404)"><path
                 d="m 88.717,417.509 -0.133,-2.443 c 0.189,-0.012 0.377,-0.024 0.566,-0.037 l 0,0 0.071,-0.007 0.071,-0.002 c 4.876,-0.193 9.711,-0.831 14.458,-1.965 l 0,0 c 4.366,-1.044 8.617,-2.54 12.724,-4.35 l 0,0 c 2.254,-12.535 1.657,-25.92 -4.435,-37.332 l 0,0 c -5.531,-10.362 -15.553,-16.007 -26.293,-19.71 l 0,0 c -0.197,0.09 -0.393,0.18 -0.589,0.272 l 0,0 -0.132,-2.445 c 0.217,-0.101 0.435,-0.197 0.653,-0.296 l 0,0 c 11.687,3.904 22.535,9.928 28.525,21.152 l 0,0 c 6.555,12.281 7.068,26.687 4.449,40.119 l 0,0 c 0,0.003 0,0.006 -0.001,0.009 l 0,0 c -4.599,2.098 -9.373,3.828 -14.29,5.006 l 0,0 c -4.9,1.171 -9.888,1.827 -14.918,2.026 l 0,0 -0.037,0.003 -0.034,0.004 c -0.185,0.011 -0.37,0.023 -0.556,0.035 l 0,0 c -0.032,0.002 -0.064,0.003 -0.097,0.005 l 0,0 -0.002,-0.044 z"
                 style="fill:url(#linearGradient408);stroke:none"
                 id="path416"
                 inkscape:connector-curvature="0" /></g></g></g></g></g><g
       id="g418"><g
         id="g420"
         clip-path="url(#clipPath422)"><g
           id="g426"><g
             id="g428"><g
               id="g430"
               clip-path="url(#clipPath432)"><path
                 d="m 74.57,414.632 c -4.451,-0.569 -8.838,-1.592 -13.117,-2.941 l 0,0 c -3.604,-12.238 -4.446,-25.607 0.359,-37.638 l 0,0 c 4.283,-10.715 13.226,-17.406 23.345,-22.118 l 0,0 c 0.196,-0.092 0.392,-0.182 0.589,-0.272 l 0,0 c 10.74,3.703 20.762,9.348 26.293,19.71 l 0,0 c 6.092,11.412 6.689,24.797 4.435,37.332 l 0,0 c -4.107,1.81 -8.358,3.306 -12.724,4.35 l 0,0 c -4.747,1.134 -9.582,1.772 -14.458,1.965 l 0,0 -0.071,0.002 -0.071,0.007 c -0.189,0.013 -0.377,0.025 -0.566,0.037 l 0,0 c -1.585,0.098 -3.173,0.148 -4.759,0.148 l 0,0 c -3.091,0 -6.18,-0.19 -9.255,-0.582 M 61.6,411.427 c 4.279,1.346 8.667,2.371 13.118,2.94 l 0,0 c 3.072,0.393 6.157,0.582 9.246,0.582 l 0,0 c 1.777,0 3.557,-0.063 5.335,-0.187 l 0,0 0.069,-0.004 0.071,-0.003 c 3.93,-0.157 7.831,-0.6 11.682,-1.361 l 0,0 c -3.679,-1.348 -7.564,-2.898 -11.655,-4.682 l 0,0 c -15.181,-6.628 -24.669,-14.9 -30.574,-22.175 l 0,0 c -0.835,8.316 0.341,16.849 2.708,24.89"
                 style="fill:url(#radialGradient436);stroke:none"
                 id="path442"
                 inkscape:connector-curvature="0" /></g></g></g></g></g><g
       id="g444"><g
         id="g446"
         clip-path="url(#clipPath448)"><g
           id="g452"><g
             id="g454"><g
               id="g456"
               clip-path="url(#clipPath458)"><path
                 d="m 74.718,414.367 c -4.451,-0.569 -8.839,-1.594 -13.118,-2.94 l 0,0 c -2.367,-8.041 -3.543,-16.574 -2.708,-24.89 l 0,0 c 5.905,7.275 15.393,15.547 30.574,22.175 l 0,0 c 4.091,1.784 7.976,3.334 11.655,4.682 l 0,0 c -3.851,0.761 -7.752,1.204 -11.682,1.361 l 0,0 -0.071,0.003 -0.069,0.004 c -1.778,0.124 -3.558,0.187 -5.335,0.187 l 0,0 c -3.089,0 -6.174,-0.189 -9.246,-0.582"
                 style="fill:url(#radialGradient462);stroke:none"
                 id="path468"
                 inkscape:connector-curvature="0" /></g></g></g></g></g></g></svg>