<?xml version="1.0" encoding="UTF-8" standalone="no"?>
<!-- Created with Inkscape (http://www.inkscape.org/) -->
<svg id="svg2" xmlns="http://www.w3.org/2000/svg" xml:space="preserve" height="250" width="250" version="1.0"><path id="Circle-Copper-Outside" fill="#ec7404" d="m125 7.1054e-15c-69.041 0-125 55.968-125 125-0.0018575 69.03 55.959 125 125 125 69.03 0 125-55.97 125-125 0-69.032-55.97-125-125-125"/><path id="Circle-White-Outside" fill="#fff" d="m125 3.7616c-66.97 0-121.25 54.278-121.25 121.24 0.0013 66.96 54.28 121.25 121.25 121.25 66.96-0.01 121.24-54.29 121.24-121.25s-54.28-121.24-121.24-121.24"/><path id="Stripes-Copper" fill="#ec7404" d="m124.99 11.655c54.66 0 100.42 38.896 111.03 90.455l2.38-0.55c-10.87-52.659-57.58-92.357-113.41-92.357-55.763-0.0001-102.45 39.631-113.38 92.207l2.389 0.56c10.669-51.501 56.387-90.315 110.99-90.315m0 8.589c50.6 0 92.94 36.057 102.66 83.816l2.39-0.56c-9.99-48.833-53.29-85.701-105.05-85.701-51.699 0-94.972 36.793-105.01 85.561l2.385 0.57c9.785-47.703 52.085-83.686 102.62-83.686m0.01 7.957c46.84 0 86.01 33.428 94.91 77.679l2.39-0.56c-9.16-45.333-49.31-79.563-97.3-79.563-47.94 0-88.047 34.148-97.261 79.413l2.386 0.56c8.953-44.176 48.095-77.529 94.875-77.529m0 7.356c43.36 0 79.61 30.99 87.74 71.993l2.39-0.55c-8.39-42.087-45.62-73.902-90.13-73.902-44.462 0-81.642 31.74-90.105 73.752l2.392 0.55c8.203-40.927 44.41-71.843 87.713-71.843"/><path id="Zaglebie-Lubin-SA" fill="#ec7404" d="m19.029 141.83l15.291 8.13 3.381-0.61-2.757-15.37-3.566 0.64 1.805 10.11-15.075-7.99-3.508 0.61 2.802 15.69 3.514-0.62-1.887-10.59zm11.145 24l-1.917-4.89 8.507-0.49-6.59 5.38zm10.105-9.34l-21.882 0.7 1.642 4.19 4.458-0.24 2.772 7.06-3.448 2.8 1.702 4.34 16.532-14.32-1.776-4.53zm2.519 25.62l-2.831 1.92 2.66 3.92c-1.219 0.57-2.422 0.69-3.611 0.39-1.196-0.3-2.2-1.05-3.009-2.23-0.825-1.23-1.122-2.6-0.914-4.15 0.215-1.53 1.374-3.01 3.447-4.43 2.073-1.39 3.916-2 5.551-1.84 1.619 0.19 2.905 0.97 3.833 2.34 0.483 0.71 0.796 1.45 0.937 2.2 0.245 1.37-0.119 2.57-1.107 3.64l2.414 3.54c1.501-1.29 2.356-2.99 2.564-5.04 0.2-2.06-0.431-4.17-1.91-6.34-1.694-2.51-3.886-3.95-6.575-4.34-2.698-0.4-5.41 0.34-8.159 2.21-2.719 1.84-4.354 4.05-4.904 6.62-0.586 2.48-0.104 4.86 1.427 7.11 0.929 1.37 1.991 2.33 3.202 2.88 0.706 0.33 1.687 0.56 2.95 0.7l-1.872 1.82 1.597 2.37 9.132-6.2-4.822-7.09zm11.754 12.77l3.663 0.38 1.843-2.04-3.537-0.36 4.042-4.17-3.076-2.99-6.397 6.58-4.934-0.5-1.843 2.03 4.815 0.51-5.996 6.17 10.477 10.17 2.555-2.63-7.4-7.19 5.788-5.96zm20.106 19.4l1.969-2.99-8.143-5.37 2.392-3.62 8.901 5.87 2.029-3.06-12.401-8.18-11.353 17.21 4.681 3.09c-0.238 0.26-0.483 0.54-0.706 0.87-0.647 0.95-0.929 1.9-0.855 2.8 0.075 0.92 0.617 1.71 1.62 2.38s1.999 0.83 2.98 0.47c0.624-0.22 1.107-0.56 1.478-1.03l-1.672-1.13c-0.252 0.3-0.527 0.5-0.824 0.58-0.298 0.11-0.632 0.02-1.011-0.23-0.542-0.36-0.743-0.86-0.587-1.5 0.082-0.35 0.275-0.76 0.587-1.24 0.245-0.34 0.476-0.62 0.699-0.84l6.434 4.25 2.014-3.08-9.325-6.15 2.957-4.47 8.136 5.37zm18.716 2.04c-0.319 0.8-0.802 1.26-1.448 1.37-0.639 0.11-1.375 0-2.207-0.32l-4.651-1.85 1.679-4.23 4.161 1.66c0.914 0.36 1.634 0.77 2.139 1.19 0.58 0.56 0.684 1.28 0.327 2.18m-2.6 7.91c-0.468 1.18-1.211 1.81-2.229 1.88-0.557 0.05-1.248-0.11-2.088-0.44l-4.696-1.87 2.043-5.11 4.763 1.89c0.817 0.34 1.419 0.71 1.798 1.09 0.669 0.71 0.81 1.56 0.409 2.56m6.613-6.8c0.445-1.13 0.549-2.22 0.282-3.26-0.446-1.73-1.828-3.07-4.146-4.04l-9.243-3.67-7.631 19.15 8.627 3.45c0.973 0.38 1.902 0.66 2.801 0.81s1.753 0.12 2.548-0.1c0.706-0.19 1.36-0.52 1.954-0.97 0.929-0.68 1.628-1.58 2.073-2.72 0.439-1.1 0.565-2.14 0.387-3.1-0.193-0.97-0.691-1.82-1.516-2.56 0.765-0.08 1.382-0.25 1.872-0.53 0.862-0.46 1.524-1.3 1.992-2.46m4.913-4.5l-4.72 20.07 4.18 0.98 4.71-20.07-4.17-0.98zm5.48 22.4l15.31 1.38 0.32-3.67-11.13-1 0.49-5.33 9.7 0.87 0.33-3.56-9.72-0.87 0.39-4.33 10.63 0.96 0.33-3.66-14.79-1.33-1.86 20.54zm34.13-3.9l-3-16.67-4.22 0.76 3.65 20.3 14.36-2.59-0.65-3.63-10.14 1.83zm24.05-24.97l-4.09 1.61 4.64 11.76c0.51 1.3 0.73 2.34 0.66 3.06-0.06 1.26-0.89 2.21-2.5 2.84-1.62 0.65-2.88 0.52-3.79-0.37-0.55-0.47-1.07-1.37-1.6-2.69l-4.62-11.76-4.09 1.61 4.65 11.78c0.79 2.04 1.73 3.51 2.81 4.39 2.01 1.62 4.67 1.77 7.99 0.46 3.31-1.3 5.15-3.23 5.51-5.76 0.17-1.4-0.12-3.11-0.93-5.14l-4.64-11.79zm21.07 6.31c-0.28 0.48-0.8 0.97-1.55 1.47l-4.2 2.8-3.06-4.57 4.26-2.86c0.74-0.48 1.38-0.77 1.92-0.85 0.95-0.16 1.73 0.21 2.33 1.11 0.71 1.05 0.81 2.02 0.3 2.9m-13.23-6.93l3.71-2.49c0.82-0.54 1.56-0.9 2.2-1.08 0.79-0.16 1.44 0.17 1.98 0.97 0.47 0.72 0.59 1.38 0.31 1.96-0.27 0.6-0.79 1.14-1.52 1.64l-4.16 2.79-2.52-3.79zm14.32-0.19c-0.9-0.4-1.89-0.47-2.96-0.22 0.36-0.67 0.57-1.28 0.62-1.82 0.1-0.99-0.21-2-0.9-3.06-0.68-1.01-1.53-1.71-2.54-2.08-1.66-0.61-3.55-0.21-5.65 1.14l-8.28 5.54 11.47 17.14 7.71-5.17c0.87-0.58 1.63-1.19 2.26-1.84 0.64-0.66 1.1-1.37 1.36-2.15 0.25-0.69 0.35-1.42 0.32-2.17-0.03-1.15-0.39-2.22-1.07-3.24-0.66-0.98-1.45-1.67-2.34-2.07m-4.16-11.69l13.85 15.29 3.17-2.89-13.84-15.27-3.18 2.87zm13.65-14.58l11.12 9.13-16.3-2.81-2.85 3.47 15.94 13.08 2.52-3.08-11.31-9.29 16.64 2.82 2.71-3.3-15.94-13.09-2.53 3.07zm28.08-23.56c-1.72-0.66-3.25-0.61-4.59 0.18-0.87 0.5-1.77 1.42-2.69 2.75l-2.1 3.03c-0.81 1.16-1.4 1.89-1.78 2.2-0.58 0.49-1.22 0.6-1.91 0.32-0.74-0.29-1.2-0.83-1.37-1.62-0.18-0.78-0.06-1.69 0.35-2.73 0.37-0.94 0.83-1.67 1.4-2.18 0.86-0.76 1.89-0.93 3.06-0.55l1.51-3.86c-2.06-0.73-3.92-0.59-5.54 0.44-1.65 1.01-2.86 2.53-3.65 4.56-0.95 2.45-1.11 4.51-0.46 6.2 0.64 1.7 1.82 2.9 3.55 3.58 1.89 0.73 3.52 0.63 4.91-0.32 0.83-0.56 1.86-1.76 3.11-3.61l1.25-1.86c0.74-1.1 1.38-1.87 1.93-2.29 0.57-0.43 1.17-0.51 1.8-0.27 1.09 0.42 1.61 1.28 1.55 2.57-0.02 0.68-0.22 1.49-0.6 2.45-0.61 1.58-1.45 2.56-2.49 2.92-0.58 0.18-1.32 0.17-2.25-0.05l-1.5 3.86c2 0.77 3.84 0.66 5.56-0.33 1.69-0.99 3.04-2.74 4.03-5.25 0.95-2.47 1.13-4.59 0.49-6.4-0.63-1.8-1.82-3.05-3.57-3.74m0.41-10.4l-7.54-3.98 8.41-1.22-0.87 5.2zm8.98-6.35l0.79-4.6-21.55 3.76-0.82 4.79 19.11 10.68 0.76-4.43-3.95-2.1 1.27-7.47 4.39-0.63z"/><path id="Circle-Copper-Inside" fill="#ed7824" d="m206.62 125c0 45.09-36.54 81.62-81.62 81.62-45.078 0-81.617-36.53-81.617-81.62 0-45.088 36.539-81.607 81.617-81.607 45.08 0 81.62 36.519 81.62 81.607"/><path id="Stripes-White" fill="#fff" d="m64.694 76.273v97.457c4.904 6.07 10.714 11.4 17.223 15.75v-128.94c-6.509 4.358-12.319 9.67-17.223 15.733m34.454-24.378v146.22c5.482 1.94 11.252 3.28 17.232 4.4v-154.1c-5.98 0.191-11.75 1.529-17.232 3.475m34.462-3.938v154.09c5.97-0.65 11.74-1.99 17.23-3.93v-146.22c-5.49-1.951-11.26-3.289-17.23-3.943m34.45 12.579v128.94c6.51-4.37 12.32-9.68 17.24-15.75v-97.457c-4.92-6.063-10.73-11.375-17.24-15.737"/><path id="Green-Stripes" fill="#009136" d="m47.456 125.01c0 18.46 6.465 35.41 17.238 48.72v-97.457c-10.773 13.322-17.238 30.267-17.238 48.737m34.461-64.474v128.94c5.32 3.56 11.093 6.47 17.231 8.64v-146.22c-6.138 2.165-11.911 5.07-17.231 8.636m43.073-13.054c-2.91 0-5.78 0.163-8.61 0.936v154.1c2.83-0.15 5.7 0.01 8.61 0.01s5.79-0.16 8.62-0.48v-154.09c-2.83-0.315-5.71-0.478-8.62-0.478m25.85 4.413v146.22c6.13-2.17 11.92-5.08 17.22-8.64v-128.94c-5.3-3.57-11.09-6.475-17.22-8.645m34.46 121.84c10.77-13.31 17.22-30.26 17.22-48.72 0-18.47-6.45-35.415-17.22-48.737v97.457z"/><path id="Hammers" fill="#ec7404" d="m148.07 163.5l17.19 17.62 15.39-16.21-18.56-16.48-14.02 15.07zm-60.142-14.88l-18.352 16.29 15.388 16.21 17.106-17.55m45.92-107.05l-18.59 17.527 32.93 31.779 16.85 16.26 3.21-32.257-34.4-33.309zm-27.43 17.527l-18.6-17.527-46.969 45.626 15.788 19.94 49.781-48.039z"/><path id="Coat-Of-Arms" fill="#19171c" d="m125 88.764h-37.342v57.686c0 6.02 6.827 13.11 11.647 15.79 4.545 2.52 15.905 5.86 25.695 14.66 9.79-8.8 21.14-12.14 25.69-14.66 4.83-2.68 11.64-9.77 11.64-15.79v-57.686h-37.33z"/><path id="Coat-Of-Arms-Shield" fill="#fff" d="m125 92.237h-33.868v54.213c0 4.02 5.387 10.27 9.858 12.76 1.03 0.56 2.61 1.26 4.45 2.04 5.08 2.21 12.52 5.47 19.56 11.11 7.04-5.64 14.47-8.9 19.56-11.11 1.84-0.78 3.41-1.48 4.44-2.04 4.47-2.49 9.86-8.74 9.86-12.76v-54.213h-33.86z"/><path id="Eagle" fill="#19171c" d="m123.91 96.936c-0.77-0.023-1.71 0.334-2.83 1.419 0 0-1.39 0.349-1.95-0.216-0.56-0.572-0.88-0.876-3.48-0.876-2.61 0-4.02 2.191-4.02 4.247 0 0 4.23-1.13 5.04 0.56 0 0-0.92 1.22-3.12 0.46 0 0 0.93 1.98 3.33 1.88 0 0 2.25 0.92 2.25 5.78 0 4.84-4.94 4.23-4.94 4.23s-0.42 2.09 0.81 2.81c0 0 0.52 2.76-2.98 1.11-3.47-1.62-5.8-4.07-6.31-5.71 0 0 3.97-2.74 3.97-7.15 0-4.58-4.8-6.434-6.13-6.434-4.388 0-6.431 6.014-6.431 6.014s0.424 11.66-0.186 13.49c-0.616 1.83-2.347 4.51-2.347 4.51s2.028 0.8 3.559-0.93c1.53-1.75 3.315-1.15 2.665 1.93-0.815 3.88-3.676 8.06-6.641 10.52 0 0 5.714 0.4 8.271-2.05 2.55-2.45 2.74 1.23 1.62 3.99-0.78 1.9-4.682 6.83-8.055 8.06 0 0-0.624 2.46 2.251 2.46 1.914 0 4.894-0.49 7.694-3.41 0.56-0.16 1.38-0.28 2.27 0 0 0-2.17 2.24-1.49 3.67 0 0 1.84-2.52 3.95-2.16 0 0-1.58 3.18-0.97 4.41 0 0 2.86-3.81 5.66-3.81 2.79 0 3.6 0.89 3.6 0.89 0-0.01 0.55-2.72-2.51-3.67l0.33-2.86s0.82 0.07 1.16-0.07 1.96-1.77 2.04-4.15c0 0 0.88-1.24 1.44 1.16 0.54 2.31 0.48 5.09 0.07 7.22-0.41 2.09-2.18 1.42-2.18 3.8 0 2.39 2.62 2.1 2.62 3.86 0 1.77-0.31 3.59-4.51 3.99-4.56 0.45-5.2-3.16-5.2-3.16-1.12 7.76 3.79 6.64 3.79 6.64s-0.21 2.65 1.84 2.65c2.04 0 1.73-1.44 2.55-1.44 0.81 0 1.11 1.14 1.11 1.14 0 3.27 2.6 3.92 2.6 3.92v-61.27s2.9-2.82 5.34-3.81c0 0-0.1-1.43-2.99-1.698 0 0-0.86-1.894-2.56-1.946zm-19.9 19.644c1.03 1.98 8.1 5.18 13.13 5.92 3.15 0.47 3.93 1.47 3.78 2.95-0.29 2.96-5.72 1.61-7.15 1-6.69-2.92-9.76-9.87-9.76-9.87zm10.9 14.88c0.06 0.01 0.11 0.02 0.18 0.05 1.12 0.5 0.83 4.4-1.93 5.11 0 0 0.09 1.54 1.42 2.04 0 0-0.93 2.97-1.23 3.99 0 0-1.53 0.04-2.07-0.23-0.47-0.24-2.15-1.3-3.64-0.9 1.33-2.03 2.55-4.76 3.48-8.48 0 0 0.7 1.53 1.77 1.28 0.99-0.25 1.09-2.95 2.02-2.86z"/><path id="Tower-Black" fill="#19171c" d="m141.37 111.36h-2.38l-5.24-12.222-0.41-0.966-0.41 0.966-5.23 12.222h-2.4-0.41v0.42 3.8 0.14l0.09 0.11 1.35 1.83v46.61c5.15-3.41 10.11-5.76 14.02-7.49v-39.12l1.35-1.83 0.08-0.11v-0.14-3.8-0.42h-0.41z"/><path id="Tower-White" fill="#fff" d="m127.14 117.09v45.67c4.57-2.89 8.91-4.97 12.38-6.5v-39.17h-12.38zm6.16 2.69c1.62 0 2.95 2.63 2.95 5.88 0 0.27-0.03 0.54-0.06 0.81h-5.8c-0.02-0.27-0.04-0.54-0.04-0.81 0-3.25 1.32-5.88 2.95-5.88zm0 13.03c1.62 0 2.95 2.63 2.95 5.87 0 0.26-0.03 0.55-0.06 0.81h-5.8c-0.02-0.26-0.04-0.55-0.04-0.81 0-3.24 1.32-5.87 2.95-5.87zm0 12.84c1.62 0 2.95 2.66 2.95 5.9 0 0.2-0.02 0.42-0.03 4.41-1.8 0.85-3.76 1.84-5.83 2.99-0.01-6.89-0.04-7.14-0.04-7.4 0-3.24 1.32-5.9 2.95-5.9zm5.2-33.47v2.45 0.42h-0.4-3.13-0.42v-0.42-2.45h-2.44v2.45 0.42h-0.4-3.14-0.41v-0.42-2.45h-2.45v3.28l0.62 0.82v-0.01h0.4 13.2 0.42v0.01l0.61-0.82v-3.28h-2.46zm-9.52-0.82v0.42 2.45h2.31v-2.45-0.42h0.42 3.26 0.41v0.42 2.45h2.31v-2.45-0.42h0.32l-4.68-10.92-4.67 10.92h0.32z"/><path id="Unknown-Bit" fill="#19171c" d="m152.27 129.53v17.07c-0.12 0.75-1.28 2.41-2.98 4.12v-14.13h-1.64v15.63c-0.62 0.52-1.24 0.95-1.81 1.27-0.22 0.11-0.68 0.33-1.16 0.56v-22.53h-1.64v23.79 1.25l1.14-0.5c0.21-0.08 1.92-0.85 2.45-1.14 0.76-0.43 1.55-0.99 2.36-1.68 2.27-1.94 4.7-4.78 4.91-6.46l0.01-0.04v-0.06-17.15h-1.64z"/></svg>
