<?xml version="1.0" encoding="UTF-8" standalone="no"?>
<!-- Created with Inkscape (http://www.inkscape.org/) -->

<svg
   xmlns:dc="http://purl.org/dc/elements/1.1/"
   xmlns:cc="http://creativecommons.org/ns#"
   xmlns:rdf="http://www.w3.org/1999/02/22-rdf-syntax-ns#"
   xmlns:svg="http://www.w3.org/2000/svg"
   xmlns="http://www.w3.org/2000/svg"
   xmlns:sodipodi="http://sodipodi.sourceforge.net/DTD/sodipodi-0.dtd"
   xmlns:inkscape="http://www.inkscape.org/namespaces/inkscape"
   width="61.128052mm"
   height="7.9530025mm"
   viewBox="0 0 61.128052 7.9530025"
   version="1.1"
   id="svg8"
   inkscape:version="0.92.0 r15299"
   sodipodi:docname="logo_full.svg">
  <defs
     id="defs2" />
  <sodipodi:namedview
     id="base"
     pagecolor="#ffffff"
     bordercolor="#666666"
     borderopacity="1.0"
     inkscape:pageopacity="0.0"
     inkscape:pageshadow="2"
     inkscape:zoom="1.01"
     inkscape:cx="315.63477"
     inkscape:cy="106.25429"
     inkscape:document-units="mm"
     inkscape:current-layer="layer1"
     showgrid="false"
     inkscape:window-width="1366"
     inkscape:window-height="706"
     inkscape:window-x="-8"
     inkscape:window-y="544"
     inkscape:window-maximized="1"
     fit-margin-top="0"
     fit-margin-left="0"
     fit-margin-right="0"
     fit-margin-bottom="0" />
  <metadata
     id="metadata5">
    <rdf:RDF>
      <cc:Work
         rdf:about="">
        <dc:format>image/svg+xml</dc:format>
        <dc:type
           rdf:resource="http://purl.org/dc/dcmitype/StillImage" />
        <dc:title></dc:title>
      </cc:Work>
    </rdf:RDF>
  </metadata>
  <g
     inkscape:label="Layer 1"
     inkscape:groupmode="layer"
     id="layer1"
     transform="translate(-22.321635,-11.879649)">
    <g
       aria-label="betters zone"
       transform="scale(0.26458333)"
       style="font-style:normal;font-weight:normal;font-size:40px;line-height:25px;font-family:sans-serif;letter-spacing:0px;word-spacing:0px;fill:#000000;fill-opacity:1;stroke:none"
       id="flowRoot3690">
      <path
         d="m 105.51758,65.153369 q 0,4.570312 -3.14453,7.34375 -2.636722,2.324219 -6.015628,2.324219 -2.089844,0 -3.730469,-0.917969 -0.996094,-0.546875 -1.855469,-1.679688 V 74.2354 h -6.40625 V 44.899463 h 6.40625 v 12.988281 q 1.035157,-1.074219 2.011719,-1.542969 1.699219,-0.820312 3.632813,-0.820312 3.320312,0 5.878904,2.207031 3.22266,2.773437 3.22266,7.421875 z m -6.660158,0.01953 q 0,-1.503906 -0.996094,-2.675781 -1.230469,-1.445313 -3.144531,-1.445313 -1.71875,0 -2.929688,1.210938 -1.210937,1.191406 -1.210937,2.910156 0,1.71875 1.210937,2.929688 1.210938,1.191406 2.929688,1.191406 1.933594,0 3.144531,-1.445313 0.996094,-1.191406 0.996094,-2.675781 z"
         style="font-style:normal;font-variant:normal;font-weight:normal;font-stretch:normal;font-family:Aharoni;-inkscape-font-specification:Aharoni;fill:#ffd906;fill-opacity:1"
         id="path4507"
         inkscape:connector-curvature="0" />
      <path
         d="M 128.44727,66.344775 H 114.9707 q 0,4.082031 3.94532,4.082031 2.01171,0 3.08593,-1.71875 h 6.19141 q -0.74219,2.460938 -2.1875,3.808594 -2.61719,2.441406 -7.01172,2.441406 -5.58594,0 -8.39844,-3.398437 -2.10937,-2.539063 -2.10937,-6.191406 0,-4.335938 2.63672,-7.050782 2.63672,-2.714843 7.4414,-2.714843 5.91797,0 8.45703,4.296875 1.42579,2.421875 1.42579,5.625 z M 122.4707,62.6729 q -0.68359,-3.007812 -3.65234,-3.007812 -1.64063,0 -2.65625,0.957031 -0.80078,0.761719 -1.01563,2.050781 z"
         style="font-style:normal;font-variant:normal;font-weight:normal;font-stretch:normal;font-family:Aharoni;-inkscape-font-specification:Aharoni;fill:#ffd906;fill-opacity:1"
         id="path4509"
         inkscape:connector-curvature="0" />
      <path
         d="m 142.90039,61.383838 h -3.65234 V 74.2354 H 132.8418 V 61.383838 h -2.10938 V 56.1104 h 2.10938 v -5.449219 h 6.40625 V 56.1104 h 3.65234 z"
         style="font-style:normal;font-variant:normal;font-weight:normal;font-stretch:normal;font-family:Aharoni;-inkscape-font-specification:Aharoni;fill:#ffd906;fill-opacity:1"
         id="path4511"
         inkscape:connector-curvature="0" />
      <path
         d="m 156.10352,61.383838 h -3.65235 V 74.2354 h -6.40625 V 61.383838 h -2.10937 V 56.1104 h 2.10937 v -5.449219 h 6.40625 V 56.1104 h 3.65235 z"
         style="font-style:normal;font-variant:normal;font-weight:normal;font-stretch:normal;font-family:Aharoni;-inkscape-font-specification:Aharoni;fill:#ffd906;fill-opacity:1"
         id="path4513"
         inkscape:connector-curvature="0" />
      <path
         d="m 177.74414,66.344775 h -13.47656 q 0,4.082031 3.94531,4.082031 2.01172,0 3.08594,-1.71875 h 6.1914 q -0.74218,2.460938 -2.1875,3.808594 -2.61718,2.441406 -7.01171,2.441406 -5.58594,0 -8.39844,-3.398437 -2.10938,-2.539063 -2.10938,-6.191406 0,-4.335938 2.63672,-7.050782 2.63672,-2.714843 7.44141,-2.714843 5.91797,0 8.45703,4.296875 1.42578,2.421875 1.42578,5.625 z M 171.76758,62.6729 q -0.6836,-3.007812 -3.65235,-3.007812 -1.64062,0 -2.65625,0.957031 -0.80078,0.761719 -1.01562,2.050781 z"
         style="font-style:normal;font-variant:normal;font-weight:normal;font-stretch:normal;font-family:Aharoni;-inkscape-font-specification:Aharoni;fill:#ffd906;fill-opacity:1"
         id="path4515"
         inkscape:connector-curvature="0" />
      <path
         d="m 194.99023,62.028369 q -1.34765,-0.644531 -2.73437,-0.644531 -3.16406,0 -4.10156,2.578125 -0.35157,0.9375 -0.35157,2.519531 V 74.2354 h -6.40625 v -18.125 h 6.40625 v 2.96875 q 1.01563,-1.582031 2.1875,-2.285156 1.58204,-0.9375 3.75,-0.9375 0.50782,0 1.25,0.05859 z"
         style="font-style:normal;font-variant:normal;font-weight:normal;font-stretch:normal;font-family:Aharoni;-inkscape-font-specification:Aharoni;fill:#ffd906;fill-opacity:1"
         id="path4517"
         inkscape:connector-curvature="0" />
      <path
         d="m 212.62695,68.122119 q 0,2.890625 -2.07031,4.726562 -2.32422,2.070313 -6.54297,2.070313 -3.73047,0 -7.24609,-2.089844 l 2.32422,-4.53125 q 2.7539,1.816406 5.11718,1.816406 2.01172,0 2.01172,-1.386718 0,-0.722657 -0.70312,-1.113282 -0.44922,-0.253906 -2.03125,-0.605468 -1.77735,-0.390625 -2.32422,-0.605469 -1.95313,-0.761719 -2.63672,-2.382813 -0.37109,-0.878906 -0.37109,-2.109375 0,-2.382812 1.62109,-4.160156 2.08984,-2.285156 6.44531,-2.285156 3.02735,0 5.87891,1.171875 l -2.16797,4.140625 q -1.79687,-0.917969 -3.4375,-0.917969 -1.93359,0 -1.93359,1.328125 0,0.605469 0.78125,0.976563 0.35156,0.175781 2.07031,0.527343 2.51953,0.527344 3.71094,1.679688 1.5039,1.445312 1.5039,3.75 z"
         style="font-style:normal;font-variant:normal;font-weight:normal;font-stretch:normal;font-family:Aharoni;-inkscape-font-specification:Aharoni;fill:#ffd906;fill-opacity:1"
         id="path4519"
         inkscape:connector-curvature="0" />
      <path
         d="m 244.87305,56.1104 -8.4961,12.851563 h 7.63672 V 74.2354 h -18.3789 l 8.55468,-12.851562 h -7.40234 V 56.1104 Z"
         style="font-style:normal;font-variant:normal;font-weight:normal;font-stretch:normal;font-family:Aharoni;-inkscape-font-specification:Aharoni;fill:#ffd906;fill-opacity:1"
         id="path4521"
         inkscape:connector-curvature="0" />
      <path
         d="m 268.97461,65.1729 q 0,3.769531 -2.48047,6.464844 -3.00781,3.28125 -8.41797,3.28125 -5.42969,0 -8.4375,-3.28125 -2.48047,-2.695313 -2.48047,-6.621094 0,-3.535156 2.5,-6.269531 3.02735,-3.300781 8.61328,-3.300781 5.13672,0 8.20313,3.300781 2.5,2.695312 2.5,6.425781 z m -6.66016,0 q 0,-1.757812 -1.25,-2.96875 -1.23047,-1.230469 -2.98828,-1.230469 -1.99219,0 -3.24219,1.484375 -1.01562,1.191407 -1.01562,2.714844 0,1.542969 1.01562,2.734375 1.25,1.484375 3.24219,1.484375 1.77735,0 3.00781,-1.210937 1.23047,-1.230469 1.23047,-3.007813 z"
         style="font-style:normal;font-variant:normal;font-weight:normal;font-stretch:normal;font-family:Aharoni;-inkscape-font-specification:Aharoni;fill:#ffd906;fill-opacity:1"
         id="path4523"
         inkscape:connector-curvature="0" />
      <path
         d="m 291.76758,74.2354 h -6.40625 v -9.179687 q 0,-2.402344 -0.54688,-3.183594 -0.80078,-1.152344 -2.40234,-1.152344 -1.46484,0 -2.46094,0.996094 -0.89844,0.898437 -0.89844,2.8125 V 74.2354 h -6.40625 v -18.125 h 6.40625 v 2.285156 q 1.11329,-1.289062 2.05079,-1.816406 1.52343,-0.859375 3.80859,-0.859375 2.92969,0 4.76562,1.582031 2.08985,1.796875 2.08985,5.390625 z"
         style="font-style:normal;font-variant:normal;font-weight:normal;font-stretch:normal;font-family:Aharoni;-inkscape-font-specification:Aharoni;fill:#ffd906;fill-opacity:1"
         id="path4525"
         inkscape:connector-curvature="0" />
      <path
         d="m 315.40039,66.344775 h -13.47656 q 0,4.082031 3.94531,4.082031 2.01172,0 3.08594,-1.71875 h 6.1914 q -0.74218,2.460938 -2.1875,3.808594 -2.61718,2.441406 -7.01171,2.441406 -5.58594,0 -8.39844,-3.398437 -2.10938,-2.539063 -2.10938,-6.191406 0,-4.335938 2.63672,-7.050782 2.63672,-2.714843 7.44141,-2.714843 5.91797,0 8.45703,4.296875 1.42578,2.421875 1.42578,5.625 z M 309.42383,62.6729 q -0.6836,-3.007812 -3.65235,-3.007812 -1.64062,0 -2.65625,0.957031 -0.80078,0.761719 -1.01562,2.050781 z"
         style="font-style:normal;font-variant:normal;font-weight:normal;font-stretch:normal;font-family:Aharoni;-inkscape-font-specification:Aharoni;fill:#ffd906;fill-opacity:1"
         id="path4527"
         inkscape:connector-curvature="0" />
    </g>
    <path
       style="opacity:0.01000001;stroke-width:0.99009901"
       d="m 226.93069,73.500926 c 0,-0.302158 1.79878,-3.198197 3.99729,-6.435644 l 3.99729,-5.886268 h -3.99729 c -3.60371,0 -3.99729,-0.243717 -3.99729,-2.475248 0,-2.448718 0.0914,-2.475247 8.52972,-2.475247 h 8.52971 l -1.75807,2.722772 c -0.96694,1.497525 -2.8093,4.282178 -4.09412,6.188119 l -2.33606,3.465347 3.98025,0.304453 c 3.47746,0.265993 3.98026,0.609945 3.98026,2.722772 0,2.374687 -0.15184,2.418319 -8.41585,2.418319 -4.62871,0 -8.41584,-0.247219 -8.41584,-0.549375 z"
       id="path3698"
       inkscape:connector-curvature="0"
       transform="scale(0.26458333)" />
  </g>
</svg>
