<?xml version="1.0" encoding="UTF-8" standalone="no"?>
<!-- Created with Inkscape (http://www.inkscape.org/) -->
<svg
   xmlns:dc="http://purl.org/dc/elements/1.1/"
   xmlns:cc="http://creativecommons.org/ns#"
   xmlns:rdf="http://www.w3.org/1999/02/22-rdf-syntax-ns#"
   xmlns:svg="http://www.w3.org/2000/svg"
   xmlns="http://www.w3.org/2000/svg"
   xmlns:sodipodi="http://sodipodi.sourceforge.net/DTD/sodipodi-0.dtd"
   xmlns:inkscape="http://www.inkscape.org/namespaces/inkscape"
   width="446"
   height="446"
   id="svg2"
   sodipodi:version="0.32"
   inkscape:version="0.46"
   sodipodi:docname="drawing.svg"
   inkscape:output_extension="org.inkscape.output.svg.inkscape"
   version="1.0">
  <defs
     id="defs4">
    <inkscape:perspective
       sodipodi:type="inkscape:persp3d"
       inkscape:vp_x="0 : 526.18109 : 1"
       inkscape:vp_y="0 : 1000 : 0"
       inkscape:vp_z="744.09448 : 526.18109 : 1"
       inkscape:persp3d-origin="372.04724 : 350.78739 : 1"
       id="perspective10" />
    <inkscape:perspective
       id="perspective2394"
       inkscape:persp3d-origin="372.04724 : 350.78739 : 1"
       inkscape:vp_z="744.09448 : 526.18109 : 1"
       inkscape:vp_y="0 : 1000 : 0"
       inkscape:vp_x="0 : 526.18109 : 1"
       sodipodi:type="inkscape:persp3d" />
  </defs>
  <sodipodi:namedview
     id="base"
     pagecolor="#ffffff"
     bordercolor="#666666"
     borderopacity="1.0"
     gridtolerance="10000"
     guidetolerance="10"
     objecttolerance="10"
     inkscape:pageopacity="0.0"
     inkscape:pageshadow="2"
     inkscape:zoom="0.98994949"
     inkscape:cx="367.2343"
     inkscape:cy="153.30459"
     inkscape:document-units="px"
     inkscape:current-layer="layer1"
     showgrid="false"
     inkscape:window-width="1280"
     inkscape:window-height="940"
     inkscape:window-x="-4"
     inkscape:window-y="-4">
    <inkscape:grid
       type="xygrid"
       id="grid3216"
       visible="true"
       enabled="true" />
  </sodipodi:namedview>
  <metadata
     id="metadata7">
    <rdf:RDF>
      <cc:Work
         rdf:about="">
        <dc:format>image/svg+xml</dc:format>
        <dc:type
           rdf:resource="http://purl.org/dc/dcmitype/StillImage" />
      </cc:Work>
    </rdf:RDF>
  </metadata>
  <g
     inkscape:label="Layer 1"
     inkscape:groupmode="layer"
     id="layer1">
    <path
       sodipodi:type="arc"
       style="fill:#293951;fill-opacity:1;fill-rule:evenodd;stroke:none;stroke-width:1px;stroke-linecap:butt;stroke-linejoin:miter;stroke-opacity:1"
       id="path2422"
       sodipodi:cx="505.07626"
       sodipodi:cy="440.20975"
       sodipodi:rx="204.05081"
       sodipodi:ry="204.05081"
       d="M 709.12708,440.20975 A 204.05081,204.05081 0 1 1 301.02545,440.20975 A 204.05081,204.05081 0 1 1 709.12708,440.20975 z"
       transform="matrix(1.0790143,0,0,1.0790143,-321.28808,-251.34752)" />
    <path
       transform="matrix(1.1207255,0,0,1.1207255,-460.66026,-222.16082)"
       d="M 755.5941,397.78333 A 144.95689,144.95689 0 1 1 465.68031,397.78333 A 144.95689,144.95689 0 1 1 755.5941,397.78333 z"
       sodipodi:ry="144.95689"
       sodipodi:rx="144.95689"
       sodipodi:cy="397.78333"
       sodipodi:cx="610.63721"
       id="path3214"
       style="fill:#faffff;fill-opacity:1;fill-rule:evenodd;stroke:none;stroke-width:20;stroke-linecap:butt;stroke-linejoin:miter;stroke-miterlimit:1;stroke-dasharray:none;stroke-opacity:1"
       sodipodi:type="arc" />
    <path
       sodipodi:type="arc"
       style="fill:#2d98d1;fill-opacity:1;fill-rule:evenodd;stroke:none;stroke-width:20;stroke-linecap:butt;stroke-linejoin:miter;stroke-miterlimit:1;stroke-dasharray:none;stroke-opacity:1"
       id="path3196"
       sodipodi:cx="610.63721"
       sodipodi:cy="397.78333"
       sodipodi:rx="144.95689"
       sodipodi:ry="144.95689"
       d="M 755.5941,397.78333 A 144.95689,144.95689 0 1 1 465.68031,397.78333 A 144.95689,144.95689 0 1 1 755.5941,397.78333 z"
       transform="translate(-386.94078,-174.13823)" />
    <path
       style="fill:#ffffff;fill-opacity:1;stroke:none;stroke-width:34;stroke-linecap:butt;stroke-linejoin:miter;stroke-miterlimit:4;stroke-dashoffset:1.29040003;stroke-opacity:0.50581396"
       d="M 323.75,124.53125 L 260,125 L 260,128.90625 C 260,128.90625 288.09375,128.74042 288.09375,145.96875 C 288.93515,148.64079 288.09375,243.5 288.09375,243.5 L 192.3125,125 L 123.75,125 L 123.64286,129.27232 C 123.64286,129.27232 144.10039,129.90117 152.375,149 C 153.06032,151.75954 152.9788,303.53258 152.375,304.37881 C 150.50851,315.2003 123.90625,313.84375 123.90625,313.84375 L 123.90625,318.375 L 193.1875,318.375 L 193.1875,313.375 C 193.1875,313.375 164.89125,315.79958 162.6875,304.41386 C 161.74645,303.0034 162.6875,162.40625 162.6875,162.40625 L 293.98661,322.75893 L 298.375,322.66964 C 298.375,322.66964 298.8445,148.35959 298.64286,145.95536 C 298.64286,128.90527 323.75,128.90625 323.75,128.90625 L 323.75,124.53125 z"
       id="rect3200"
       sodipodi:nodetypes="ccccccccccccccccccccc" />
  </g>
</svg>
